{
classes = (
{
code = "zero one two three four five six seven eight nine A B C D E F G H I J K L M N O P Q R S T U V W X Y Z uni0410 uni0411 uni0412 uni0413 uni0414 uni0415 uni0416 uni0417 uni0418 uni0419 uni041A uni041B uni041C uni041D uni041E uni041F uni0420 uni0421 uni0422 uni0423 uni0424 uni0425 uni0426 uni0427 uni0428 uni0429 uni042A uni042B uni042C uni042D uni042E uni042F uni0401 K_alt W_alt Acircumflex Adieresis Ccedilla Ecircumflex Icircumflex Odieresis Udieresis Abreve Idotaccent Scedilla uni0162 uni0218 uni021A uni04C1";
name = calt1;
},
{
code = "o a c d e g q s u y t acircumflex adieresis ccedilla ecircumflex odieresis udieresis u_alt y_alt s_alt c_alt t_alt t2.alt g_alt a_alt abreve scedilla uni0163 uni0219 uni021B uni0430 uni0431 uni0435 uni0437 uni043E uni0441 uni0444 uni044D uni0451 space zero one three five six seven eight nine f v endash emdash uni00AD hyphen.uc uni00AD.uc endash.uc emdash.uc minus hyphen t0163.alt t021b.alt a2_alt a00E2.alt a00E4.alt a0103.alt";
name = calt2;
},
{
code = "uniE000 uniE001 uniE002 uniE003 uniE004 uniE005 uniE006 uniE007 uniE008 uniE009 uniE010 uniE011 uniE012 uniE013 uniE014 uniE015 uniE016 uniE017 uniE018 uniE019 uniE020 uniE021 uniE022";
name = tnum1;
},
{
code = "zero one two three four five six seven eight nine period comma colon semicolon quotesingle quotedbl quoteright quotedblright quoteleft quotedblleft quotesinglbase quotedblbase colon.uc";
name = pnum1;
}
);
copyright = "Copyright (c) 2021-2022, Dmitri Voloshin, Andrey Kudryavtsev";
designer = "Andrey Kudryavtsev";
designerURL = "https://onest.md";
familyName = Onest;
customParameters = (
{
name = glyphOrder;
value = (
.notdef,
NULL,
CR,
space,
B,
D,
E,
F,
H,
I,
L,
M,
N,
P,
R,
U,
V,
W,
X,
Y,
Z,
b,
d,
h,
i,
l,
m,
n,
p,
q,
u,
v,
w,
x,
z,
period,
comma,
A,
breve,
circumflex,
uni0326,
exclam,
quotedbl,
quotesingle,
numbersign,
percent,
asterisk,
plus,
slash,
colon,
semicolon,
less,
equal,
greater,
at,
bracketleft,
bracketright,
backslash,
asciicircum,

glyphs = (
{
color = (166, 255, 153, 255);
glyphname = B;
layers = (
{
layerId = "C190A61C-9222-48AB-B064-ABA42A1AB28F";
paths = (
{
closed = 1;
nodes = (
"74 0 LINE",
"74 708 LINE",
"388 708 LINE",
"437 708 OFFCURVE",
"520 688 OFFCURVE",
"551 662 QCURVE",
"576 642 OFFCURVE",
"611 577 OFFCURVE",
"611 531 QCURVE",
"612 482 OFFCURVE",
"575 406 OFFCURVE",
"531 380 QCURVE",
"562 371 OFFCURVE",
"606 335 OFFCURVE",
"633 287 OFFCURVE",
"645 231 OFFCURVE",
"644 201 QCURVE",
"642 153 OFFCURVE",
"595 72 OFFCURVE",
"557 47 QCURVE",
"512 16 OFFCURVE",
"404 0 OFFCURVE",
"351 0 QCURVE"
);
},
{
closed = 1;
nodes = (
"347 421 LINE",
"369 421 OFFCURVE",
"413 426 OFFCURVE",
"432 437 QCURVE",
"448 447 OFFCURVE",
"470 481 OFFCURVE",
"471 504 QCURVE",
"472 528 OFFCURVE",
"454 558 OFFCURVE",
"441 566 QCURVE",
"425 576 OFFCURVE",
"383 579 OFFCURVE",
"361 579 QCURVE",
"219 579 LINE",
"219 421 LINE"
);
},
{
closed = 1;
nodes = (
"219 128 LINE",
"351 128 LINE",
"380 128 OFFCURVE",
"445 135 OFFCURVE",
"468 152 QCURVE",
"482 163 OFFCURVE",
"500 196 OFFCURVE",
"500 221 QCURVE",
"500 244 OFFCURVE",
"480 276 OFFCURVE",
"465 284 QCURVE",
"448 295 OFFCURVE",
"405 299 OFFCURVE",
"382 299 QCURVE",
"219 298 LINE"
);
}
);
width = 682;
}
);
leftKerningGroup = _kern1;
unicode = 0042;
},
{
color = (166, 255, 153, 255);
glyphname = D;
layers = (
{
layerId = "C190A61C-9222-48AB-B064-ABA42A1AB28F";
paths = (
{
closed = 1;
nodes = (
"75 0 LINE",
"75 708 LINE",
"336 708 LINE",
"387 708 OFFCURVE",
"485 691 OFFCURVE",
"530 667 QCURVE",
"610 626 OFFCURVE",
"691 466 OFFCURVE",
"691 353 QCURVE",
"691 182 OFFCURVE",
"514 0 OFFCURVE",
"343 0 QCURVE"
);
},
{
closed = 1;
nodes = (
"344 128 LINE",
"358 128 OFFCURVE",
"390 132 OFFCURVE",
"422 139 OFFCURVE",
"450 149 OFFCURVE",
"460 155 QCURVE",
"501 183 OFFCURVE",
"542 286 OFFCURVE",
"542 353 QCURVE",
"542 406 OFFCURVE",
"518 492 OFFCURVE",
"493 522 QCURVE",
"465 555 OFFCURVE",
"378 579 OFFCURVE",
"336 579 QCURVE",
"220 579 LINE",
"220 128 LINE"
);
}
);
width = 728;
}
);
leftKerningGroup = _kern1;
rightKerningGroup = _kern4;
unicode = 0044;
},
{
color = (166, 255, 153, 255);
glyphname = E;
layers = (
{
layerId = "C190A61C-9222-48AB-B064-ABA42A1AB28F";
paths = (
{
closed = 1;
nodes = (
"581 708 LINE",
"581 579 LINE",
"220 579 LINE",
"220 414 LINE",
"535 414 LINE",
"535 285 LINE",
"220 285 LINE",
"220 128 LINE",
"581 128 LINE",
"581 0 LINE",
"75 0 LINE",
"75 708 LINE"
);
}
);
width = 617;
}
);
leftKerningGroup = _kern1;
unicode = 0045;
},
{
color = (166, 255, 153, 255);
glyphname = F;
layers = (
{
layerId = "C190A61C-9222-48AB-B064-ABA42A1AB28F";
paths = (
{
closed = 1;
nodes = (
"569 708 LINE",
"569 579 LINE",
"220 579 LINE",
"220 396 LINE",
"513 396 LINE",
"513 269 LINE",
"220 269 LINE",
"220 0 LINE",
"75 0 LINE",
"75 708 LINE"
);
}
);
width = 594;
}
);
leftKerningGroup = _kern1;
unicode = 0046;
},
{
color = (166, 255, 153, 255);
glyphname = H;
layers = (
{
layerId = "C190A61C-9222-48AB-B064-ABA42A1AB28F";
paths = (
{
closed = 1;
nodes = (
"220 414 LINE",
"533 414 LINE",
"533 708 LINE",
"678 708 LINE",
"678 0 LINE",
"533 0 LINE",
"533 285 LINE",
"220 285 LINE",
"220 0 LINE",
"75 0 LINE",
"75 708 LINE",
"220 708 LINE"
);
}
);
width = 753;
}
);
leftKerningGroup = _kern1;
rightKerningGroup = _kern2;
unicode = 0048;
},
{
color = (166, 255, 153, 255);
glyphname = I;
layers = (
{
layerId = "C190A61C-9222-48AB-B064-ABA42A1AB28F";
paths = (
{
closed = 1;
nodes = (
"220 0 LINE",
"75 0 LINE",
"75 708 LINE",
"220 708 LINE"
);
}
);
width = 295;
}
);
leftKerningGroup = _kern1;
rightKerningGroup = _kern2;
unicode = 0049;
},
{
color = (166, 255, 153, 255);
glyphname = L;
layers = (
{
layerId = "C190A61C-9222-48AB-B064-ABA42A1AB28F";
paths = (
{
closed = 1;
nodes = (
"219 128 LINE",
"566 128 LINE",
"566 0 LINE",
"75 0 LINE",
"75 708 LINE",
"219 708 LINE"
);
}
);
width = 594;
}
);
unicode = 004C;
},
{
color = (166, 255, 153, 255);
glyphname = M;
layers = (
{
layerId = "C190A61C-9222-48AB-B064-ABA42A1AB28F";
paths = (
{
closed = 1;
nodes = (
"232 708 LINE",
"444 375 LINE",
"655 708 LINE",
"809 708 LINE",
"809 0 LINE",
"665 0 LINE",
"665 488 LINE",
"474 183 LINE",
"409 183 LINE",
"218 488 LINE",
"218 0 LINE",
"75 0 LINE",
"75 708 LINE"
);
}
);
width = 884;
}
);
leftKerningGroup = _kern1;
rightKerningGroup = _kern2;
unicode = 004D;
},
{
color = (166, 255, 153, 255);
glyphname = N;
layers = (
{
layerId = "C190A61C-9222-48AB-B064-ABA42A1AB28F";
paths = (
{
closed = 1;
nodes = (
"214 708 LINE",
"550 234 LINE",
"550 708 LINE",
"692 708 LINE",
"692 0 LINE",
"553 0 LINE",
"217 472 LINE",
"217 0 LINE",
"75 0 LINE",
"75 708 LINE"
);
}
);
width = 767;
}
);
leftKerningGroup = _kern1;
rightKerningGroup = _kern2;
unicode = 004E;
},
{
color = (166, 255, 153, 255);
glyphname = P;
layers = (
{
layerId = "C190A61C-9222-48AB-B064-ABA42A1AB28F";
paths = (
{
closed = 1;
nodes = (
"347 708 LINE",
"411 708 OFFCURVE",
"515 681 OFFCURVE",
"588 622 OFFCURVE",
"627 527 OFFCURVE",
"626 458 QCURVE",
"625 398 OFFCURVE",
"585 305 OFFCURVE",
"514 242 OFFCURVE",
"415 209 OFFCURVE",
"357 209 QCURVE",
"220 209 LINE",
"220 0 LINE",
"75 0 LINE",
"75 708 LINE"
);
},
{
closed = 1;
nodes = (
"349 337 LINE",
"376 337 OFFCURVE",
"425 351 OFFCURVE",
"461 381 OFFCURVE",
"483 425 OFFCURVE",
"484 455 QCURVE",
"486 523 OFFCURVE",
"409 579 OFFCURVE",
"348 579 QCURVE",
"220 579 LINE",
"220 337 LINE"
);
}
);
width = 664;
}
);
leftKerningGroup = _kern1;
unicode = 0050;
},
{
color = (166, 255, 153, 255);
glyphname = R;
layers = (
{
layerId = "C190A61C-9222-48AB-B064-ABA42A1AB28F";
paths = (
{
closed = 1;
nodes = (
"357 708 LINE",
"385 708 OFFCURVE",
"441 705 OFFCURVE",
"495 693 OFFCURVE",
"546 670 OFFCURVE",
"568 650 QCURVE",
"603 618 OFFCURVE",
"633 529 OFFCURVE",
"632 483 QCURVE",
"631 421 OFFCURVE",
"590 335 OFFCURVE",
"555 305 QCURVE",
"523 279 OFFCURVE",
"481 268 QCURVE",
"638 0 LINE",
"476 0 LINE",
"333 254 LINE",
"220 254 LINE",
"220 0 LINE",
"75 0 LINE",
"75 708 LINE"
);
},
{
closed = 1;
nodes = (
"358 376 LINE",
"385 376 OFFCURVE",
"433 386 OFFCURVE",
"468 409 OFFCURVE",
"489 448 OFFCURVE",
"490 478 QCURVE",
"491 510 OFFCURVE",
"471 550 OFFCURVE",
"453 561 QCURVE",
"436 572 OFFCURVE",
"389 579 OFFCURVE",
"361 579 QCURVE",
"220 579 LINE",
"220 376 LINE"
);
}
);
width = 679;
}
);
leftKerningGroup = _kern1;
unicode = 0052;
},
{
color = (166, 255, 153, 255);
glyphname = U;
layers = (
{
layerId = "C190A61C-9222-48AB-B064-ABA42A1AB28F";
paths = (
{
closed = 1;
nodes = (
"293 -8 OFFCURVE",
"176 40 OFFCURVE",
"103 128 OFFCURVE",
"70 251 OFFCURVE",
"70 328 QCURVE",
"70 708 LINE",
"215 708 LINE",
"215 318 LINE",
"215 279 OFFCURVE",
"231 208 OFFCURVE",
"269 154 OFFCURVE",
"331 121 OFFCURVE",
"378 121 QCURVE",
"424 121 OFFCURVE",
"486 154 OFFCURVE",
"523 209 OFFCURVE",
"538 280 OFFCURVE",
"538 318 QCURVE",
"538 708 LINE",
"682 708 LINE",
"682 328 LINE",
"682 253 OFFCURVE",
"649 128 OFFCURVE",
"576 40 OFFCURVE",
"459 -8 OFFCURVE",
"376 -8 QCURVE"
);
}
);
width = 752;
}
);
unicode = 0055;
},
{
color = (166, 255, 153, 255);
glyphname = V;
layers = (
{
layerId = "C190A61C-9222-48AB-B064-ABA42A1AB28F";
paths = (
{
closed = 1;
nodes = (
"539 708 LINE",
"696 708 LINE",
"427 0 LINE",
"271 0 LINE",
"2 708 LINE",
"163 708 LINE",
"352 173 LINE"
);
}
);
width = 698;
}
);
unicode = 0056;
},
{
color = (166, 255, 153, 255);
glyphname = W;
layers = (
{
layerId = "C190A61C-9222-48AB-B064-ABA42A1AB28F";
paths = (
{
closed = 1;
nodes = (
"183 0 LINE",
"3 708 LINE",
"168 708 LINE",
"284 165 LINE",
"393 708 LINE",
"588 708 LINE",
"694 165 LINE",
"803 708 LINE",
"959 708 LINE",
"791 0 LINE",
"599 0 LINE",
"488 552 LINE",
"378 0 LINE"
);
}
);
width = 962;
}
);
leftKerningGroup = _kern19;
rightKerningGroup = _kern19;
unicode = 0057;
},
{
color = (166, 255, 153, 255);
glyphname = X;
layers = (
{
layerId = "C190A61C-9222-48AB-B064-ABA42A1AB28F";
paths = (
{
closed = 1;
nodes = (
"486 708 LINE",
"654 708 LINE",
"420 354 LINE",
"660 0 LINE",
"491 0 LINE",
"331 243 LINE",
"165 0 LINE",
"2 0 LINE",
"245 355 LINE",
"10 708 LINE",
"179 708 LINE",
"334 463 LINE"
);
}
);
width = 662;
}
);
unicode = 0058;
},
{
color = (166, 255, 153, 255);
glyphname = Y;
layers = (
{
layerId = "C190A61C-9222-48AB-B064-ABA42A1AB28F";
paths = (
{
closed = 1;
nodes = (
"510 708 LINE",
"674 708 LINE",
"412 265 LINE",
"412 0 LINE",
"267 0 LINE",
"267 263 LINE",
"2 708 LINE",
"169 708 LINE",
"341 402 LINE"
);
}
);
width = 676;
}
);
leftKerningGroup = _kern31;
rightKerningGroup = _kern31;
unicode = 0059;
},
{
color = (166, 255, 153, 255);
glyphname = Z;
layers = (
{
layerId = "C190A61C-9222-48AB-B064-ABA42A1AB28F";
paths = (
{
closed = 1;
nodes = (
"40 579 LINE",
"40 708 LINE",
"595 708 LINE",
"595 594 LINE",
"214 128 LINE",
"588 128 LINE",
"588 0 LINE",
"32 0 LINE",
"32 115 LINE",
"413 579 LINE"
);
}
);
width = 627;
}
);
unicode = 005A;
},
{
color = (166, 255, 153, 255);
glyphname = b;
layers = (
{
layerId = "C190A61C-9222-48AB-B064-ABA42A1AB28F";
paths = (
{
closed = 1;
nodes = (
"197 460 LINE",
"229 498 OFFCURVE",
"322 537 OFFCURVE",
"369 538 QCURVE",
"425 539 OFFCURVE",
"521 498 OFFCURVE",
"553 450 QCURVE",
"579 415 OFFCURVE",
"603 320 OFFCURVE",
"603 268 QCURVE",
"603 203 OFFCURVE",
"572 96 OFFCURVE",
"535 58 QCURVE",
"504 25 OFFCURVE",
"417 -8 OFFCURVE",
"373 -8 QCURVE",
"322 -8 OFFCURVE",
"233 27 OFFCURVE",
"197 70 QCURVE",
"197 0 LINE",
"56 0 LINE",
"56 708 LINE",
"197 708 LINE"
);
},
{
closed = 1;
nodes = (
"198 198 OFFCURVE",
"269 118 OFFCURVE",
"332 117 QCURVE",
"366 116 OFFCURVE",
"414 138 OFFCURVE",
"445 179 OFFCURVE",
"462 233 OFFCURVE",
"462 265 QCURVE",
"462 296 OFFCURVE",
"445 350 OFFCURVE",
"412 390 OFFCURVE",
"364 412 OFFCURVE",
"330 412 QCURVE",
"298 412 OFFCURVE",
"247 388 OFFCURVE",
"214 347 OFFCURVE",
"197 292 OFFCURVE",
"197 262 QCURVE"
);
}
);
width = 638;
}
);
rightKerningGroup = _kern6;
unicode = 0062;
},
{
color = (166, 255, 153, 255);
glyphname = d;
layers = (
{
layerId = "C190A61C-9222-48AB-B064-ABA42A1AB28F";
paths = (
{
closed = 1;
nodes = (
"443 59 LINE",
"411 25 OFFCURVE",
"332 -6 OFFCURVE",
"276 -8 QCURVE",
"224 -8 OFFCURVE",
"136 25 OFFCURVE",
"104 58 QCURVE",
"66 98 OFFCURVE",
"35 204 OFFCURVE",
"35 259 QCURVE",
"35 388 OFFCURVE",
"107 466 QCURVE",
"139 500 OFFCURVE",
"235 538 OFFCURVE",
"296 538 QCURVE",
"342 538 OFFCURVE",
"415 511 OFFCURVE",
"441 485 QCURVE",
"441 708 LINE",
"582 708 LINE",
"582 0 LINE",
"451 0 LINE"
);
},
{
closed = 1;
nodes = (
"373 119 OFFCURVE",
"440 202 OFFCURVE",
"440 263 QCURVE",
"440 329 OFFCURVE",
"372 411 OFFCURVE",
"307 412 QCURVE",
"274 412 OFFCURVE",
"225 390 OFFCURVE",
"192 349 OFFCURVE",
"176 296 OFFCURVE",
"176 265 QCURVE",
"176 232 OFFCURVE",
"192 179 OFFCURVE",
"225 139 OFFCURVE",
"276 117 OFFCURVE",
"309 117 QCURVE"
);
}
);
width = 637;
}
);
leftKerningGroup = _kern5;
unicode = 0064;
},
{
color = (166, 255, 153, 255);
glyphname = h;
layers = (
{
layerId = "C190A61C-9222-48AB-B064-ABA42A1AB28F";
paths = (
{
closed = 1;
nodes = (
"197 468 LINE",
"211 485 OFFCURVE",
"241 508 OFFCURVE",
"262 519 QCURVE",
"284 529 OFFCURVE",
"329 538 OFFCURVE",
"355 538 QCURVE",
"406 538 OFFCURVE",
"482 503 OFFCURVE",
"507 475 QCURVE",
"536 440 OFFCURVE",
"560 346 OFFCURVE",
"560 289 QCURVE",
"560 0 LINE",
"418 0 LINE",
"418 278 LINE",
"418 306 OFFCURVE",
"407 357 OFFCURVE",
"381 394 OFFCURVE",
"340 412 OFFCURVE",
"310 412 QCURVE",
"280 411 OFFCURVE",
"233 386 OFFCURVE",
"208 346 OFFCURVE",
"197 297 OFFCURVE",
"197 271 QCURVE",
"197 0 LINE",
"56 0 LINE",
"56 708 LINE",
"197 708 LINE"
);
}
);
width = 612;
}
);
unicode = 0068;
},
{
color = (166, 255, 153, 255);
glyphname = i;
layers = (
{
layerId = "C190A61C-9222-48AB-B064-ABA42A1AB28F";
paths = (
{
closed = 1;
nodes = (
"173 772 OFFCURVE",
"221 726 OFFCURVE",
"221 688 QCURVE",
"221 648 OFFCURVE",
"173 603 OFFCURVE",
"134 603 QCURVE",
"96 603 OFFCURVE",
"47 648 OFFCURVE",
"47 688 QCURVE",
"47 726 OFFCURVE",
"96 772 OFFCURVE",
"134 772 QCURVE"
);
},
{
closed = 1;
nodes = (
"205 0 LINE",
"64 0 LINE",
"64 527 LINE",
"205 527 LINE"
);
}
);
width = 269;
}
);
unicode = 0069;
},
{
color = (166, 255, 153, 255);
glyphname = l;
layers = (
{
layerId = "C190A61C-9222-48AB-B064-ABA42A1AB28F";
paths = (
{
closed = 1;
nodes = (
"197 0 LINE",
"56 0 LINE",
"56 708 LINE",
"197 708 LINE"
);
}
);
width = 253;
}
);
unicode = 006C;
},
{
color = (166, 255, 153, 255);
glyphname = m;
layers = (
{
layerId = "C190A61C-9222-48AB-B064-ABA42A1AB28F";
paths = (
{
closed = 1;
nodes = (
"198 459 LINE",
"225 499 OFFCURVE",
"299 538 OFFCURVE",
"347 538 QCURVE",
"400 538 OFFCURVE",
"468 492 OFFCURVE",
"488 453 QCURVE",
"554 538 OFFCURVE",
"654 538 QCURVE",
"700 538 OFFCURVE",
"766 506 OFFCURVE",
"806 453 OFFCURVE",
"825 379 OFFCURVE",
"825 335 QCURVE",
"825 0 LINE",
"684 0 LINE",
"684 295 LINE",
"684 316 OFFCURVE",
"678 358 OFFCURVE",
"661 391 OFFCURVE",
"628 412 OFFCURVE",
"603 412 QCURVE",
"576 412 OFFCURVE",
"539 389 OFFCURVE",
"518 351 OFFCURVE",
"511 305 OFFCURVE",
"511 282 QCURVE",
"511 0 LINE",
"370 0 LINE",
"370 297 LINE",
"370 318 OFFCURVE",
"364 359 OFFCURVE",
"346 392 OFFCURVE",
"315 412 OFFCURVE",
"290 412 QCURVE",
"261 412 OFFCURVE",
"221 384 OFFCURVE",
"202 341 OFFCURVE",
"197 291 OFFCURVE",
"197 270 QCURVE",
"197 0 LINE",
"56 0 LINE",
"56 527 LINE",
"191 527 LINE"
);
}
);
width = 876;
}
);
unicode = 006D;
},
{
color = (166, 255, 153, 255);
glyphname = n;
layers = (
{
layerId = "C190A61C-9222-48AB-B064-ABA42A1AB28F";
paths = (
{
closed = 1;
nodes = (
"198 460 LINE",
"262 538 OFFCURVE",
"356 538 QCURVE",
"407 538 OFFCURVE",
"485 504 OFFCURVE",
"509 474 QCURVE",
"538 439 OFFCURVE",
"560 346 OFFCURVE",
"560 289 QCURVE",
"560 0 LINE",
"418 0 LINE",
"418 278 LINE",
"418 306 OFFCURVE",
"407 357 OFFCURVE",
"381 394 OFFCURVE",
"338 412 OFFCURVE",
"311 412 QCURVE",
"278 412 OFFCURVE",
"232 384 OFFCURVE",
"206 340 OFFCURVE",
"197 287 OFFCURVE",
"197 260 QCURVE",
"197 0 LINE",
"56 0 LINE",
"56 527 LINE",
"191 527 LINE"
);
}
);
width = 612;
}
);
unicode = 006E;
},
{
color = (166, 255, 153, 255);
glyphname = p;
layers = (
{
layerId = "C190A61C-9222-48AB-B064-ABA42A1AB28F";
paths = (
{
closed = 1;
nodes = (
"198 456 LINE",
"229 494 OFFCURVE",
"322 537 OFFCURVE",
"369 538 QCURVE",
"425 539 OFFCURVE",
"521 498 OFFCURVE",
"553 450 QCURVE",
"579 415 OFFCURVE",
"603 321 OFFCURVE",
"603 269 QCURVE",
"603 204 OFFCURVE",
"572 99 OFFCURVE",
"535 61 QCURVE",
"504 27 OFFCURVE",
"414 -8 OFFCURVE",
"369 -8 QCURVE",
"347 -8 OFFCURVE",
"303 -3 OFFCURVE",
"259 11 OFFCURVE",
"216 37 OFFCURVE",
"197 59 QCURVE",
"197 -220 LINE",
"56 -220 LINE",
"56 527 LINE",
"190 527 LINE"
);
},
{
closed = 1;
nodes = (
"299 412 OFFCURVE",
"250 389 OFFCURVE",
"216 349 OFFCURVE",
"197 297 OFFCURVE",
"197 267 QCURVE",
"196 200 OFFCURVE",
"269 119 OFFCURVE",
"332 117 QCURVE",
"366 117 OFFCURVE",
"414 139 OFFCURVE",
"445 179 OFFCURVE",
"462 233 OFFCURVE",
"462 265 QCURVE",
"462 296 OFFCURVE",
"445 350 OFFCURVE",
"412 390 OFFCURVE",
"364 412 OFFCURVE",
"330 412 QCURVE"
);
}
);
width = 638;
}
);
rightKerningGroup = _kern6;
unicode = 0070;
},
{
color = (166, 255, 153, 255);
glyphname = q;
layers = (
{
layerId = "C190A61C-9222-48AB-B064-ABA42A1AB28F";
paths = (
{
closed = 1;
nodes = (
"441 49 LINE",
"413 20 OFFCURVE",
"327 -8 OFFCURVE",
"279 -8 QCURVE",
"229 -8 OFFCURVE",
"136 25 OFFCURVE",
"104 59 QCURVE",
"65 99 OFFCURVE",
"35 204 OFFCURVE",
"35 259 QCURVE",
"35 388 OFFCURVE",
"107 466 QCURVE",
"138 500 OFFCURVE",
"236 539 OFFCURVE",
"291 538 QCURVE",
"309 538 OFFCURVE",
"351 532 OFFCURVE",
"393 515 OFFCURVE",
"431 489 OFFCURVE",
"446 470 QCURVE",
"461 527 LINE",
"583 527 LINE",
"583 -220 LINE",
"441 -220 LINE"
);
},
{
closed = 1;
nodes = (
"341 117 OFFCURVE",
"390 140 OFFCURVE",
"423 180 OFFCURVE",
"440 232 OFFCURVE",
"440 263 QCURVE",
"442 329 OFFCURVE",
"373 411 OFFCURVE",
"309 412 QCURVE",
"276 412 OFFCURVE",
"225 390 OFFCURVE",
"192 349 OFFCURVE",
"176 296 OFFCURVE",
"176 265 QCURVE",
"176 232 OFFCURVE",
"193 179 OFFCURVE",
"227 139 OFFCURVE",
"277 117 OFFCURVE",
"310 117 QCURVE"
);
}
);
width = 638;
}
);
leftKerningGroup = _kern5;
unicode = 0071;
},
{
color = (166, 255, 153, 255);
glyphname = u;
layers = (
{
layerId = "C190A61C-9222-48AB-B064-ABA42A1AB28F";
paths = (
{
closed = 1;
nodes = (
"356 117 OFFCURVE",
"404 178 OFFCURVE",
"402 235 QCURVE",
"402 527 LINE",
"543 527 LINE",
"543 231 LINE",
"543 176 OFFCURVE",
"522 98 OFFCURVE",
"497 66 QCURVE",
"478 42 OFFCURVE",
"433 16 OFFCURVE",
"382 -1 OFFCURVE",
"325 -8 OFFCURVE",
"298 -8 QCURVE",
"236 -8 OFFCURVE",
"134 26 OFFCURVE",
"100 66 QCURVE",
"74 98 OFFCURVE",
"54 176 OFFCURVE",
"54 231 QCURVE",
"54 527 LINE",
"195 527 LINE",
"195 235 LINE",
"194 178 OFFCURVE",
"244 118 OFFCURVE",
"298 117 QCURVE"
);
}
);
width = 597;
}
);
unicode = 0075;
},
{
color = (166, 255, 153, 255);
glyphname = v;
layers = (
{
layerId = "C190A61C-9222-48AB-B064-ABA42A1AB28F";
paths = (
{
closed = 1;
nodes = (
"409 527 LINE",
"564 527 LINE",
"370 0 LINE",
"193 0 LINE",
"0 527 LINE",
"156 527 LINE",
"283 136 LINE"
);
}
);
width = 564;
}
);
unicode = 0076;
},
{
color = (166, 255, 153, 255);
glyphname = w;
layers = (
{
layerId = "C190A61C-9222-48AB-B064-ABA42A1AB28F";
paths = (
{
closed = 1;
nodes = (
"163 0 LINE",
"0 527 LINE",
"156 527 LINE",
"251 161 LINE",
"359 527 LINE",
"500 527 LINE",
"607 161 LINE",
"702 527 LINE",
"849 527 LINE",
"687 0 LINE",
"532 0 LINE",
"426 349 LINE",
"323 0 LINE"
);
}
);
width = 849;
}
);
leftKerningGroup = _kern20;
rightKerningGroup = _kern20;
unicode = 0077;
},
{
color = (166, 255, 153, 255);
glyphname = x;
layers = (
{
layerId = "C190A61C-9222-48AB-B064-ABA42A1AB28F";
paths = (
{
closed = 1;
nodes = (
"364 527 LINE",
"524 527 LINE",
"355 266 LINE",
"533 0 LINE",
"374 0 LINE",
"265 175 LINE",
"160 0 LINE",
"2 0 LINE",
"176 268 LINE",
"11 527 LINE",
"173 527 LINE",
"270 356 LINE"
);
}
);
width = 535;
}
);
unicode = 0078;
},
{
color = (166, 255, 153, 255);
glyphname = z;
layers = (
{
layerId = "C190A61C-9222-48AB-B064-ABA42A1AB28F";
paths = (
{
closed = 1;
nodes = (
"475 425 LINE",
"219 123 LINE",
"475 123 LINE",
"475 0 LINE",
"35 0 LINE",
"35 103 LINE",
"289 405 LINE",
"35 405 LINE",
"35 527 LINE",
"475 527 LINE"
);
}
);
width = 510;
}
);
unicode = 007A;
},
{
color = (166, 255, 153, 255);
glyphname = period;
layers = (
{
layerId = "C190A61C-9222-48AB-B064-ABA42A1AB28F";
paths = (
{
closed = 1;
nodes = (
"180 166 OFFCURVE",
"228 120 OFFCURVE",
"228 78 QCURVE",
"228 36 OFFCURVE",
"180 -8 OFFCURVE",
"142 -8 QCURVE",
"104 -8 OFFCURVE",
"55 36 OFFCURVE",
"55 78 QCURVE",
"55 120 OFFCURVE",
"104 166 OFFCURVE",
"142 166 QCURVE"
);
}
);
width = 283;
}
);
leftKerningGroup = _kern14;
rightKerningGroup = _kern14;
unicode = 002E;
},
{
color = (166, 255, 153, 255);
glyphname = comma;
layers = (
{
layerId = "C190A61C-9222-48AB-B064-ABA42A1AB28F";
paths = (
{
closed = 1;
nodes = (
"104 -10 OFFCURVE",
"58 35 OFFCURVE",
"58 73 QCURVE",
"58 115 OFFCURVE",
"113 159 OFFCURVE",
"150 159 QCURVE",
"175 159 OFFCURVE",
"212 139 OFFCURVE",
"236 105 OFFCURVE",
"247 61 OFFCURVE",
"247 36 QCURVE",
"247 1 OFFCURVE",
"220 -66 OFFCURVE",
"177 -123 OFFCURVE",
"121 -166 OFFCURVE",
"91 -176 QCURVE",
"55 -126 LINE",
"83 -107 OFFCURVE",
"129 -50 OFFCURVE",
"138 -12 QCURVE"
);
}
);
width = 302;
}
);
leftKerningGroup = _kern14;
rightKerningGroup = _kern14;
unicode = 002C;
},
{
color = (166, 255, 153, 255);
glyphname = A;
layers = (
{
layerId = "C190A61C-9222-48AB-B064-ABA42A1AB28F";
paths = (
{
closed = 1;
nodes = (
"251 263 LINE",
"457 263 LINE",
"355 555 LINE"
);
},
{
closed = 1;
nodes = (
"209 135 LINE",
"158 0 LINE",
"0 0 LINE",
"274 708 LINE",
"438 708 LINE",
"708 0 LINE",
"549 0 LINE",
"500 135 LINE"
);
}
);
width = 708;
}
);
leftKerningGroup = _kern30;
rightKerningGroup = _kern30;
unicode = 0041;
},
{
color = (248, 153, 255, 255);
glyphname = breve;
layers = (
{
layerId = "C190A61C-9222-48AB-B064-ABA42A1AB28F";
paths = (
{
closed = 1;
nodes = (
"220 751 LINE",
"221 716 OFFCURVE",
"262 682 OFFCURVE",
"297 682 QCURVE",
"332 682 OFFCURVE",
"372 715 OFFCURVE",
"374 751 QCURVE",
"484 751 LINE",
"483 708 OFFCURVE",
"455 647 OFFCURVE",
"405 608 OFFCURVE",
"337 589 OFFCURVE",
"297 589 QCURVE",
"256 589 OFFCURVE",
"188 607 OFFCURVE",
"139 646 OFFCURVE",
"110 708 OFFCURVE",
"110 751 QCURVE"
);
}
);
width = 594;
}
);
unicode = 02D8;
},
{
color = (248, 153, 255, 255);
glyphname = circumflex;
layers = (
{
layerId = "C190A61C-9222-48AB-B064-ABA42A1AB28F";
paths = (
{
closed = 1;
nodes = (
"487 599 LINE",
"361 599 LINE",
"291 685 LINE",
"223 599 LINE",
"98 599 LINE",
"247 769 LINE",
"335 769 LINE"
);
}
);
width = 585;
}
);
unicode = 02C6;
},
{
color = (248, 153, 255, 255);
glyphname = uni0326;
layers = (
{
layerId = "C190A61C-9222-48AB-B064-ABA42A1AB28F";
paths = (
{
closed = 1;
nodes = (
"-329 -183 OFFCURVE",
"-360 -151 OFFCURVE",
"-360 -124 QCURVE",
"-360 -96 OFFCURVE",
"-325 -62 OFFCURVE",
"-295 -62 QCURVE",
"-277 -62 OFFCURVE",
"-249 -76 OFFCURVE",
"-231 -100 OFFCURVE",
"-224 -130 OFFCURVE",
"-224 -146 QCURVE",
"-224 -171 OFFCURVE",
"-241 -220 OFFCURVE",
"-272 -264 OFFCURVE",
"-314 -296 OFFCURVE",
"-335 -303 QCURVE",
"-360 -267 LINE",
"-341 -253 OFFCURVE",
"-308 -211 OFFCURVE",
"-302 -185 QCURVE"
);
}
);
width = 0;
}
);
unicode = 0326;
},
{
color = (166, 255, 153, 255);
glyphname = exclam;
layers = (
{
layerId = "C190A61C-9222-48AB-B064-ABA42A1AB28F";
paths = (
{
closed = 1;
nodes = (
"193 162 OFFCURVE",
"239 114 OFFCURVE",
"239 75 QCURVE",
"239 36 OFFCURVE",
"192 -9 OFFCURVE",
"152 -9 QCURVE",
"112 -9 OFFCURVE",
"65 35 OFFCURVE",
"65 75 QCURVE",
"65 114 OFFCURVE",
"112 162 OFFCURVE",
"152 162 QCURVE"
);
},
{
closed = 1;
nodes = (
"213 230 LINE",
"91 230 LINE",
"78 708 LINE",
"226 708 LINE"
);
}
);
width = 304;
}
);
unicode = 0021;
},
{
color = (166, 255, 153, 255);
glyphname = quotedbl;
layers = (
{
layerId = "C190A61C-9222-48AB-B064-ABA42A1AB28F";
paths = (
{
closed = 1;
nodes = (
"168 440 LINE",
"60 440 LINE",
"47 708 LINE",
"181 708 LINE"
);
},
{
closed = 1;
nodes = (
"354 440 LINE",
"246 440 LINE",
"232 708 LINE",
"368 708 LINE"
);
}
);
width = 415;
}
);
unicode = 0022;
},
{
color = (166, 255, 153, 255);
glyphname = quotesingle;
layers = (
{
layerId = "C190A61C-9222-48AB-B064-ABA42A1AB28F";
paths = (
{
closed = 1;
nodes = (
"176 440 LINE",
"68 440 LINE",
"55 708 LINE",
"190 708 LINE"
);
}
);
width = 245;
}
);
unicode = 0027;
},
{
color = (166, 255, 153, 255);
glyphname = numbersign;
layers = (
{
layerId = "C190A61C-9222-48AB-B064-ABA42A1AB28F";
paths = (
{
closed = 1;
nodes = (
"518 535 LINE",
"613 535 LINE",
"613 419 LINE",
"505 419 LINE",
"489 288 LINE",
"584 288 LINE",
"584 172 LINE",
"476 172 LINE",
"455 0 LINE",
"340 0 LINE",
"360 172 LINE",
"258 172 LINE",
"238 0 LINE",
"121 0 LINE",
"142 172 LINE",
"47 172 LINE",
"47 288 LINE",
"155 288 LINE",
"171 419 LINE",
"76 419 LINE",
"76 535 LINE",
"185 535 LINE",
"205 708 LINE",
"320 708 LINE",
"300 535 LINE",
"402 535 LINE",
"422 708 LINE",
"538 708 LINE"
);
},
{
closed = 1;
nodes = (
"374 288 LINE",
"388 419 LINE",
"286 419 LINE",
"272 288 LINE"
);
}
);
width = 660;
}
);
unicode = 0023;
},
{
color = (166, 255, 153, 255);
glyphname = percent;
layers = (
{
layerId = "C190A61C-9222-48AB-B064-ABA42A1AB28F";
paths = (
{
closed = 1;
nodes = (
"601 -15 OFFCURVE",
"538 12 OFFCURVE",
"494 59 OFFCURVE",
"472 122 OFFCURVE",
"472 158 QCURVE",
"472 196 OFFCURVE",
"494 260 OFFCURVE",
"538 306 OFFCURVE",
"602 332 OFFCURVE",
"643 332 QCURVE",
"685 332 OFFCURVE",
"749 306 OFFCURVE",
"792 260 OFFCURVE",
"815 196 OFFCURVE",
"815 158 QCURVE",
"815 122 OFFCURVE",
"792 59 OFFCURVE",
"749 12 OFFCURVE",
"685 -15 OFFCURVE",
"643 -15 QCURVE"
);
},
{
closed = 1;
nodes = (
"177 377 OFFCURVE",
"113 404 OFFCURVE",
"69 451 OFFCURVE",
"47 514 OFFCURVE",
"47 550 QCURVE",
"47 588 OFFCURVE",
"70 651 OFFCURVE",
"113 697 OFFCURVE",
"177 723 OFFCURVE",
"219 723 QCURVE",
"260 723 OFFCURVE",
"324 697 OFFCURVE",
"367 651 OFFCURVE",
"389 587 OFFCURVE",
"389 550 QCURVE",
"389 514 OFFCURVE",
"367 451 OFFCURVE",
"324 404 OFFCURVE",
"260 377 OFFCURVE",
"219 377 QCURVE"
);
},
{
closed = 1;
nodes = (
"131 0 LINE",
"585 708 LINE",
"724 708 LINE",
"271 0 LINE"
);
},
{
closed = 1;
nodes = (
"184 620 OFFCURVE",
"157 578 OFFCURVE",
"157 550 QCURVE",
"157 521 OFFCURVE",
"184 480 OFFCURVE",
"219 480 QCURVE",
"253 480 OFFCURVE",
"278 522 OFFCURVE",
"278 550 QCURVE",
"278 578 OFFCURVE",
"253 620 OFFCURVE",
"219 620 QCURVE"
);
},
{
closed = 1;
nodes = (
"611 229 OFFCURVE",
"582 187 OFFCURVE",
"582 158 QCURVE",
"582 129 OFFCURVE",
"609 88 OFFCURVE",
"643 88 QCURVE",
"678 88 OFFCURVE",
"703 130 OFFCURVE",
"703 158 QCURVE",
"703 187 OFFCURVE",
"678 229 OFFCURVE",
"643 229 QCURVE"
);
}
);
width = 862;
}
);
unicode = 0025;
},
{
color = (166, 255, 153, 255);
glyphname = asterisk;
layers = (
{
layerId = "C190A61C-9222-48AB-B064-ABA42A1AB28F";
paths = (
{
closed = 1;
nodes = (
"184 728 LINE",
"283 728 LINE",
"283 629 LINE",
"379 660 LINE",
"410 565 LINE",
"314 534 LINE",
"373 452 LINE",
"292 394 LINE",
"233 474 LINE",
"175 394 LINE",
"93 452 LINE",
"153 534 LINE",
"57 565 LINE",
"88 660 LINE",
"184 629 LINE"
);
}
);
width = 467;
}
);
unicode = 002A;
},
{
color = (166, 255, 153, 255);
glyphname = plus;
layers = (
{
layerId = "C190A61C-9222-48AB-B064-ABA42A1AB28F";
paths = (
{
closed = 1;
nodes = (
"360 302 LINE",
"360 121 LINE",
"243 121 LINE",
"243 302 LINE",
"62 302 LINE",
"62 420 LINE",
"243 420 LINE",
"243 600 LINE",
"360 600 LINE",
"360 420 LINE",
"541 420 LINE",
"541 302 LINE"
);
}
);
width = 603;
}
);
unicode = 002B;
},
{
color = (166, 255, 153, 255);
glyphname = slash;
layers = (
{
layerId = "C190A61C-9222-48AB-B064-ABA42A1AB28F";
paths = (
{
closed = 1;
nodes = (
"27 -171 LINE",
"329 784 LINE",
"464 784 LINE",
"162 -171 LINE"
);
}
);
width = 491;
}
);
unicode = 002F;
},
{
color = (166, 255, 153, 255);
glyphname = colon;
layers = (
{
layerId = "C190A61C-9222-48AB-B064-ABA42A1AB28F";
paths = (
{
closed = 1;
nodes = (
"183 165 OFFCURVE",
"229 117 OFFCURVE",
"229 77 QCURVE",
"229 36 OFFCURVE",
"182 -9 OFFCURVE",
"142 -9 QCURVE",
"102 -9 OFFCURVE",
"55 35 OFFCURVE",
"55 77 QCURVE",
"55 117 OFFCURVE",
"102 165 OFFCURVE",
"142 165 QCURVE"
);
},
{
closed = 1;
nodes = (
"183 525 OFFCURVE",
"229 476 OFFCURVE",
"229 436 QCURVE",
"229 395 OFFCURVE",
"182 350 OFFCURVE",
"142 350 QCURVE",
"102 350 OFFCURVE",
"55 394 OFFCURVE",
"55 436 QCURVE",
"55 476 OFFCURVE",
"102 525 OFFCURVE",
"142 525 QCURVE"
);
}
);
width = 284;
}
);
leftKerningGroup = _kern15;
unicode = 003A;
},
{
color = (166, 255, 153, 255);
glyphname = semicolon;
layers = (
{
layerId = "C190A61C-9222-48AB-B064-ABA42A1AB28F";
paths = (
{
closed = 1;
nodes = (
"101 -8 OFFCURVE",
"58 38 OFFCURVE",
"58 75 QCURVE",
"58 117 OFFCURVE",
"111 161 OFFCURVE",
"150 161 QCURVE",
"177 161 OFFCURVE",
"214 141 OFFCURVE",
"237 108 OFFCURVE",
"248 65 OFFCURVE",
"248 42 QCURVE",
"248 8 OFFCURVE",
"222 -60 OFFCURVE",
"180 -119 OFFCURVE",
"123 -164 OFFCURVE",
"91 -175 QCURVE",
"55 -125 LINE",
"85 -104 OFFCURVE",
"129 -46 OFFCURVE",
"137 -10 QCURVE"
);
},
{
closed = 1;
nodes = (
"192 525 OFFCURVE",
"238 476 OFFCURVE",
"238 436 QCURVE",
"238 395 OFFCURVE",
"191 350 OFFCURVE",
"152 350 QCURVE",
"111 350 OFFCURVE",
"64 394 OFFCURVE",
"64 436 QCURVE",
"64 476 OFFCURVE",
"111 525 OFFCURVE",
"152 525 QCURVE"
);
}
);
width = 303;
}
);
leftKerningGroup = _kern15;
unicode = 003B;
},
{
color = (166, 255, 153, 255);
glyphname = less;
layers = (
{
layerId = "C190A61C-9222-48AB-B064-ABA42A1AB28F";
paths = (
{
closed = 1;
nodes = (
"428 503 LINE",
"193 363 LINE",
"428 220 LINE",
"428 81 LINE",
"27 325 LINE",
"27 392 LINE",
"428 640 LINE"
);
}
);
width = 485;
}
);
unicode = 003C;
},
{
color = (166, 255, 153, 255);
glyphname = equal;
layers = (
{
layerId = "C190A61C-9222-48AB-B064-ABA42A1AB28F";
paths = (
{
closed = 1;
nodes = (
"57 428 LINE",
"57 546 LINE",
"506 546 LINE",
"506 428 LINE"
);
},
{
closed = 1;
nodes = (
"57 176 LINE",
"57 294 LINE",
"506 294 LINE",
"506 176 LINE"
);
}
);
width = 563;
}
);
unicode = 003D;
},
{
color = (166, 255, 153, 255);
glyphname = greater;
layers = (
{
layerId = "C190A61C-9222-48AB-B064-ABA42A1AB28F";
paths = (
{
closed = 1;
nodes = (
"57 218 LINE",
"292 359 LINE",
"57 501 LINE",
"57 640 LINE",
"458 397 LINE",
"458 330 LINE",
"57 81 LINE"
);
}
);
width = 485;
}
);
unicode = 003E;
},
{
color = (166, 255, 153, 255);
glyphname = at;
layers = (
{
layerId = "C190A61C-9222-48AB-B064-ABA42A1AB28F";
paths = (
{
closed = 1;
nodes = (
"388 258 OFFCURVE",
"397 211 OFFCURVE",
"420 174 OFFCURVE",
"458 151 OFFCURVE",
"485 150 QCURVE",
"512 150 OFFCURVE",
"551 173 OFFCURVE",
"578 211 OFFCURVE",
"592 258 OFFCURVE",
"594 281 QCURVE",
"596 306 OFFCURVE",
"588 352 OFFCURVE",
"568 388 OFFCURVE",
"533 410 OFFCURVE",
"508 411 QCURVE",
"479 412 OFFCURVE",
"436 392 OFFCURVE",
"407 356 OFFCURVE",
"391 308 OFFCURVE",
"389 282 QCURVE"
);
},
{
closed = 1;
nodes = (
"385 -168 OFFCURVE",
"224 -102 OFFCURVE",
"112 18 OFFCURVE",
"55 184 OFFCURVE",
"59 283 QCURVE",
"63 379 OFFCURVE",
"128 539 OFFCURVE",
"182 597 QCURVE",
"250 671 OFFCURVE",
"432 731 OFFCURVE",
"532 729 QCURVE",
"699 724 OFFCURVE",
"807 632 QCURVE",
"876 572 OFFCURVE",
"948 392 OFFCURVE",
"940 281 QCURVE",
"937 234 OFFCURVE",
"910 144 OFFCURVE",
"885 112 QCURVE",
"863 82 OFFCURVE",
"796 45 OFFCURVE",
"751 45 QCURVE",
"713 45 OFFCURVE",
"638 76 OFFCURVE",
"618 116 QCURVE",
"592 84 OFFCURVE",
"514 50 OFFCURVE",
"470 50 QCURVE",
"425 50 OFFCURVE",
"354 84 OFFCURVE",
"306 142 OFFCURVE",
"280 219 OFFCURVE",
"279 263 QCURVE",
"278 326 OFFCURVE",
"326 434 OFFCURVE",
"369 468 QCURVE",
"399 492 OFFCURVE",
"471 512 OFFCURVE",
"516 510 QCURVE",
"549 508 OFFCURVE",
"614 479 OFFCURVE",
"629 449 QCURVE",
"649 493 LINE",
"728 482 LINE",
"718 427 OFFCURVE",
"704 318 OFFCURVE",
"697 262 QCURVE",
"695 246 OFFCURVE",
"693 207 OFFCURVE",
"702 172 OFFCURVE",
"726 148 OFFCURVE",
"749 147 QCURVE",
"769 147 OFFCURVE",
"796 165 OFFCURVE",
"814 197 OFFCURVE",
"824 238 OFFCURVE",
"827 259 QCURVE",
"831 295 OFFCURVE",
"827 368 OFFCURVE",
"822 392 QCURVE",
"812 436 OFFCURVE",
"774 510 OFFCURVE",
"747 537 QCURVE",
"706 580 OFFCURVE",
"594 621 OFFCURVE",
"527 621 QCURVE",
"444 621 OFFCURVE",
"312 568 OFFCURVE",
"269 523 QCURVE",
"226 478 OFFCURVE",
"180 352 OFFCURVE",
"177 280 QCURVE",
"174 206 OFFCURVE",
"216 84 OFFCURVE",
"298 -5 OFFCURVE",
"418 -54 OFFCURVE",
"492 -54 QCURVE",
"512 -54 OFFCURVE",
"544 -52 OFFCURVE",
"571 -49 OFFCURVE",
"597 -44 OFFCURVE",
"612 -41 QCURVE",
"627 -152 LINE",
"563 -168 OFFCURVE",
"485 -168 QCURVE"
);
}
);
width = 999;
}
);
unicode = 0040;
},
{
color = (166, 255, 153, 255);
glyphname = bracketleft;
layers = (
{
layerId = "C190A61C-9222-48AB-B064-ABA42A1AB28F";
paths = (
{
closed = 1;
nodes = (
"75 784 LINE",
"327 784 LINE",
"327 668 LINE",
"210 668 LINE",
"210 -55 LINE",
"327 -55 LINE",
"327 -171 LINE",
"75 -171 LINE"
);
}
);
width = 350;
}
);
unicode = 005B;
},
{
color = (166, 255, 153, 255);
glyphname = bracketright;
layers = (
{
layerId = "C190A61C-9222-48AB-B064-ABA42A1AB28F";
paths = (
{
closed = 1;
nodes = (
"275 -171 LINE",
"23 -171 LINE",
"23 -55 LINE",
"140 -55 LINE",
"140 668 LINE",
"23 668 LINE",
"23 784 LINE",
"275 784 LINE"
);
}
);
width = 350;
}
);
unicode = 005D;
},
{
color = (166, 255, 153, 255);
glyphname = backslash;
layers = (
{
layerId = "C190A61C-9222-48AB-B064-ABA42A1AB28F";
paths = (
{
closed = 1;
nodes = (
"329 -171 LINE",
"27 784 LINE",
"162 784 LINE",
"464 -171 LINE"
);
}
);
width = 491;
}
);
unicode = 005C;
},
{
color = (166, 255, 153, 255);
glyphname = asciicircum;
layers = (
{
layerId = "C190A61C-9222-48AB-B064-ABA42A1AB28F";
paths = (
{
closed = 1;
nodes = (
"345 460 LINE",
"261 604 LINE",
"175 460 LINE",
"47 460 LINE",
"209 709 LINE",
"311 709 LINE",
"477 460 LINE"
);
}
);
width = 524;
}
);
unicode = 005E;
},
{
color = (166, 255, 153, 255);
glyphname = underscore;
layers = (
{
layerId = "C190A61C-9222-48AB-B064-ABA42A1AB28F";
paths = (
{
closed = 1;
nodes = (
"-15 -145 LINE",
"-15 -27 LINE",
"434 -27 LINE",
"434 -145 LINE"
);
}
);
width = 419;
}
);
unicode = 005F;
},
{
color = (166, 255, 153, 255);
glyphname = braceleft;
layers = (
{
layerId = "C190A61C-9222-48AB-B064-ABA42A1AB28F";
paths = (
{
closed = 1;
nodes = (
"216 301 OFFCURVE",
"239 272 OFFCURVE",
"252 236 OFFCURVE",
"257 198 OFFCURVE",
"257 183 QCURVE",
"257 9 LINE",
"257 -8 OFFCURVE",
"263 -35 OFFCURVE",
"271 -43 QCURVE",
"283 -55 OFFCURVE",
"313 -55 QCURVE",
"374 -55 LINE",
"374 -171 LINE",
"259 -171 LINE",
"193 -171 OFFCURVE",
"159 -143 QCURVE",
"142 -128 OFFCURVE",
"124 -78 OFFCURVE",
"124 -44 QCURVE",
"124 154 LINE",
"124 164 OFFCURVE",
"122 197 OFFCURVE",
"110 227 OFFCURVE",
"83 249 OFFCURVE",
"58 249 QCURVE",
"25 249 LINE",
"25 365 LINE",
"58 365 LINE",
"83 365 OFFCURVE",
"110 386 OFFCURVE",
"122 416 OFFCURVE",
"124 449 OFFCURVE",
"124 460 QCURVE",
"124 658 LINE",
"124 692 OFFCURVE",
"142 741 OFFCURVE",
"159 756 QCURVE",
"176 771 OFFCURVE",
"226 784 OFFCURVE",
"259 784 QCURVE",
"374 784 LINE",
"374 668 LINE",
"313 668 LINE",
"283 668 OFFCURVE",
"271 656 QCURVE",
"263 649 OFFCURVE",
"257 622 OFFCURVE",
"257 605 QCURVE",
"257 430 LINE",
"257 415 OFFCURVE",
"252 377 OFFCURVE",
"239 341 OFFCURVE",
"216 313 OFFCURVE",
"198 307 QCURVE"
);
}
);
width = 421;
}
);
unicode = 007B;
},
{
color = (166, 255, 153, 255);
glyphname = bar;
layers = (
{
layerId = "C190A61C-9222-48AB-B064-ABA42A1AB28F";
paths = (
{
closed = 1;
nodes = (
"75 -174 LINE",
"75 800 LINE",
"202 800 LINE",
"202 -174 LINE"
);
}
);
width = 277;
}
);
unicode = 007C;
},
{
color = (166, 255, 153, 255);
glyphname = braceright;
layers = (
{
layerId = "C190A61C-9222-48AB-B064-ABA42A1AB28F";
paths = (
{
closed = 1;
nodes = (
"205 313 OFFCURVE",
"182 341 OFFCURVE",
"170 377 OFFCURVE",
"165 415 OFFCURVE",
"165 430 QCURVE",
"165 605 LINE",
"165 622 OFFCURVE",
"158 649 OFFCURVE",
"150 656 QCURVE",
"138 668 OFFCURVE",
"108 668 QCURVE",
"47 668 LINE",
"47 784 LINE",
"162 784 LINE",
"195 784 OFFCURVE",
"245 771 OFFCURVE",
"262 756 QCURVE",
"279 741 OFFCURVE",
"297 692 OFFCURVE",
"297 658 QCURVE",
"297 460 LINE",
"297 449 OFFCURVE",
"299 416 OFFCURVE",
"311 386 OFFCURVE",
"338 365 OFFCURVE",
"363 365 QCURVE",
"396 365 LINE",
"396 249 LINE",
"363 249 LINE",
"338 249 OFFCURVE",
"311 227 OFFCURVE",
"299 197 OFFCURVE",
"297 164 OFFCURVE",
"297 154 QCURVE",
"297 -44 LINE",
"297 -111 OFFCURVE",
"262 -143 QCURVE",
"228 -171 OFFCURVE",
"162 -171 QCURVE",
"47 -171 LINE",
"47 -55 LINE",
"108 -55 LINE",
"138 -55 OFFCURVE",
"150 -43 QCURVE",
"165 -28 OFFCURVE",
"165 9 QCURVE",
"165 183 LINE",
"165 198 OFFCURVE",
"170 236 OFFCURVE",
"182 272 OFFCURVE",
"205 301 OFFCURVE",
"223 307 QCURVE"
);
}
);
width = 421;
}
);
unicode = 007D;
},
{
color = (166, 255, 153, 255);
glyphname = Euro;
layers = (
{
layerId = "C190A61C-9222-48AB-B064-ABA42A1AB28F";
paths = (
{
closed = 1;
nodes = (
"404 -8 OFFCURVE",
"297 25 OFFCURVE",
"256 56 QCURVE",
"219 85 OFFCURVE",
"165 166 OFFCURVE",
"150 218 QCURVE",
"37 218 LINE",
"57 325 LINE",
"132 325 LINE",
"132 382 LINE",
"44 382 LINE",
"63 490 LINE",
"151 490 LINE",
"166 541 OFFCURVE",
"220 622 OFFCURVE",
"257 651 QCURVE",
"299 683 OFFCURVE",
"404 714 OFFCURVE",
"464 714 QCURVE",
"539 714 OFFCURVE",
"650 668 OFFCURVE",
"694 620 QCURVE",
"617 519 LINE",
"581 552 OFFCURVE",
"513 586 OFFCURVE",
"463 587 QCURVE",
"425 587 OFFCURVE",
"356 559 OFFCURVE",
"330 527 QCURVE",
"322 519 OFFCURVE",
"311 501 OFFCURVE",
"306 490 QCURVE",
"562 490 LINE",
"543 382 LINE",
"280 382 LINE",
"278 354 OFFCURVE",
"280 325 QCURVE",
"532 325 LINE",
"513 218 LINE",
"307 218 LINE",
"315 204 OFFCURVE",
"331 178 OFFCURVE",
"342 169 QCURVE",
"367 143 OFFCURVE",
"432 120 OFFCURVE",
"467 120 QCURVE",
"517 119 OFFCURVE",
"590 152 OFFCURVE",
"625 187 QCURVE",
"699 88 LINE",
"656 41 OFFCURVE",
"543 -8 OFFCURVE",
"467 -8 QCURVE"
);
}
);
width = 736;
}
);
unicode = 20AC;
},
{
color = (166, 255, 153, 255);
glyphname = quotedblbase;
layers = (
{
layerId = "C190A61C-9222-48AB-B064-ABA42A1AB28F";
paths = (
{
closed = 1;
nodes = (
"98 1 OFFCURVE",
"58 45 OFFCURVE",
"58 80 QCURVE",
"58 118 OFFCURVE",
"107 161 OFFCURVE",
"145 161 QCURVE",
"170 161 OFFCURVE",
"205 142 OFFCURVE",
"227 111 OFFCURVE",
"238 70 OFFCURVE",
"238 49 QCURVE",
"238 17 OFFCURVE",
"214 -47 OFFCURVE",
"173 -103 OFFCURVE",
"119 -146 OFFCURVE",
"89 -156 QCURVE",
"55 -110 LINE",
"84 -89 OFFCURVE",
"125 -36 OFFCURVE",
"133 -1 QCURVE"
);
},
{
closed = 1;
nodes = (
"319 1 OFFCURVE",
"279 45 OFFCURVE",
"279 80 QCURVE",
"279 118 OFFCURVE",
"329 161 OFFCURVE",
"367 161 QCURVE",
"392 161 OFFCURVE",
"427 142 OFFCURVE",
"449 111 OFFCURVE",
"459 70 OFFCURVE",
"459 49 QCURVE",
"459 17 OFFCURVE",
"435 -47 OFFCURVE",
"394 -103 OFFCURVE",
"340 -146 OFFCURVE",
"310 -156 QCURVE",
"276 -110 LINE",
"305 -89 OFFCURVE",
"346 -36 OFFCURVE",
"354 -1 QCURVE"
);
}
);
width = 515;
}
);
leftKerningGroup = _kern14;
rightKerningGroup = _kern14;
unicode = 201E;
},
{
color = (166, 255, 153, 255);
glyphname = quotesinglbase;
layers = (
{
layerId = "C190A61C-9222-48AB-B064-ABA42A1AB28F";
paths = (
{
closed = 1;
nodes = (
"98 1 OFFCURVE",
"58 45 OFFCURVE",
"58 80 QCURVE",
"58 118 OFFCURVE",
"107 161 OFFCURVE",
"145 161 QCURVE",
"170 161 OFFCURVE",
"205 142 OFFCURVE",
"227 111 OFFCURVE",
"237 70 OFFCURVE",
"237 49 QCURVE",
"237 17 OFFCURVE",
"213 -47 OFFCURVE",
"172 -103 OFFCURVE",
"119 -146 OFFCURVE",
"89 -156 QCURVE",
"55 -110 LINE",
"84 -89 OFFCURVE",
"125 -36 OFFCURVE",
"132 -1 QCURVE"
);
}
);
width = 293;
}
);
unicode = 201A;
},
{
color = (166, 255, 153, 255);
glyphname = quotedblright;
layers = (
{
layerId = "C190A61C-9222-48AB-B064-ABA42A1AB28F";
paths = (
{
closed = 1;
nodes = (
"98 571 OFFCURVE",
"58 614 OFFCURVE",
"58 649 QCURVE",
"58 688 OFFCURVE",
"107 731 OFFCURVE",
"145 731 QCURVE",
"170 731 OFFCURVE",
"205 712 OFFCURVE",
"227 680 OFFCURVE",
"238 640 OFFCURVE",
"238 618 QCURVE",
"238 586 OFFCURVE",
"214 522 OFFCURVE",
"173 466 OFFCURVE",
"119 424 OFFCURVE",
"89 414 QCURVE",
"55 461 LINE",
"84 481 OFFCURVE",
"125 535 OFFCURVE",
"133 569 QCURVE"
);
},
{
closed = 1;
nodes = (
"319 571 OFFCURVE",
"279 614 OFFCURVE",
"279 649 QCURVE",
"279 688 OFFCURVE",
"329 731 OFFCURVE",
"367 731 QCURVE",
"392 731 OFFCURVE",
"427 712 OFFCURVE",
"449 680 OFFCURVE",
"459 640 OFFCURVE",
"459 618 QCURVE",
"459 586 OFFCURVE",
"435 522 OFFCURVE",
"394 466 OFFCURVE",
"340 424 OFFCURVE",
"310 414 QCURVE",
"276 461 LINE",
"305 481 OFFCURVE",
"346 535 OFFCURVE",
"354 569 QCURVE"
);
}
);
width = 515;
}
);
unicode = 201D;
},
{
color = (166, 255, 153, 255);
glyphname = quoteright;
layers = (
{
layerId = "C190A61C-9222-48AB-B064-ABA42A1AB28F";
paths = (
{
closed = 1;
nodes = (
"98 571 OFFCURVE",
"58 614 OFFCURVE",
"58 649 QCURVE",
"58 688 OFFCURVE",
"107 731 OFFCURVE",
"145 731 QCURVE",
"170 731 OFFCURVE",
"205 712 OFFCURVE",
"227 680 OFFCURVE",
"237 640 OFFCURVE",
"237 618 QCURVE",
"237 586 OFFCURVE",
"213 522 OFFCURVE",
"172 466 OFFCURVE",
"119 424 OFFCURVE",
"89 414 QCURVE",
"55 461 LINE",
"84 481 OFFCURVE",
"125 535 OFFCURVE",
"132 569 QCURVE"
);
}
);
width = 293;
}
);
unicode = 2019;
},
{
color = (166, 255, 153, 255);
glyphname = quotedblleft;
layers = (
{
layerId = "C190A61C-9222-48AB-B064-ABA42A1AB28F";
paths = (
{
closed = 1;
nodes = (
"416 599 OFFCURVE",
"457 556 OFFCURVE",
"457 522 QCURVE",
"457 482 OFFCURVE",
"407 439 OFFCURVE",
"370 439 QCURVE",
"345 439 OFFCURVE",
"310 459 OFFCURVE",
"287 491 OFFCURVE",
"277 532 OFFCURVE",
"277 553 QCURVE",
"277 584 OFFCURVE",
"301 649 OFFCURVE",
"341 704 OFFCURVE",
"395 747 OFFCURVE",
"426 758 QCURVE",
"460 710 LINE",
"431 690 OFFCURVE",
"389 636 OFFCURVE",
"381 601 QCURVE"
);
},
{
closed = 1;
nodes = (
"195 599 OFFCURVE",
"236 556 OFFCURVE",
"236 522 QCURVE",
"236 482 OFFCURVE",
"186 439 OFFCURVE",
"148 439 QCURVE",
"123 439 OFFCURVE",
"88 459 OFFCURVE",
"66 491 OFFCURVE",
"56 532 OFFCURVE",
"56 553 QCURVE",
"56 584 OFFCURVE",
"80 649 OFFCURVE",
"120 704 OFFCURVE",
"174 747 OFFCURVE",
"205 758 QCURVE",
"239 710 LINE",
"210 690 OFFCURVE",
"168 636 OFFCURVE",
"160 601 QCURVE"
);
}
);
width = 515;
}
);
unicode = 201C;
},
{
color = (166, 255, 153, 255);
glyphname = quoteleft;
layers = (
{
layerId = "C190A61C-9222-48AB-B064-ABA42A1AB28F";
paths = (
{
closed = 1;
nodes = (
"194 599 OFFCURVE",
"235 556 OFFCURVE",
"235 522 QCURVE",
"235 482 OFFCURVE",
"185 439 OFFCURVE",
"148 439 QCURVE",
"123 439 OFFCURVE",
"88 459 OFFCURVE",
"66 491 OFFCURVE",
"56 532 OFFCURVE",
"56 553 QCURVE",
"56 584 OFFCURVE",
"80 649 OFFCURVE",
"120 704 OFFCURVE",
"174 747 OFFCURVE",
"204 758 QCURVE",
"238 710 LINE",
"209 690 OFFCURVE",
"168 636 OFFCURVE",
"160 601 QCURVE"
);
}
);
width = 293;
}
);
unicode = 2018;
},
{
color = (166, 255, 153, 255);
glyphname = minus;
layers = (
{
layerId = "C190A61C-9222-48AB-B064-ABA42A1AB28F";
paths = (
{
closed = 1;
nodes = (
"62 302 LINE",
"62 420 LINE",
"511 420 LINE",
"511 302 LINE"
);
}
);
width = 573;
}
);
unicode = 2212;
},
{
color = (166, 255, 153, 255);
glyphname = hyphen;
layers = (
{
layerId = "C190A61C-9222-48AB-B064-ABA42A1AB28F";
paths = (
{
closed = 1;
nodes = (
"391 232 LINE",
"62 232 LINE",
"62 350 LINE",
"391 350 LINE"
);
}
);
width = 453;
}
);
unicode = 002D;
},
{
color = (166, 255, 153, 255);
glyphname = endash;
layers = (
{
layerId = "C190A61C-9222-48AB-B064-ABA42A1AB28F";
paths = (
{
closed = 1;
nodes = (
"561 232 LINE",
"62 232 LINE",
"62 350 LINE",
"561 350 LINE"
);
}
);
width = 623;
}
);
unicode = 2013;
},
{
color = (166, 255, 153, 255);
glyphname = emdash;
layers = (
{
layerId = "C190A61C-9222-48AB-B064-ABA42A1AB28F";
paths = (
{
closed = 1;
nodes = (
"785 232 LINE",
"62 232 LINE",
"62 350 LINE",
"785 350 LINE"
);
}
);
width = 847;
}
);
unicode = 2014;
},
{
color = (248, 153, 255, 255);
glyphname = grave;
layers = (
{
layerId = "C190A61C-9222-48AB-B064-ABA42A1AB28F";
paths = (
{
closed = 1;
nodes = (
"297 599 LINE",
"185 599 LINE",
"49 769 LINE",
"189 769 LINE"
);
}
);
width = 387;
}
);
unicode = 0060;
},
{
color = (248, 153, 255, 255);
glyphname = acute;
layers = (
{
layerId = "C190A61C-9222-48AB-B064-ABA42A1AB28F";
paths = (
{
closed = 1;
nodes = (
"198 769 LINE",
"338 769 LINE",
"202 599 LINE",
"90 599 LINE"
);
}
);
width = 387;
}
);
unicode = 00B4;
},
{
color = (166, 255, 153, 255);
glyphname = guillemotright;
layers = (
{
layerId = "C190A61C-9222-48AB-B064-ABA42A1AB28F";
paths = (
{
closed = 1;
nodes = (
"47 460 LINE",
"191 460 LINE",
"319 271 LINE",
"191 82 LINE",
"47 82 LINE",
"177 271 LINE"
);
},
{
closed = 1;
nodes = (
"270 460 LINE",
"414 460 LINE",
"543 271 LINE",
"414 82 LINE",
"270 82 LINE",
"401 271 LINE"
);
}
);
width = 570;
}
);
unicode = 00BB;
},
{
color = (166, 255, 153, 255);
glyphname = guilsinglright;
layers = (
{
layerId = "C190A61C-9222-48AB-B064-ABA42A1AB28F";
paths = (
{
closed = 1;
nodes = (
"47 460 LINE",
"192 460 LINE",
"320 271 LINE",
"192 82 LINE",
"47 82 LINE",
"178 271 LINE"
);
}
);
width = 347;
}
);
unicode = 203A;
},
{
color = (166, 255, 153, 255);
glyphname = guillemotleft;
layers = (
{
layerId = "C190A61C-9222-48AB-B064-ABA42A1AB28F";
paths = (
{
closed = 1;
nodes = (
"392 271 LINE",
"523 82 LINE",
"378 82 LINE",
"250 271 LINE",
"378 460 LINE",
"523 460 LINE"
);
},
{
closed = 1;
nodes = (
"168 271 LINE",
"299 82 LINE",
"155 82 LINE",
"27 271 LINE",
"155 460 LINE",
"299 460 LINE"
);
}
);
width = 570;
}
);
unicode = 00AB;
},
{
color = (166, 255, 153, 255);
glyphname = guilsinglleft;
layers = (
{
layerId = "C190A61C-9222-48AB-B064-ABA42A1AB28F";
paths = (
{
closed = 1;
nodes = (
"169 271 LINE",
"300 82 LINE",
"155 82 LINE",
"27 271 LINE",
"155 460 LINE",
"300 460 LINE"
);
}
);
width = 347;
}
);
unicode = 2039;
},
{
color = (166, 255, 153, 255);
glyphname = uni00AD;
layers = (
{
layerId = "C190A61C-9222-48AB-B064-ABA42A1AB28F";
paths = (
{
closed = 1;
nodes = (
"391 232 LINE",
"62 232 LINE",
"62 350 LINE",
"391 350 LINE"
);
}
);
width = 453;
}
);
unicode = 00AD;
},
{
color = (166, 255, 153, 255);
glyphname = ellipsis;
layers = (
{
layerId = "C190A61C-9222-48AB-B064-ABA42A1AB28F";
paths = (
{
closed = 1;
nodes = (
"170 166 OFFCURVE",
"218 120 OFFCURVE",
"218 78 QCURVE",
"218 36 OFFCURVE",
"170 -8 OFFCURVE",
"132 -8 QCURVE",
"94 -8 OFFCURVE",
"45 36 OFFCURVE",
"45 78 QCURVE",
"45 120 OFFCURVE",
"94 166 OFFCURVE",
"132 166 QCURVE"
);
},
{
closed = 1;
nodes = (
"431 166 OFFCURVE",
"479 120 OFFCURVE",
"479 78 QCURVE",
"479 36 OFFCURVE",
"431 -8 OFFCURVE",
"393 -8 QCURVE",
"355 -8 OFFCURVE",
"306 36 OFFCURVE",
"306 78 QCURVE",
"306 120 OFFCURVE",
"355 166 OFFCURVE",
"393 166 QCURVE"
);
},
{
closed = 1;
nodes = (
"692 166 OFFCURVE",
"740 120 OFFCURVE",
"740 78 QCURVE",
"740 36 OFFCURVE",
"692 -8 OFFCURVE",
"654 -8 QCURVE",
"616 -8 OFFCURVE",
"567 36 OFFCURVE",
"567 78 QCURVE",
"567 120 OFFCURVE",
"616 166 OFFCURVE",
"654 166 QCURVE"
);
}
);
width = 785;
}
);
unicode = 2026;
},
{
color = (166, 255, 153, 255);
glyphname = uni0445;
layers = (
{
layerId = "C190A61C-9222-48AB-B064-ABA42A1AB28F";
paths = (
{
closed = 1;
nodes = (
"364 527 LINE",
"524 527 LINE",
"355 266 LINE",
"533 0 LINE",
"374 0 LINE",
"265 175 LINE",
"160 0 LINE",
"2 0 LINE",
"176 268 LINE",
"11 527 LINE",
"173 527 LINE",
"270 356 LINE"
);
}
);
width = 535;
}
);
unicode = 0445;
},
{
color = (166, 255, 153, 255);
glyphname = uni0431;
layers = (
{
layerId = "C190A61C-9222-48AB-B064-ABA42A1AB28F";
paths = (
{
closed = 1;
nodes = (
"42 381 OFFCURVE",
"49 466 OFFCURVE",
"69 544 OFFCURVE",
"103 614 OFFCURVE",
"130 642 QCURVE",
"150 664 OFFCURVE",
"203 696 OFFCURVE",
"236 707 QCURVE",
"279 720 OFFCURVE",
"365 728 OFFCURVE",
"406 732 QCURVE",
"426 734 OFFCURVE",
"467 738 OFFCURVE",
"507 743 OFFCURVE",
"544 750 OFFCURVE",
"560 755 QCURVE",
"560 622 LINE",
"533 610 OFFCURVE",
"476 604 OFFCURVE",
"447 602 QCURVE",
"412 599 OFFCURVE",
"341 594 OFFCURVE",
"307 589 QCURVE",
"277 585 OFFCURVE",
"234 565 OFFCURVE",
"218 547 QCURVE",
"198 526 OFFCURVE",
"177 463 OFFCURVE",
"177 429 QCURVE",
"212 468 OFFCURVE",
"306 501 OFFCURVE",
"357 501 QCURVE",
"408 501 OFFCURVE",
"493 471 OFFCURVE",
"524 441 QCURVE",
"558 410 OFFCURVE",
"594 319 OFFCURVE",
"594 265 QCURVE",
"594 135 OFFCURVE",
"516 63 QCURVE",
"480 28 OFFCURVE",
"381 -9 OFFCURVE",
"320 -8 QCURVE",
"260 -7 OFFCURVE",
"167 31 OFFCURVE",
"134 64 QCURVE",
"107 90 OFFCURVE",
"72 156 OFFCURVE",
"51 227 OFFCURVE",
"42 302 OFFCURVE",
"42 338 QCURVE"
);
},
{
closed = 1;
nodes = (
"355 117 OFFCURVE",
"403 138 OFFCURVE",
"436 175 OFFCURVE",
"453 220 OFFCURVE",
"453 244 QCURVE",
"455 302 OFFCURVE",
"386 371 OFFCURVE",
"329 372 QCURVE",
"301 372 OFFCURVE",
"253 356 OFFCURVE",
"216 324 OFFCURVE",
"195 279 OFFCURVE",
"194 250 QCURVE",
"193 225 OFFCURVE",
"208 178 OFFCURVE",
"239 140 OFFCURVE",
"290 117 OFFCURVE",
"323 117 QCURVE"
);
}
);
width = 628;
}
);
rightKerningGroup = _kern10;
unicode = 0431;
},
{
color = (166, 255, 153, 255);
glyphname = uni0432;
layers = (
{
layerId = "C190A61C-9222-48AB-B064-ABA42A1AB28F";
paths = (
{
closed = 1;
nodes = (
"302 527 LINE",
"323 527 OFFCURVE",
"369 526 OFFCURVE",
"413 520 OFFCURVE",
"453 505 OFFCURVE",
"470 491 QCURVE",
"490 475 OFFCURVE",
"514 422 OFFCURVE",
"514 387 QCURVE",
"514 357 OFFCURVE",
"483 297 OFFCURVE",
"450 278 QCURVE",
"493 263 OFFCURVE",
"534 195 OFFCURVE",
"532 152 QCURVE",
"530 111 OFFCURVE",
"496 54 OFFCURVE",
"473 36 QCURVE",
"440 13 OFFCURVE",
"354 -1 OFFCURVE",
"308 0 QCURVE",
"56 0 LINE",
"56 527 LINE"
);
},
{
closed = 1;
nodes = (
"308 119 LINE",
"321 119 OFFCURVE",
"350 122 OFFCURVE",
"375 132 OFFCURVE",
"391 154 OFFCURVE",
"391 171 QCURVE",
"391 186 OFFCURVE",
"380 206 OFFCURVE",
"362 216 OFFCURVE",
"337 220 OFFCURVE",
"325 220 QCURVE",
"197 220 LINE",
"197 119 LINE"
);
},
{
closed = 1;
nodes = (
"318 319 LINE",
"342 319 OFFCURVE",
"378 340 OFFCURVE",
"378 367 QCURVE",
"378 383 OFFCURVE",
"364 400 OFFCURVE",
"342 409 OFFCURVE",
"317 412 OFFCURVE",
"305 412 QCURVE",
"197 412 LINE",
"197 319 LINE"
);
}
);
width = 571;
}
);
leftKerningGroup = _kern11;
unicode = 0432;
},
{
color = (166, 255, 153, 255);
glyphname = uni0433;
layers = (
{
layerId = "C190A61C-9222-48AB-B064-ABA42A1AB28F";
paths = (
{
closed = 1;
nodes = (
"453 527 LINE",
"453 405 LINE",
"197 405 LINE",
"197 0 LINE",
"56 0 LINE",
"56 527 LINE"
);
}
);
width = 474;
}
);
leftKerningGroup = _kern11;
rightKerningGroup = _kern24;
unicode = 0433;
},
{
color = (166, 255, 153, 255);
glyphname = uni0434;
layers = (
{
layerId = "C190A61C-9222-48AB-B064-ABA42A1AB28F";
paths = (
{
closed = 1;
nodes = (
"561 527 LINE",
"561 122 LINE",
"630 122 LINE",
"630 -145 LINE",
"489 -145 LINE",
"489 0 LINE",
"156 0 LINE",
"156 -145 LINE",
"14 -145 LINE",
"14 122 LINE",
"34 122 LINE",
"59 122 OFFCURVE",
"85 149 OFFCURVE",
"93 170 QCURVE",
"102 194 OFFCURVE",
"110 248 OFFCURVE",
"112 266 QCURVE",
"119 333 OFFCURVE",
"120 460 OFFCURVE",
"122 527 QCURVE"
);
},
{
closed = 1;
nodes = (
"419 122 LINE",
"419 405 LINE",
"253 405 LINE",
"253 374 OFFCURVE",
"250 310 OFFCURVE",
"248 278 QCURVE",
"246 240 OFFCURVE",
"234 155 OFFCURVE",
"215 122 QCURVE"
);
}
);
width = 644;
}
);
rightKerningGroup = _kern13;
unicode = 0434;
},
{
color = (166, 255, 153, 255);
glyphname = uni0436;
layers = (
{
layerId = "C190A61C-9222-48AB-B064-ABA42A1AB28F";
paths = (
{
closed = 1;
nodes = (
"495 200 LINE",
"495 0 LINE",
"354 0 LINE",
"354 200 LINE",
"279 200 LINE",
"170 0 LINE",
"2 0 LINE",
"164 277 LINE",
"14 527 LINE",
"177 527 LINE",
"285 322 LINE",
"354 322 LINE",
"354 527 LINE",
"495 527 LINE",
"495 322 LINE",
"564 322 LINE",
"672 527 LINE",
"834 527 LINE",
"684 277 LINE",
"846 0 LINE",
"679 0 LINE",
"570 200 LINE"
);
}
);
width = 848;
}
);
unicode = 0436;
},
{
color = (166, 255, 153, 255);
glyphname = uni043A;
layers = (
{
layerId = "C190A61C-9222-48AB-B064-ABA42A1AB28F";
paths = (
{
closed = 1;
nodes = (
"197 201 LINE",
"197 0 LINE",
"56 0 LINE",
"56 527 LINE",
"197 527 LINE",
"197 323 LINE",
"267 323 LINE",
"381 527 LINE",
"542 527 LINE",
"386 277 LINE",
"554 0 LINE",
"390 0 LINE",
"272 201 LINE"
);
}
);
width = 554;
}
);
leftKerningGroup = _kern11;
unicode = 043A;
},
{
color = (166, 255, 153, 255);
glyphname = uni0438;
layers = (
{
layerId = "C190A61C-9222-48AB-B064-ABA42A1AB28F";
paths = (
{
closed = 1;
nodes = (
"197 212 LINE",
"441 527 LINE",
"562 527 LINE",
"562 0 LINE",
"420 0 LINE",
"420 305 LINE",
"183 0 LINE",
"56 0 LINE",
"56 527 LINE",
"197 527 LINE"
);
}
);
width = 617;
}
);
leftKerningGroup = _kern11;
unicode = 0438;
},
{
color = (166, 255, 153, 255);
glyphname = uni0439;
layers = (
{
layerId = "C190A61C-9222-48AB-B064-ABA42A1AB28F";
paths = (
{
closed = 1;
nodes = (
"235 572 OFFCURVE",
"128 653 OFFCURVE",
"118 735 QCURVE",
"241 735 LINE",
"248 707 OFFCURVE",
"288 675 OFFCURVE",
"317 675 QCURVE",
"346 675 OFFCURVE",
"386 707 OFFCURVE",
"392 735 QCURVE",
"516 735 LINE",
"505 653 OFFCURVE",
"399 572 OFFCURVE",
"317 572 QCURVE"
);
},
{
closed = 1;
nodes = (
"197 212 LINE",
"441 527 LINE",
"562 527 LINE",
"562 0 LINE",
"420 0 LINE",
"420 305 LINE",
"183 0 LINE",
"56 0 LINE",
"56 527 LINE",
"197 527 LINE"
);
}
);
width = 617;
}
);
unicode = 0439;
},
{
color = (166, 255, 153, 255);
glyphname = uni043B;
layers = (
{
layerId = "C190A61C-9222-48AB-B064-ABA42A1AB28F";
paths = (
{
closed = 1;
nodes = (
"539 527 LINE",
"539 0 LINE",
"398 0 LINE",
"398 404 LINE",
"249 404 LINE",
"247 359 OFFCURVE",
"244 269 OFFCURVE",
"241 223 QCURVE",
"239 202 OFFCURVE",
"235 156 OFFCURVE",
"226 108 OFFCURVE",
"209 66 OFFCURVE",
"195 49 QCURVE",
"169 20 OFFCURVE",
"97 0 OFFCURVE",
"59 0 QCURVE",
"12 0 LINE",
"12 124 LINE",
"26 124 LINE",
"52 124 OFFCURVE",
"83 147 OFFCURVE",
"98 186 OFFCURVE",
"106 233 OFFCURVE",
"108 258 QCURVE",
"113 321 OFFCURVE",
"116 453 OFFCURVE",
"118 527 QCURVE"
);
}
);
width = 595;
}
);
unicode = 043B;
},
{
color = (166, 255, 153, 255);
glyphname = uni043C;
layers = (
{
layerId = "C190A61C-9222-48AB-B064-ABA42A1AB28F";
paths = (
{
closed = 1;
nodes = (
"347 100 LINE",
"197 318 LINE",
"197 0 LINE",
"56 0 LINE",
"56 527 LINE",
"202 527 LINE",
"364 291 LINE",
"524 527 LINE",
"669 527 LINE",
"669 0 LINE",
"527 0 LINE",
"527 318 LINE",
"381 100 LINE"
);
}
);
width = 724;
}
);
leftKerningGroup = _kern11;
unicode = 043C;
},
{
color = (166, 255, 153, 255);
glyphname = uni043D;
layers = (
{
layerId = "C190A61C-9222-48AB-B064-ABA42A1AB28F";
paths = (
{
closed = 1;
nodes = (
"197 324 LINE",
"402 324 LINE",
"402 527 LINE",
"543 527 LINE",
"543 0 LINE",
"402 0 LINE",
"402 202 LINE",
"197 202 LINE",
"197 0 LINE",
"56 0 LINE",
"56 527 LINE",
"197 527 LINE"
);
}
);
width = 599;
}
);
leftKerningGroup = _kern11;
unicode = 043D;
},
{
color = (166, 255, 153, 255);
glyphname = uni043F;
layers = (
{
layerId = "C190A61C-9222-48AB-B064-ABA42A1AB28F";
paths = (
{
closed = 1;
nodes = (
"540 527 LINE",
"540 0 LINE",
"399 0 LINE",
"399 405 LINE",
"197 405 LINE",
"197 0 LINE",
"56 0 LINE",
"56 527 LINE"
);
}
);
width = 596;
}
);
leftKerningGroup = _kern11;
unicode = 043F;
},
{
color = (166, 255, 153, 255);
glyphname = uni0442;
layers = (
{
layerId = "C190A61C-9222-48AB-B064-ABA42A1AB28F";
paths = (
{
closed = 1;
nodes = (
"3 405 LINE",
"3 527 LINE",
"494 527 LINE",
"494 405 LINE",
"318 405 LINE",
"318 0 LINE",
"177 0 LINE",
"177 405 LINE"
);
}
);
width = 497;
}
);
unicode = 0442;
},
{
color = (166, 255, 153, 255);
glyphname = uni0444;
layers = (
{
layerId = "C190A61C-9222-48AB-B064-ABA42A1AB28F";
paths = (
{
closed = 1;
nodes = (
"467 713 LINE",
"467 538 LINE",
"529 537 OFFCURVE",
"636 502 OFFCURVE",
"715 433 OFFCURVE",
"759 329 OFFCURVE",
"758 261 QCURVE",
"756 194 OFFCURVE",
"712 94 OFFCURVE",
"634 27 OFFCURVE",
"528 -7 OFFCURVE",
"467 -8 QCURVE",
"467 -220 LINE",
"323 -220 LINE",
"323 -8 LINE",
"261 -7 OFFCURVE",
"156 27 OFFCURVE",
"78 94 OFFCURVE",
"33 194 OFFCURVE",
"32 261 QCURVE",
"30 328 OFFCURVE",
"72 432 OFFCURVE",
"149 502 OFFCURVE",
"258 538 OFFCURVE",
"323 538 QCURVE",
"323 713 LINE"
);
},
{
closed = 1;
nodes = (
"323 415 LINE",
"254 415 OFFCURVE",
"176 338 OFFCURVE",
"176 265 QCURVE",
"176 192 OFFCURVE",
"254 115 OFFCURVE",
"323 114 QCURVE"
);
},
{
closed = 1;
nodes = (
"467 114 LINE",
"536 115 OFFCURVE",
"614 192 OFFCURVE",
"614 265 QCURVE",
"613 338 OFFCURVE",
"535 415 OFFCURVE",
"467 415 QCURVE"
);
}
);
width = 790;
}
);
leftKerningGroup = _kern9;
rightKerningGroup = _kern10;
unicode = 0444;
},
{
color = (166, 255, 153, 255);
glyphname = uni0446;
layers = (
{
layerId = "C190A61C-9222-48AB-B064-ABA42A1AB28F";
paths = (
{
closed = 1;
nodes = (
"56 0 LINE",
"56 527 LINE",
"197 527 LINE",
"197 122 LINE",
"402 122 LINE",
"402 527 LINE",
"543 527 LINE",
"543 122 LINE",
"616 122 LINE",
"616 -145 LINE",
"475 -145 LINE",
"475 0 LINE"
);
}
);
width = 630;
}
);
leftKerningGroup = _kern11;
rightKerningGroup = _kern13;
unicode = 0446;
},
{
color = (166, 255, 153, 255);
glyphname = uni0447;
layers = (
{
layerId = "C190A61C-9222-48AB-B064-ABA42A1AB28F";
paths = (
{
closed = 1;
nodes = (
"32 527 LINE",
"174 527 LINE",
"174 393 LINE",
"174 365 OFFCURVE",
"182 327 OFFCURVE",
"203 305 OFFCURVE",
"239 294 OFFCURVE",
"268 293 QCURVE",
"291 292 OFFCURVE",
"343 299 OFFCURVE",
"358 301 QCURVE",
"358 527 LINE",
"499 527 LINE",
"499 0 LINE",
"358 0 LINE",
"358 178 LINE",
"330 173 OFFCURVE",
"267 169 OFFCURVE",
"234 170 QCURVE",
"190 172 OFFCURVE",
"108 195 OFFCURVE",
"79 226 QCURVE",
"54 253 OFFCURVE",
"32 330 OFFCURVE",
"32 388 QCURVE"
);
}
);
width = 554;
}
);
leftKerningGroup = _kern11;
unicode = 0447;
},
{
color = (166, 255, 153, 255);
glyphname = uni0448;
layers = (
{
layerId = "C190A61C-9222-48AB-B064-ABA42A1AB28F";
paths = (
{
closed = 1;
nodes = (
"56 0 LINE",
"56 527 LINE",
"197 527 LINE",
"197 122 LINE",
"351 122 LINE",
"351 527 LINE",
"493 527 LINE",
"493 122 LINE",
"647 122 LINE",
"647 527 LINE",
"789 527 LINE",
"789 0 LINE"
);
}
);
width = 844;
}
);
leftKerningGroup = _kern11;
unicode = 0448;
},
{
color = (166, 255, 153, 255);
glyphname = uni0449;
layers = (
{
layerId = "C190A61C-9222-48AB-B064-ABA42A1AB28F";
paths = (
{
closed = 1;
nodes = (
"56 0 LINE",
"56 527 LINE",
"197 527 LINE",
"197 122 LINE",
"351 122 LINE",
"351 527 LINE",
"493 527 LINE",
"493 122 LINE",
"647 122 LINE",
"647 527 LINE",
"789 527 LINE",
"789 122 LINE",
"862 122 LINE",
"862 -145 LINE",
"720 -145 LINE",
"720 0 LINE"
);
}
);
width = 876;
}
);
leftKerningGroup = _kern11;
rightKerningGroup = _kern13;
unicode = 0449;
},
{
color = (166, 255, 153, 255);
glyphname = uni044A;
layers = (
{
layerId = "C190A61C-9222-48AB-B064-ABA42A1AB28F";
paths = (
{
closed = 1;
nodes = (
"2 405 LINE",
"2 527 LINE",
"269 527 LINE",
"269 372 LINE",
"383 372 LINE",
"427 372 OFFCURVE",
"499 356 OFFCURVE",
"526 336 QCURVE",
"558 315 OFFCURVE",
"594 241 OFFCURVE",
"592 188 QCURVE",
"590 140 OFFCURVE",
"558 73 OFFCURVE",
"529 49 QCURVE",
"491 17 OFFCURVE",
"399 0 OFFCURVE",
"354 0 QCURVE",
"127 0 LINE",
"127 405 LINE"
);
},
{
closed = 1;
nodes = (
"363 119 LINE",
"381 119 OFFCURVE",
"413 126 OFFCURVE",
"437 142 OFFCURVE",
"451 170 OFFCURVE",
"451 190 QCURVE",
"451 209 OFFCURVE",
"436 233 OFFCURVE",
"414 247 OFFCURVE",
"387 251 OFFCURVE",
"374 251 QCURVE",
"269 251 LINE",
"269 119 LINE"
);
}
);
width = 621;
}
);
unicode = 044A;
},
{
color = (166, 255, 153, 255);
glyphname = uni044B;
layers = (
{
layerId = "C190A61C-9222-48AB-B064-ABA42A1AB28F";
paths = (
{
closed = 1;
nodes = (
"197 527 LINE",
"197 372 LINE",
"294 372 LINE",
"337 372 OFFCURVE",
"409 357 OFFCURVE",
"437 337 QCURVE",
"469 316 OFFCURVE",
"505 241 OFFCURVE",
"503 188 QCURVE",
"501 140 OFFCURVE",
"469 73 OFFCURVE",
"440 49 QCURVE",
"402 17 OFFCURVE",
"310 0 OFFCURVE",
"265 0 QCURVE",
"56 0 LINE",
"56 527 LINE"
);
},
{
closed = 1;
nodes = (
"274 119 LINE",
"310 119 OFFCURVE",
"363 148 OFFCURVE",
"362 190 QCURVE",
"362 209 OFFCURVE",
"346 233 OFFCURVE",
"324 247 OFFCURVE",
"297 251 OFFCURVE",
"284 251 QCURVE",
"197 251 LINE",
"197 119 LINE"
);
},
{
closed = 1;
nodes = (
"706 0 LINE",
"565 0 LINE",
"565 527 LINE",
"706 527 LINE"
);
}
);
width = 762;
}
);
leftKerningGroup = _kern11;
unicode = 044B;
},
{
color = (166, 255, 153, 255);
glyphname = uni044C;
layers = (
{
layerId = "C190A61C-9222-48AB-B064-ABA42A1AB28F";
paths = (
{
closed = 1;
nodes = (
"197 527 LINE",
"197 372 LINE",
"317 372 LINE",
"361 372 OFFCURVE",
"433 357 OFFCURVE",
"461 337 QCURVE",
"492 316 OFFCURVE",
"528 241 OFFCURVE",
"526 188 QCURVE",
"524 140 OFFCURVE",
"491 73 OFFCURVE",
"463 49 QCURVE",
"424 17 OFFCURVE",
"333 0 OFFCURVE",
"287 0 QCURVE",
"56 0 LINE",
"56 527 LINE"
);
},
{
closed = 1;
nodes = (
"296 119 LINE",
"314 119 OFFCURVE",
"346 126 OFFCURVE",
"371 142 OFFCURVE",
"385 170 OFFCURVE",
"385 190 QCURVE",
"385 209 OFFCURVE",
"370 233 OFFCURVE",
"347 247 OFFCURVE",
"320 251 OFFCURVE",
"307 251 QCURVE",
"197 251 LINE",
"197 119 LINE"
);
}
);
width = 560;
}
);
leftKerningGroup = _kern11;
unicode = 044C;
},
{
color = (166, 255, 153, 255);
glyphname = uni044E;
layers = (
{
layerId = "C190A61C-9222-48AB-B064-ABA42A1AB28F";
paths = (
{
closed = 1;
nodes = (
"471 412 OFFCURVE",
"424 387 OFFCURVE",
"394 347 OFFCURVE",
"381 292 OFFCURVE",
"381 261 QCURVE",
"381 198 OFFCURVE",
"441 117 OFFCURVE",
"504 117 QCURVE",
"536 117 OFFCURVE",
"581 138 OFFCURVE",
"612 177 OFFCURVE",
"626 229 OFFCURVE",
"626 261 QCURVE",
"626 292 OFFCURVE",
"613 347 OFFCURVE",
"584 387 OFFCURVE",
"537 412 OFFCURVE",
"504 412 QCURVE"
);
},
{
closed = 1;
nodes = (
"197 325 LINE",
"251 325 LINE",
"268 425 OFFCURVE",
"394 538 OFFCURVE",
"504 538 QCURVE",
"566 538 OFFCURVE",
"664 500 OFFCURVE",
"730 428 OFFCURVE",
"766 326 OFFCURVE",
"766 264 QCURVE",
"766 134 OFFCURVE",
"632 -8 OFFCURVE",
"504 -8 QCURVE",
"391 -8 OFFCURVE",
"266 101 OFFCURVE",
"251 203 QCURVE",
"197 203 LINE",
"197 0 LINE",
"56 0 LINE",
"56 527 LINE",
"197 527 LINE"
);
}
);
width = 797;
}
);
leftKerningGroup = _kern11;
rightKerningGroup = _kern10;
unicode = 044E;
},
{
color = (166, 255, 153, 255);
glyphname = uni044F;
layers = (
{
layerId = "C190A61C-9222-48AB-B064-ABA42A1AB28F";
paths = (
{
closed = 1;
nodes = (
"519 527 LINE",
"519 0 LINE",
"378 0 LINE",
"378 166 LINE",
"309 166 LINE",
"191 0 LINE",
"22 0 LINE",
"168 186 LINE",
"109 206 OFFCURVE",
"43 295 OFFCURVE",
"45 356 QCURVE",
"47 408 OFFCURVE",
"89 476 OFFCURVE",
"120 496 QCURVE",
"149 513 OFFCURVE",
"221 527 OFFCURVE",
"264 527 QCURVE"
);
},
{
closed = 1;
nodes = (
"378 280 LINE",
"378 412 LINE",
"265 412 LINE",
"233 412 OFFCURVE",
"188 382 OFFCURVE",
"188 346 QCURVE",
"188 327 OFFCURVE",
"208 300 OFFCURVE",
"221 292 QCURVE",
"235 284 OFFCURVE",
"271 280 OFFCURVE",
"288 280 QCURVE"
);
}
);
width = 575;
}
);
leftKerningGroup = _kern11;
unicode = 044F;
},
{
color = (166, 255, 153, 255);
glyphname = u_alt;
layers = (
{
layerId = "C190A61C-9222-48AB-B064-ABA42A1AB28F";
paths = (
{
closed = 1;
nodes = (
"418 69 LINE",
"387 24 OFFCURVE",
"303 -8 OFFCURVE",
"255 -8 QCURVE",
"195 -8 OFFCURVE",
"113 31 OFFCURVE",
"90 65 QCURVE",
"67 99 OFFCURVE",
"51 183 OFFCURVE",
"51 235 QCURVE",
"51 527 LINE",
"192 527 LINE",
"192 249 LINE",
"192 221 OFFCURVE",
"201 172 OFFCURVE",
"215 152 QCURVE",
"227 136 OFFCURVE",
"269 116 OFFCURVE",
"300 117 QCURVE",
"329 116 OFFCURVE",
"380 142 OFFCURVE",
"394 167 QCURVE",
"408 190 OFFCURVE",
"413 244 OFFCURVE",
"413 275 QCURVE",
"413 527 LINE",
"554 527 LINE",
"554 0 LINE",
"427 0 LINE"
);
}
);
width = 610;
}
);
},
{
color = (166, 255, 153, 255);
glyphname = uni0410;
layers = (
{
layerId = "C190A61C-9222-48AB-B064-ABA42A1AB28F";
paths = (
{
closed = 1;
nodes = (
"251 263 LINE",
"457 263 LINE",
"355 554 LINE"
);
},
{
closed = 1;
nodes = (
"209 135 LINE",
"158 0 LINE",
"0 0 LINE",
"274 708 LINE",
"438 708 LINE",
"708 0 LINE",
"549 0 LINE",
"500 135 LINE"
);
}
);
width = 708;
}
);
leftKerningGroup = _kern30;
rightKerningGroup = _kern30;
unicode = 0410;
},
{
color = (166, 255, 153, 255);
glyphname = uni0415;
layers = (
{
layerId = "C190A61C-9222-48AB-B064-ABA42A1AB28F";
paths = (
{
closed = 1;
nodes = (
"581 708 LINE",
"581 579 LINE",
"220 579 LINE",
"220 414 LINE",
"535 414 LINE",
"535 285 LINE",
"220 285 LINE",
"220 128 LINE",
"581 128 LINE",
"581 0 LINE",
"75 0 LINE",
"75 708 LINE"
);
}
);
width = 617;
}
);
unicode = 0415;
},
{
color = (166, 255, 153, 255);
glyphname = uni041C;
layers = (
{
layerId = "C190A61C-9222-48AB-B064-ABA42A1AB28F";
paths = (
{
closed = 1;
nodes = (
"233 708 LINE",
"445 375 LINE",
"654 708 LINE",
"809 708 LINE",
"809 0 LINE",
"664 0 LINE",
"664 489 LINE",
"475 183 LINE",
"410 183 LINE",
"219 489 LINE",
"219 0 LINE",
"75 0 LINE",
"75 708 LINE"
);
}
);
width = 884;
}
);
unicode = 041C;
},
{
color = (166, 255, 153, 255);
glyphname = uni041D;
layers = (
{
layerId = "C190A61C-9222-48AB-B064-ABA42A1AB28F";
paths = (
{
closed = 1;
nodes = (
"220 414 LINE",
"519 414 LINE",
"519 708 LINE",
"664 708 LINE",
"664 0 LINE",
"519 0 LINE",
"519 285 LINE",
"220 285 LINE",
"220 0 LINE",
"75 0 LINE",
"75 708 LINE",
"220 708 LINE"
);
}
);
width = 739;
}
);
unicode = 041D;
},
{
color = (166, 255, 153, 255);
glyphname = uni0420;
layers = (
{
layerId = "C190A61C-9222-48AB-B064-ABA42A1AB28F";
paths = (
{
closed = 1;
nodes = (
"347 708 LINE",
"411 708 OFFCURVE",
"515 681 OFFCURVE",
"588 622 OFFCURVE",
"627 527 OFFCURVE",
"626 458 QCURVE",
"625 398 OFFCURVE",
"585 305 OFFCURVE",
"514 242 OFFCURVE",
"415 209 OFFCURVE",
"357 209 QCURVE",
"220 209 LINE",
"220 0 LINE",
"75 0 LINE",
"75 708 LINE"
);
},
{
closed = 1;
nodes = (
"349 337 LINE",
"376 337 OFFCURVE",
"424 351 OFFCURVE",
"460 381 OFFCURVE",
"482 425 OFFCURVE",
"483 455 QCURVE",
"485 523 OFFCURVE",
"409 579 OFFCURVE",
"348 579 QCURVE",
"220 579 LINE",
"220 337 LINE"
);
}
);
width = 659;
}
);
unicode = 0420;
},
{
color = (166, 255, 153, 255);
glyphname = uni0422;
layers = (
{
layerId = "C190A61C-9222-48AB-B064-ABA42A1AB28F";
paths = (
{
closed = 1;
nodes = (
"6 579 LINE",
"6 708 LINE",
"595 708 LINE",
"595 579 LINE",
"373 579 LINE",
"373 0 LINE",
"228 0 LINE",
"228 579 LINE"
);
}
);
width = 601;
}
);
leftKerningGroup = _kern28;
rightKerningGroup = _kern28;
unicode = 0422;
},
{
color = (166, 255, 153, 255);
glyphname = uni0425;
layers = (
{
layerId = "C190A61C-9222-48AB-B064-ABA42A1AB28F";
paths = (
{
closed = 1;
nodes = (
"486 708 LINE",
"654 708 LINE",
"420 354 LINE",
"660 0 LINE",
"491 0 LINE",
"331 243 LINE",
"165 0 LINE",
"2 0 LINE",
"245 355 LINE",
"10 708 LINE",
"179 708 LINE",
"334 463 LINE"
);
}
);
width = 662;
}
);
unicode = 0425;
},
{
color = (166, 255, 153, 255);
glyphname = T;
layers = (
{
layerId = "C190A61C-9222-48AB-B064-ABA42A1AB28F";
paths = (
{
closed = 1;
nodes = (
"6 579 LINE",
"6 708 LINE",
"595 708 LINE",
"595 579 LINE",
"373 579 LINE",
"373 0 LINE",
"228 0 LINE",
"228 579 LINE"
);
}
);
width = 601;
}
);
leftKerningGroup = _kern28;
rightKerningGroup = _kern28;
unicode = 0054;
},
{
color = (166, 255, 153, 255);
glyphname = uni0412;
layers = (
{
layerId = "C190A61C-9222-48AB-B064-ABA42A1AB28F";
paths = (
{
closed = 1;
nodes = (
"74 0 LINE",
"74 708 LINE",
"388 708 LINE",
"437 708 OFFCURVE",
"520 688 OFFCURVE",
"551 662 QCURVE",
"576 642 OFFCURVE",
"611 577 OFFCURVE",
"611 531 QCURVE",
"612 482 OFFCURVE",
"575 406 OFFCURVE",
"531 380 QCURVE",
"562 371 OFFCURVE",
"606 335 OFFCURVE",
"633 287 OFFCURVE",
"645 231 OFFCURVE",
"644 201 QCURVE",
"642 153 OFFCURVE",
"595 72 OFFCURVE",
"557 47 QCURVE",
"512 16 OFFCURVE",
"404 0 OFFCURVE",
"351 0 QCURVE"
);
},
{
closed = 1;
nodes = (
"347 421 LINE",
"369 421 OFFCURVE",
"413 426 OFFCURVE",
"432 437 QCURVE",
"448 447 OFFCURVE",
"470 481 OFFCURVE",
"471 504 QCURVE",
"472 528 OFFCURVE",
"454 558 OFFCURVE",
"441 566 QCURVE",
"425 576 OFFCURVE",
"383 579 OFFCURVE",
"361 579 QCURVE",
"219 579 LINE",
"219 421 LINE"
);
},
{
closed = 1;
nodes = (
"219 128 LINE",
"351 128 LINE",
"380 128 OFFCURVE",
"445 135 OFFCURVE",
"468 152 QCURVE",
"482 163 OFFCURVE",
"500 196 OFFCURVE",
"500 221 QCURVE",
"500 244 OFFCURVE",
"480 276 OFFCURVE",
"465 284 QCURVE",
"448 295 OFFCURVE",
"405 299 OFFCURVE",
"382 299 QCURVE",
"219 298 LINE"
);
}
);
width = 682;
}
);
unicode = 0412;
},
{
color = (166, 255, 153, 255);
glyphname = uni041F;
layers = (
{
layerId = "C190A61C-9222-48AB-B064-ABA42A1AB28F";
paths = (
{
closed = 1;
nodes = (
"666 708 LINE",
"666 0 LINE",
"521 0 LINE",
"521 579 LINE",
"220 579 LINE",
"220 0 LINE",
"75 0 LINE",
"75 708 LINE"
);
}
);
width = 741;
}
);
unicode = 041F;
},
{
color = (166, 255, 153, 255);
glyphname = uni0413;
layers = (
{
layerId = "C190A61C-9222-48AB-B064-ABA42A1AB28F";
paths = (
{
closed = 1;
nodes = (
"75 0 LINE",
"75 708 LINE",
"565 708 LINE",
"565 579 LINE",
"220 579 LINE",
"220 0 LINE"
);
}
);
width = 582;
}
);
leftKerningGroup = _kern23;
rightKerningGroup = _kern23;
unicode = 0413;
},
{
color = (166, 255, 153, 255);
glyphname = uni041B;
layers = (
{
layerId = "C190A61C-9222-48AB-B064-ABA42A1AB28F";
paths = (
{
closed = 1;
nodes = (
"271 579 LINE",
"269 513 OFFCURVE",
"269 378 OFFCURVE",
"266 312 QCURVE",
"265 287 OFFCURVE",
"263 231 OFFCURVE",
"256 174 OFFCURVE",
"241 118 OFFCURVE",
"228 93 QCURVE",
"213 66 OFFCURVE",
"170 30 OFFCURVE",
"119 8 OFFCURVE",
"61 -1 OFFCURVE",
"31 -1 QCURVE",
"10 -1 LINE",
"10 127 LINE",
"23 127 LINE",
"42 127 OFFCURVE",
"72 141 OFFCURVE",
"94 163 OFFCURVE",
"108 190 OFFCURVE",
"111 203 QCURVE",
"117 226 OFFCURVE",
"123 285 OFFCURVE",
"125 348 OFFCURVE",
"127 408 OFFCURVE",
"128 432 QCURVE",
"130 498 OFFCURVE",
"129 631 OFFCURVE",
"131 708 QCURVE",
"632 708 LINE",
"632 0 LINE",
"487 0 LINE",
"487 579 LINE"
);
}
);
width = 707;
}
);
unicode = 041B;
},
{
color = (166, 255, 153, 255);
glyphname = uni0414;
layers = (
{
layerId = "C190A61C-9222-48AB-B064-ABA42A1AB28F";
paths = (
{
closed = 1;
nodes = (
"501 128 LINE",
"501 579 LINE",
"274 579 LINE",
"268 352 LINE",
"268 329 OFFCURVE",
"266 269 OFFCURVE",
"260 207 OFFCURVE",
"250 149 OFFCURVE",
"241 128 QCURVE"
);
},
{
closed = 1;
nodes = (
"732 -179 LINE",
"589 -179 LINE",
"589 0 LINE",
"153 0 LINE",
"153 -179 LINE",
"10 -179 LINE",
"10 128 LINE",
"36 128 LINE",
"54 128 OFFCURVE",
"80 134 OFFCURVE",
"91 143 QCURVE",
"98 150 OFFCURVE",
"109 174 OFFCURVE",
"115 200 OFFCURVE",
"119 225 OFFCURVE",
"120 236 QCURVE",
"126 302 OFFCURVE",
"131 440 OFFCURVE",
"133 507 QCURVE",
"136 606 OFFCURVE",
"136 708 QCURVE",
"646 708 LINE",
"646 128 LINE",
"732 128 LINE"
);
}
);
width = 742;
}
);
rightKerningGroup = _kern12;
unicode = 0414;
},
{
color = (166, 255, 153, 255);
glyphname = uni0411;
layers = (
{
layerId = "C190A61C-9222-48AB-B064-ABA42A1AB28F";
paths = (
{
closed = 1;
nodes = (
"75 0 LINE",
"75 708 LINE",
"588 708 LINE",
"588 579 LINE",
"220 579 LINE",
"220 438 LINE",
"382 438 LINE",
"442 438 OFFCURVE",
"535 417 OFFCURVE",
"568 391 QCURVE",
"606 360 OFFCURVE",
"637 275 OFFCURVE",
"637 227 QCURVE",
"636 176 OFFCURVE",
"602 92 OFFCURVE",
"565 60 QCURVE",
"542 41 OFFCURVE",
"490 17 OFFCURVE",
"433 4 OFFCURVE",
"374 0 OFFCURVE",
"346 0 QCURVE"
);
},
{
closed = 1;
nodes = (
"220 128 LINE",
"342 128 LINE",
"370 128 OFFCURVE",
"424 133 OFFCURVE",
"468 153 OFFCURVE",
"494 192 OFFCURVE",
"494 226 QCURVE",
"494 256 OFFCURVE",
"470 290 OFFCURVE",
"432 307 OFFCURVE",
"384 311 OFFCURVE",
"359 311 QCURVE",
"220 310 LINE"
);
}
);
width = 680;
}
);
unicode = 0411;
},
{
color = (166, 255, 153, 255);
glyphname = uni0416;
layers = (
{
layerId = "C190A61C-9222-48AB-B064-ABA42A1AB28F";
paths = (
{
closed = 1;
nodes = (
"549 288 LINE",
"549 0 LINE",
"404 0 LINE",
"404 288 LINE",
"321 288 LINE",
"167 0 LINE",
"2 0 LINE",
"208 369 LINE",
"5 708 LINE",
"171 708 LINE",
"332 416 LINE",
"404 416 LINE",
"404 708 LINE",
"549 708 LINE",
"549 416 LINE",
"620 416 LINE",
"782 708 LINE",
"947 708 LINE",
"745 369 LINE",
"950 0 LINE",
"785 0 LINE",
"631 288 LINE"
);
}
);
width = 952;
}
);
unicode = 0416;
},
{
color = (166, 255, 153, 255);
glyphname = uni0417;
layers = (
{
layerId = "C190A61C-9222-48AB-B064-ABA42A1AB28F";
paths = (
{
closed = 1;
nodes = (
"171 216 LINE",
"177 189 OFFCURVE",
"208 154 OFFCURVE",
"251 134 OFFCURVE",
"301 126 OFFCURVE",
"324 125 QCURVE",
"349 124 OFFCURVE",
"405 130 OFFCURVE",
"452 150 OFFCURVE",
"482 189 OFFCURVE",
"482 221 QCURVE",
"482 249 OFFCURVE",
"455 281 OFFCURVE",
"413 297 OFFCURVE",
"364 301 OFFCURVE",
"343 301 QCURVE",
"250 301 LINE",
"250 420 LINE",
"313 420 LINE",
"336 420 OFFCURVE",
"386 426 OFFCURVE",
"428 444 OFFCURVE",
"455 478 OFFCURVE",
"456 506 QCURVE",
"456 532 OFFCURVE",
"431 564 OFFCURVE",
"391 582 OFFCURVE",
"344 588 OFFCURVE",
"323 588 QCURVE",
"297 588 OFFCURVE",
"249 578 OFFCURVE",
"211 558 OFFCURVE",
"187 526 OFFCURVE",
"185 504 QCURVE",
"46 504 LINE",
"48 565 OFFCURVE",
"97 643 OFFCURVE",
"132 667 QCURVE",
"170 693 OFFCURVE",
"281 717 OFFCURVE",
"341 716 QCURVE",
"387 716 OFFCURVE",
"479 698 OFFCURVE",
"553 656 OFFCURVE",
"598 584 OFFCURVE",
"598 530 QCURVE",
"598 487 OFFCURVE",
"555 404 OFFCURVE",
"513 381 QCURVE",
"574 361 OFFCURVE",
"627 267 OFFCURVE",
"625 205 QCURVE",
"623 143 OFFCURVE",
"568 60 OFFCURVE",
"482 11 OFFCURVE",
"375 -8 OFFCURVE",
"321 -6 QCURVE",
"264 -4 OFFCURVE",
"164 20 OFFCURVE",
"86 71 OFFCURVE",
"37 154 OFFCURVE",
"32 216 QCURVE"
);
}
);
width = 663;
}
);
leftKerningGroup = _kern7;
rightKerningGroup = _kern8;
unicode = 0417;
},
{
color = (166, 255, 153, 255);
glyphname = uni0418;
layers = (
{
layerId = "C190A61C-9222-48AB-B064-ABA42A1AB28F";
paths = (
{
closed = 1;
nodes = (
"220 251 LINE",
"566 708 LINE",
"683 708 LINE",
"683 0 LINE",
"538 0 LINE",
"538 453 LINE",
"192 0 LINE",
"75 0 LINE",
"75 708 LINE",
"220 708 LINE"
);
}
);
width = 758;
}
);
unicode = 0418;
},
{
color = (166, 255, 153, 255);
glyphname = uni0419;
layers = (
{
layerId = "C190A61C-9222-48AB-B064-ABA42A1AB28F";
paths = (
{
closed = 1;
nodes = (
"220 251 LINE",
"566 708 LINE",
"683 708 LINE",
"683 0 LINE",
"538 0 LINE",
"538 453 LINE",
"192 0 LINE",
"75 0 LINE",
"75 708 LINE",
"220 708 LINE"
);
},
{
closed = 1;
nodes = (
"307 755 OFFCURVE",
"201 835 OFFCURVE",
"192 916 QCURVE",
"314 916 LINE",
"328 858 OFFCURVE",
"389 858 QCURVE",
"418 858 OFFCURVE",
"457 888 OFFCURVE",
"462 916 QCURVE",
"586 916 LINE",
"575 835 OFFCURVE",
"468 755 OFFCURVE",
"388 755 QCURVE"
);
}
);
width = 758;
}
);
unicode = 0419;
},
{
color = (166, 255, 153, 255);
glyphname = uni041A;
layers = (
{
layerId = "C190A61C-9222-48AB-B064-ABA42A1AB28F";
paths = (
{
closed = 1;
nodes = (
"220 288 LINE",
"220 0 LINE",
"75 0 LINE",
"75 708 LINE",
"220 708 LINE",
"220 416 LINE",
"295 416 LINE",
"501 708 LINE",
"669 708 LINE",
"419 372 LINE",
"672 0 LINE",
"503 0 LINE",
"309 288 LINE"
);
}
);
width = 674;
}
);
unicode = 041A;
},
{
color = (166, 255, 153, 255);
glyphname = uni0423;
layers = (
{
layerId = "C190A61C-9222-48AB-B064-ABA42A1AB28F";
paths = (
{
closed = 1;
nodes = (
"477 708 LINE",
"640 708 LINE",
"455 274 LINE",
"444 248 OFFCURVE",
"419 190 OFFCURVE",
"389 132 OFFCURVE",
"354 79 OFFCURVE",
"333 59 QCURVE",
"298 27 OFFCURVE",
"213 -2 OFFCURVE",
"155 0 QCURVE",
"108 0 LINE",
"108 128 LINE",
"131 128 LINE",
"148 128 OFFCURVE",
"184 131 OFFCURVE",
"220 147 OFFCURVE",
"255 179 OFFCURVE",
"270 209 QCURVE",
"7 708 LINE",
"175 708 LINE",
"344 362 LINE"
);
}
);
width = 627;
}
);
unicode = 0423;
},
{
color = (166, 255, 153, 255);
glyphname = uni0424;
layers = (
{
layerId = "C190A61C-9222-48AB-B064-ABA42A1AB28F";
paths = (
{
closed = 1;
nodes = (
"359 637 LINE",
"359 740 LINE",
"504 740 LINE",
"504 637 LINE",
"540 637 LINE",
"604 637 OFFCURVE",
"711 602 OFFCURVE",
"786 534 OFFCURVE",
"827 433 OFFCURVE",
"827 368 QCURVE",
"826 234 OFFCURVE",
"678 95 OFFCURVE",
"545 94 QCURVE",
"504 94 LINE",
"504 -17 LINE",
"359 -17 LINE",
"359 94 LINE",
"323 94 LINE",
"258 94 OFFCURVE",
"152 129 OFFCURVE",
"77 197 OFFCURVE",
"36 298 OFFCURVE",
"36 363 QCURVE",
"37 497 OFFCURVE",
"185 636 OFFCURVE",
"318 637 QCURVE"
);
},
{
closed = 1;
nodes = (
"504 515 LINE",
"504 217 LINE",
"546 217 LINE",
"619 217 OFFCURVE",
"687 301 OFFCURVE",
"685 371 QCURVE",
"683 436 OFFCURVE",
"608 515 OFFCURVE",
"542 515 QCURVE"
);
},
{
closed = 1;
nodes = (
"359 217 LINE",
"359 515 LINE",
"317 515 LINE",
"244 515 OFFCURVE",
"176 430 OFFCURVE",
"178 360 QCURVE",
"180 295 OFFCURVE",
"255 217 OFFCURVE",
"321 217 QCURVE"
);
}
);
width = 863;
}
);
leftKerningGroup = _kern7;
rightKerningGroup = _kern8;
unicode = 0424;
},
{
color = (166, 255, 153, 255);
glyphname = uni0426;
layers = (
{
layerId = "C190A61C-9222-48AB-B064-ABA42A1AB28F";
paths = (
{
closed = 1;
nodes = (
"508 128 LINE",
"508 708 LINE",
"653 708 LINE",
"653 128 LINE",
"739 128 LINE",
"739 -179 LINE",
"596 -179 LINE",
"596 0 LINE",
"75 0 LINE",
"75 708 LINE",
"220 708 LINE",
"220 128 LINE"
);
}
);
width = 749;
}
);
rightKerningGroup = _kern12;
unicode = 0426;
},
{
color = (166, 255, 153, 255);
glyphname = uni0427;
layers = (
{
layerId = "C190A61C-9222-48AB-B064-ABA42A1AB28F";
paths = (
{
closed = 1;
nodes = (
"52 708 LINE",
"197 708 LINE",
"197 486 LINE",
"197 448 OFFCURVE",
"213 399 OFFCURVE",
"248 371 OFFCURVE",
"301 360 OFFCURVE",
"338 360 QCURVE",
"373 359 OFFCURVE",
"436 366 OFFCURVE",
"471 372 QCURVE",
"471 708 LINE",
"616 708 LINE",
"616 0 LINE",
"471 0 LINE",
"471 241 LINE",
"436 235 OFFCURVE",
"354 226 OFFCURVE",
"310 228 QCURVE",
"251 230 OFFCURVE",
"156 254 OFFCURVE",
"123 281 QCURVE",
"88 310 OFFCURVE",
"52 400 OFFCURVE",
"52 466 QCURVE"
);
}
);
width = 691;
}
);
unicode = 0427;
},
{
color = (166, 255, 153, 255);
glyphname = uni0428;
layers = (
{
layerId = "C190A61C-9222-48AB-B064-ABA42A1AB28F";
paths = (
{
closed = 1;
nodes = (
"75 0 LINE",
"75 708 LINE",
"220 708 LINE",
"220 128 LINE",
"433 128 LINE",
"433 708 LINE",
"578 708 LINE",
"578 128 LINE",
"791 128 LINE",
"791 708 LINE",
"936 708 LINE",
"936 0 LINE"
);
}
);
width = 1011;
}
);
unicode = 0428;
},
{
color = (166, 255, 153, 255);
glyphname = uni0429;
layers = (
{
layerId = "C190A61C-9222-48AB-B064-ABA42A1AB28F";
paths = (
{
closed = 1;
nodes = (
"75 0 LINE",
"75 708 LINE",
"220 708 LINE",
"220 128 LINE",
"433 128 LINE",
"433 708 LINE",
"578 708 LINE",
"578 128 LINE",
"791 128 LINE",
"791 708 LINE",
"936 708 LINE",
"936 128 LINE",
"1021 128 LINE",
"1021 -179 LINE",
"878 -179 LINE",
"878 0 LINE"
);
}
);
width = 1031;
}
);
rightKerningGroup = _kern12;
unicode = 0429;
},
{
color = (166, 255, 153, 255);
glyphname = uni042A;
layers = (
{
layerId = "C190A61C-9222-48AB-B064-ABA42A1AB28F";
paths = (
{
closed = 1;
nodes = (
"165 0 LINE",
"165 579 LINE",
"5 579 LINE",
"5 708 LINE",
"310 708 LINE",
"310 453 LINE",
"476 453 LINE",
"546 453 OFFCURVE",
"652 419 OFFCURVE",
"684 381 QCURVE",
"705 354 OFFCURVE",
"730 282 OFFCURVE",
"730 232 QCURVE",
"729 161 OFFCURVE",
"677 67 OFFCURVE",
"632 41 QCURVE",
"594 18 OFFCURVE",
"496 0 OFFCURVE",
"440 0 QCURVE"
);
},
{
closed = 1;
nodes = (
"310 128 LINE",
"435 128 LINE",
"463 128 OFFCURVE",
"519 135 OFFCURVE",
"562 158 OFFCURVE",
"589 199 OFFCURVE",
"589 233 QCURVE",
"589 263 OFFCURVE",
"566 299 OFFCURVE",
"528 319 OFFCURVE",
"479 325 OFFCURVE",
"454 325 QCURVE",
"310 324 LINE"
);
}
);
width = 768;
}
);
unicode = 042A;
},
{
color = (166, 255, 153, 255);
glyphname = uni042B;
layers = (
{
layerId = "C190A61C-9222-48AB-B064-ABA42A1AB28F";
paths = (
{
closed = 1;
nodes = (
"75 0 LINE",
"75 708 LINE",
"220 708 LINE",
"220 453 LINE",
"356 453 LINE",
"426 453 OFFCURVE",
"532 419 OFFCURVE",
"564 381 QCURVE",
"586 354 OFFCURVE",
"611 282 OFFCURVE",
"611 232 QCURVE",
"610 161 OFFCURVE",
"558 67 OFFCURVE",
"513 41 QCURVE",
"475 18 OFFCURVE",
"377 0 OFFCURVE",
"320 0 QCURVE"
);
},
{
closed = 1;
nodes = (
"220 128 LINE",
"316 128 LINE",
"344 128 OFFCURVE",
"399 135 OFFCURVE",
"442 158 OFFCURVE",
"469 199 OFFCURVE",
"469 233 QCURVE",
"469 263 OFFCURVE",
"446 300 OFFCURVE",
"409 319 OFFCURVE",
"360 325 OFFCURVE",
"334 325 QCURVE",
"220 324 LINE"
);
},
{
closed = 1;
nodes = (
"700 708 LINE",
"845 708 LINE",
"845 0 LINE",
"700 0 LINE"
);
}
);
width = 920;
}
);
unicode = 042B;
},
{
color = (166, 255, 153, 255);
glyphname = uni042C;
layers = (
{
layerId = "C190A61C-9222-48AB-B064-ABA42A1AB28F";
paths = (
{
closed = 1;
nodes = (
"74 0 LINE",
"74 708 LINE",
"219 708 LINE",
"219 453 LINE",
"384 453 LINE",
"454 453 OFFCURVE",
"558 420 OFFCURVE",
"590 382 QCURVE",
"612 355 OFFCURVE",
"638 282 OFFCURVE",
"638 232 QCURVE",
"637 161 OFFCURVE",
"585 67 OFFCURVE",
"540 41 QCURVE",
"502 18 OFFCURVE",
"403 0 OFFCURVE",
"348 0 QCURVE"
);
},
{
closed = 1;
nodes = (
"219 128 LINE",
"344 128 LINE",
"372 128 OFFCURVE",
"426 135 OFFCURVE",
"470 158 OFFCURVE",
"496 199 OFFCURVE",
"496 233 QCURVE",
"496 263 OFFCURVE",
"473 299 OFFCURVE",
"435 319 OFFCURVE",
"387 325 OFFCURVE",
"361 325 QCURVE",
"219 324 LINE"
);
}
);
width = 676;
}
);
unicode = 042C;
},
{
color = (166, 255, 153, 255);
glyphname = uni042D;
layers = (
{
layerId = "C190A61C-9222-48AB-B064-ABA42A1AB28F";
paths = (
{
closed = 1;
nodes = (
"525 416 LINE",
"522 452 OFFCURVE",
"498 514 OFFCURVE",
"454 561 OFFCURVE",
"390 588 OFFCURVE",
"348 588 QCURVE",
"316 588 OFFCURVE",
"261 572 OFFCURVE",
"217 544 OFFCURVE",
"187 502 OFFCURVE",
"181 477 QCURVE",
"40 477 LINE",
"46 535 OFFCURVE",
"101 626 OFFCURVE",
"186 687 OFFCURVE",
"295 718 OFFCURVE",
"355 717 QCURVE",
"439 715 OFFCURVE",
"560 659 OFFCURVE",
"640 562 OFFCURVE",
"678 431 OFFCURVE",
"678 355 QCURVE",
"678 277 OFFCURVE",
"636 146 OFFCURVE",
"553 50 OFFCURVE",
"428 -5 OFFCURVE",
"345 -6 QCURVE",
"289 -7 OFFCURVE",
"180 20 OFFCURVE",
"134 54 QCURVE",
"96 82 OFFCURVE",
"42 171 OFFCURVE",
"36 232 QCURVE",
"176 232 LINE",
"185 197 OFFCURVE",
"225 155 OFFCURVE",
"274 131 OFFCURVE",
"326 124 OFFCURVE",
"348 124 QCURVE",
"387 124 OFFCURVE",
"451 149 OFFCURVE",
"497 193 OFFCURVE",
"523 255 OFFCURVE",
"525 292 QCURVE",
"248 292 LINE",
"248 416 LINE"
);
}
);
width = 714;
}
);
leftKerningGroup = _kern7;
rightKerningGroup = _kern8;
unicode = 042D;
},
{
color = (166, 255, 153, 255);
glyphname = uni042E;
layers = (
{
layerId = "C190A61C-9222-48AB-B064-ABA42A1AB28F";
paths = (
{
closed = 1;
nodes = (
"451 311 OFFCURVE",
"472 227 OFFCURVE",
"518 162 OFFCURVE",
"591 123 OFFCURVE",
"642 123 QCURVE",
"692 123 OFFCURVE",
"765 162 OFFCURVE",
"813 226 OFFCURVE",
"836 310 OFFCURVE",
"836 355 QCURVE",
"836 399 OFFCURVE",
"814 483 OFFCURVE",
"766 548 OFFCURVE",
"693 587 OFFCURVE",
"642 587 QCURVE",
"591 587 OFFCURVE",
"519 548 OFFCURVE",
"473 484 OFFCURVE",
"451 401 OFFCURVE",
"451 356 QCURVE"
);
},
{
closed = 1;
nodes = (
"220 414 LINE",
"307 414 LINE",
"315 480 OFFCURVE",
"366 591 OFFCURVE",
"451 671 OFFCURVE",
"568 716 OFFCURVE",
"643 716 QCURVE",
"726 716 OFFCURVE",
"853 663 OFFCURVE",
"940 568 OFFCURVE",
"985 436 OFFCURVE",
"985 357 QCURVE",
"985 279 OFFCURVE",
"939 145 OFFCURVE",
"851 48 OFFCURVE",
"723 -7 OFFCURVE",
"640 -6 QCURVE",
"567 -6 OFFCURVE",
"452 37 OFFCURVE",
"368 114 OFFCURVE",
"317 221 OFFCURVE",
"308 285 QCURVE",
"220 285 LINE",
"220 0 LINE",
"75 0 LINE",
"75 708 LINE",
"220 708 LINE"
);
}
);
width = 1021;
}
);
rightKerningGroup = _kern8;
unicode = 042E;
},
{
color = (166, 255, 153, 255);
glyphname = uni042F;
layers = (
{
layerId = "C190A61C-9222-48AB-B064-ABA42A1AB28F";
paths = (
{
closed = 1;
nodes = (
"618 708 LINE",
"618 0 LINE",
"473 0 LINE",
"473 239 LINE",
"378 239 LINE",
"211 0 LINE",
"43 0 LINE",
"230 255 LINE",
"145 273 OFFCURVE",
"58 386 OFFCURVE",
"59 471 QCURVE",
"60 540 OFFCURVE",
"106 632 OFFCURVE",
"145 661 QCURVE",
"183 688 OFFCURVE",
"284 708 OFFCURVE",
"344 708 QCURVE"
);
},
{
closed = 1;
nodes = (
"473 365 LINE",
"473 579 LINE",
"341 579 LINE",
"314 579 OFFCURVE",
"267 574 OFFCURVE",
"250 564 QCURVE",
"227 551 OFFCURVE",
"202 504 OFFCURVE",
"202 468 QCURVE",
"202 440 OFFCURVE",
"228 398 OFFCURVE",
"247 387 QCURVE",
"269 373 OFFCURVE",
"327 365 OFFCURVE",
"356 365 QCURVE"
);
}
);
width = 693;
}
);
unicode = 042F;
},
{
color = (166, 255, 153, 255);
glyphname = uni0440;
layers = (
{
layerId = "C190A61C-9222-48AB-B064-ABA42A1AB28F";
paths = (
{
closed = 1;
nodes = (
"198 456 LINE",
"229 494 OFFCURVE",
"322 537 OFFCURVE",
"369 538 QCURVE",
"425 539 OFFCURVE",
"521 498 OFFCURVE",
"553 450 QCURVE",
"579 415 OFFCURVE",
"603 321 OFFCURVE",
"603 269 QCURVE",
"603 204 OFFCURVE",
"572 99 OFFCURVE",
"535 61 QCURVE",
"504 27 OFFCURVE",
"414 -8 OFFCURVE",
"369 -8 QCURVE",
"347 -8 OFFCURVE",
"303 -3 OFFCURVE",
"259 11 OFFCURVE",
"216 37 OFFCURVE",
"197 59 QCURVE",
"197 -220 LINE",
"56 -220 LINE",
"56 527 LINE",
"190 527 LINE"
);
},
{
closed = 1;
nodes = (
"299 412 OFFCURVE",
"250 389 OFFCURVE",
"216 349 OFFCURVE",
"197 297 OFFCURVE",
"197 267 QCURVE",
"196 200 OFFCURVE",
"269 119 OFFCURVE",
"332 117 QCURVE",
"366 117 OFFCURVE",
"414 139 OFFCURVE",
"445 179 OFFCURVE",
"462 233 OFFCURVE",
"462 265 QCURVE",
"462 296 OFFCURVE",
"445 350 OFFCURVE",
"412 390 OFFCURVE",
"364 412 OFFCURVE",
"330 412 QCURVE"
);
}
);
width = 634;
}
);
leftKerningGroup = _kern11;
rightKerningGroup = _kern10;
unicode = 0440;
},
{
color = (166, 255, 153, 255);
glyphname = O;
layers = (
{
layerId = "C190A61C-9222-48AB-B064-ABA42A1AB28F";
paths = (
{
closed = 1;
nodes = (
"185 311 OFFCURVE",
"210 228 OFFCURVE",
"259 164 OFFCURVE",
"335 125 OFFCURVE",
"386 124 QCURVE",
"435 123 OFFCURVE",
"511 160 OFFCURVE",
"561 225 OFFCURVE",
"587 310 OFFCURVE",
"587 356 QCURVE",
"587 401 OFFCURVE",
"562 485 OFFCURVE",
"513 550 OFFCURVE",
"437 588 OFFCURVE",
"386 588 QCURVE",
"336 588 OFFCURVE",
"260 550 OFFCURVE",
"210 486 OFFCURVE",
"185 403 OFFCURVE",
"185 357 QCURVE"
);
},
{
closed = 1;
nodes = (
"468 717 OFFCURVE",
"598 665 OFFCURVE",
"688 570 OFFCURVE",
"736 438 OFFCURVE",
"736 358 QCURVE",
"736 280 OFFCURVE",
"688 146 OFFCURVE",
"598 48 OFFCURVE",
"467 -7 OFFCURVE",
"384 -6 QCURVE",
"301 -6 OFFCURVE",
"172 49 OFFCURVE",
"83 145 OFFCURVE",
"36 277 OFFCURVE",
"36 355 QCURVE",
"36 435 OFFCURVE",
"85 568 OFFCURVE",
"176 664 OFFCURVE",
"306 717 OFFCURVE",
"387 717 QCURVE"
);
}
);
width = 772;
}
);
leftKerningGroup = _kern3;
rightKerningGroup = _kern4;
unicode = 004F;
},
{
color = (166, 255, 153, 255);
glyphname = be_alt;
layers = (
{
layerId = "C190A61C-9222-48AB-B064-ABA42A1AB28F";
paths = (
{
closed = 1;
nodes = (
"464 770 OFFCURVE",
"497 795 OFFCURVE",
"505 806 QCURVE",
"584 712 LINE",
"576 688 OFFCURVE",
"541 654 OFFCURVE",
"518 644 QCURVE",
"466 623 OFFCURVE",
"346 596 OFFCURVE",
"292 577 QCURVE",
"237 562 OFFCURVE",
"210 526 QCURVE",
"195 508 OFFCURVE",
"176 460 OFFCURVE",
"174 429 QCURVE",
"209 467 OFFCURVE",
"300 500 OFFCURVE",
"351 501 QCURVE",
"403 502 OFFCURVE",
"486 470 OFFCURVE",
"517 441 QCURVE",
"550 409 OFFCURVE",
"587 319 OFFCURVE",
"587 265 QCURVE",
"587 135 OFFCURVE",
"509 63 QCURVE",
"473 28 OFFCURVE",
"373 -9 OFFCURVE",
"312 -8 QCURVE",
"251 -7 OFFCURVE",
"157 31 OFFCURVE",
"124 64 QCURVE",
"96 91 OFFCURVE",
"61 156 OFFCURVE",
"40 227 OFFCURVE",
"32 302 OFFCURVE",
"32 338 QCURVE",
"32 397 OFFCURVE",
"48 504 OFFCURVE",
"72 551 QCURVE",
"92 591 OFFCURVE",
"155 655 OFFCURVE",
"201 679 QCURVE",
"258 707 OFFCURVE",
"379 741 OFFCURVE",
"437 762 QCURVE"
);
},
{
closed = 1;
nodes = (
"346 117 OFFCURVE",
"395 138 OFFCURVE",
"428 175 OFFCURVE",
"446 220 OFFCURVE",
"446 244 QCURVE",
"447 302 OFFCURVE",
"378 371 OFFCURVE",
"321 372 QCURVE",
"265 373 OFFCURVE",
"187 311 OFFCURVE",
"184 250 QCURVE",
"183 225 OFFCURVE",
"198 178 OFFCURVE",
"231 140 OFFCURVE",
"282 117 OFFCURVE",
"315 117 QCURVE"
);
}
);
width = 618;
}
);
},
{
color = (166, 255, 153, 255);
glyphname = a;
layers = (
{
layerId = "C190A61C-9222-48AB-B064-ABA42A1AB28F";
paths = (
{
closed = 1;
nodes = (
"357 233 OFFCURVE",
"305 233 OFFCURVE",
"279 233 QCURVE",
"264 233 OFFCURVE",
"226 227 OFFCURVE",
"198 211 OFFCURVE",
"179 185 OFFCURVE",
"179 166 QCURVE",
"179 150 OFFCURVE",
"192 126 OFFCURVE",
"213 110 OFFCURVE",
"243 101 OFFCURVE",
"258 101 QCURVE",
"287 100 OFFCURVE",
"338 122 OFFCURVE",
"357 142 QCURVE",
"369 158 OFFCURVE",
"382 199 OFFCURVE",
"382 233 QCURVE"
);
},
{
closed = 1;
nodes = (
"387 65 LINE",
"357 25 OFFCURVE",
"271 -9 OFFCURVE",
"214 -8 QCURVE",
"141 -6 OFFCURVE",
"92 33 QCURVE",
"66 55 OFFCURVE",
"37 116 OFFCURVE",
"37 158 QCURVE",
"38 201 OFFCURVE",
"75 268 OFFCURVE",
"113 290 QCURVE",
"145 307 OFFCURVE",
"226 321 OFFCURVE",
"274 321 QCURVE",
"382 321 LINE",
"385 370 OFFCURVE",
"334 419 OFFCURVE",
"288 420 QCURVE",
"273 420 OFFCURVE",
"241 416 OFFCURVE",
"214 404 OFFCURVE",
"195 383 OFFCURVE",
"192 368 QCURVE",
"47 368 LINE",
"52 416 OFFCURVE",
"95 481 OFFCURVE",
"161 521 OFFCURVE",
"242 538 OFFCURVE",
"285 538 QCURVE",
"309 538 OFFCURVE",
"359 533 OFFCURVE",
"407 518 OFFCURVE",
"450 493 OFFCURVE",
"469 473 QCURVE",
"503 434 OFFCURVE",
"520 333 OFFCURVE",
"519 285 QCURVE",
"519 0 LINE",
"390 0 LINE"
);
}
);
width = 573;
}
);
leftKerningGroup = _kern27;
rightKerningGroup = _kern27;
unicode = 0061;
},
{
color = (166, 255, 153, 255);
glyphname = c;
layers = (
{
layerId = "C190A61C-9222-48AB-B064-ABA42A1AB28F";
paths = (
{
closed = 1;
nodes = (
"337 117 OFFCURVE",
"384 155 OFFCURVE",
"389 179 QCURVE",
"537 179 LINE",
"530 128 OFFCURVE",
"486 58 OFFCURVE",
"421 12 OFFCURVE",
"339 -8 OFFCURVE",
"295 -8 QCURVE",
"229 -8 OFFCURVE",
"132 29 OFFCURVE",
"68 100 OFFCURVE",
"35 201 OFFCURVE",
"35 264 QCURVE",
"35 325 OFFCURVE",
"71 427 OFFCURVE",
"138 499 OFFCURVE",
"236 538 OFFCURVE",
"299 538 QCURVE",
"345 538 OFFCURVE",
"426 516 OFFCURVE",
"489 470 OFFCURVE",
"530 399 OFFCURVE",
"537 350 QCURVE",
"389 350 LINE",
"384 374 OFFCURVE",
"335 412 OFFCURVE",
"296 412 QCURVE",
"263 412 OFFCURVE",
"215 388 OFFCURVE",
"187 346 OFFCURVE",
"175 292 OFFCURVE",
"175 262 QCURVE",
"175 230 OFFCURVE",
"189 177 OFFCURVE",
"217 138 OFFCURVE",
"264 117 OFFCURVE",
"297 117 QCURVE"
);
}
);
width = 567;
}
);
leftKerningGroup = _kern5;
rightKerningGroup = _kern6;
unicode = 0063;
},
{
color = (166, 255, 153, 255);
glyphname = e;
layers = (
{
layerId = "C190A61C-9222-48AB-B064-ABA42A1AB28F";
paths = (
{
closed = 1;
nodes = (
"326 107 OFFCURVE",
"369 126 OFFCURVE",
"383 148 QCURVE",
"531 148 LINE",
"520 107 OFFCURVE",
"475 47 OFFCURVE",
"412 9 OFFCURVE",
"336 -8 OFFCURVE",
"294 -8 QCURVE",
"166 -8 OFFCURVE",
"35 136 OFFCURVE",
"35 266 QCURVE",
"35 325 OFFCURVE",
"70 425 OFFCURVE",
"134 498 OFFCURVE",
"229 538 OFFCURVE",
"290 538 QCURVE",
"361 538 OFFCURVE",
"465 488 OFFCURVE",
"526 401 OFFCURVE",
"547 285 OFFCURVE",
"536 219 QCURVE",
"176 219 LINE",
"180 172 OFFCURVE",
"238 107 OFFCURVE",
"296 107 QCURVE"
);
},
{
closed = 1;
nodes = (
"405 316 LINE",
"405 341 OFFCURVE",
"387 380 OFFCURVE",
"357 405 OFFCURVE",
"316 417 OFFCURVE",
"294 417 QCURVE",
"241 416 OFFCURVE",
"182 361 OFFCURVE",
"177 316 QCURVE"
);
}
);
width = 577;
}
);
leftKerningGroup = _kern5;
rightKerningGroup = _kern6;
unicode = 0065;
},
{
color = (166, 255, 153, 255);
glyphname = f;
layers = (
{
layerId = "C190A61C-9222-48AB-B064-ABA42A1AB28F";
paths = (
{
closed = 1;
nodes = (
"370 527 LINE",
"370 404 LINE",
"241 404 LINE",
"241 0 LINE",
"100 0 LINE",
"100 404 LINE",
"20 404 LINE",
"20 527 LINE",
"100 527 LINE",
"100 595 LINE",
"100 684 OFFCURVE",
"193 768 OFFCURVE",
"286 768 QCURVE",
"370 768 LINE",
"370 645 LINE",
"306 645 LINE",
"241 645 OFFCURVE",
"241 579 QCURVE",
"241 527 LINE"
);
}
);
width = 384;
}
);
unicode = 0066;
},
{
color = (166, 255, 153, 255);
glyphname = g;
layers = (
{
layerId = "C190A61C-9222-48AB-B064-ABA42A1AB28F";
paths = (
{
closed = 1;
nodes = (
"412 20 OFFCURVE",
"328 -8 OFFCURVE",
"279 -8 QCURVE",
"230 -8 OFFCURVE",
"137 23 OFFCURVE",
"103 58 QCURVE",
"65 98 OFFCURVE",
"35 202 OFFCURVE",
"35 257 QCURVE",
"35 387 OFFCURVE",
"107 465 QCURVE",
"138 499 OFFCURVE",
"237 537 OFFCURVE",
"294 536 QCURVE",
"331 538 OFFCURVE",
"417 508 OFFCURVE",
"448 473 QCURVE",
"463 527 LINE",
"585 527 LINE",
"585 96 LINE",
"585 65 OFFCURVE",
"585 1 OFFCURVE",
"578 -62 OFFCURVE",
"562 -121 OFFCURVE",
"546 -148 QCURVE",
"528 -181 OFFCURVE",
"477 -227 OFFCURVE",
"415 -258 OFFCURVE",
"345 -272 OFFCURVE",
"309 -272 QCURVE",
"263 -272 OFFCURVE",
"179 -251 OFFCURVE",
"110 -204 OFFCURVE",
"65 -132 OFFCURVE",
"58 -82 QCURVE",
"208 -82 LINE",
"212 -106 OFFCURVE",
"268 -144 OFFCURVE",
"308 -144 QCURVE",
"351 -144 OFFCURVE",
"406 -110 OFFCURVE",
"434 -54 OFFCURVE",
"442 18 OFFCURVE",
"442 54 QCURVE"
);
},
{
closed = 1;
nodes = (
"344 117 OFFCURVE",
"395 141 OFFCURVE",
"427 182 OFFCURVE",
"443 237 OFFCURVE",
"443 268 QCURVE",
"443 330 OFFCURVE",
"374 411 OFFCURVE",
"310 412 QCURVE",
"277 412 OFFCURVE",
"226 388 OFFCURVE",
"193 348 OFFCURVE",
"177 294 OFFCURVE",
"177 263 QCURVE",
"177 230 OFFCURVE",
"194 177 OFFCURVE",
"228 138 OFFCURVE",
"278 117 OFFCURVE",
"311 117 QCURVE"
);
}
);
width = 640;
}
);
leftKerningGroup = _kern5;
unicode = 0067;
},
{
color = (166, 255, 153, 255);
glyphname = j;
layers = (
{
layerId = "C190A61C-9222-48AB-B064-ABA42A1AB28F";
paths = (
{
closed = 1;
nodes = (
"188 774 OFFCURVE",
"237 727 OFFCURVE",
"237 688 QCURVE",
"237 648 OFFCURVE",
"188 602 OFFCURVE",
"149 602 QCURVE",
"110 602 OFFCURVE",
"61 648 OFFCURVE",
"61 688 QCURVE",
"61 727 OFFCURVE",
"110 774 OFFCURVE",
"149 774 QCURVE"
);
},
{
closed = 1;
nodes = (
"78 527 LINE",
"219 527 LINE",
"219 -65 LINE",
"221 -241 OFFCURVE",
"36 -242 QCURVE",
"-43 -242 LINE",
"-43 -118 LINE",
"7 -118 LINE",
"40 -118 OFFCURVE",
"78 -81 OFFCURVE",
"78 -48 QCURVE"
);
}
);
width = 285;
}
);
unicode = 006A;
},
{
color = (166, 255, 153, 255);
glyphname = o;
layers = (
{
layerId = "C190A61C-9222-48AB-B064-ABA42A1AB28F";
paths = (
{
closed = 1;
nodes = (
"236 412 OFFCURVE",
"174 328 OFFCURVE",
"174 265 QCURVE",
"174 201 OFFCURVE",
"236 117 OFFCURVE",
"301 117 QCURVE",
"366 117 OFFCURVE",
"426 201 OFFCURVE",
"426 265 QCURVE",
"426 328 OFFCURVE",
"366 412 OFFCURVE",
"301 412 QCURVE"
);
},
{
closed = 1;
nodes = (
"173 -8 OFFCURVE",
"35 137 OFFCURVE",
"35 266 QCURVE",
"35 328 OFFCURVE",
"72 429 OFFCURVE",
"139 501 OFFCURVE",
"238 538 OFFCURVE",
"301 538 QCURVE",
"363 538 OFFCURVE",
"462 501 OFFCURVE",
"531 429 OFFCURVE",
"568 328 OFFCURVE",
"568 266 QCURVE",
"568 136 OFFCURVE",
"429 -8 OFFCURVE",
"301 -8 QCURVE"
);
}
);
width = 603;
}
);
leftKerningGroup = _kern5;
rightKerningGroup = _kern6;
unicode = 006F;
},
{
color = (166, 255, 153, 255);
glyphname = r;
layers = (
{
layerId = "C190A61C-9222-48AB-B064-ABA42A1AB28F";
paths = (
{
closed = 1;
nodes = (
"194 461 LINE",
"226 499 OFFCURVE",
"299 537 OFFCURVE",
"350 537 QCURVE",
"363 537 OFFCURVE",
"387 535 OFFCURVE",
"397 533 QCURVE",
"397 403 LINE",
"374 403 OFFCURVE",
"327 402 OFFCURVE",
"285 394 OFFCURVE",
"246 377 OFFCURVE",
"231 361 QCURVE",
"208 335 OFFCURVE",
"197 275 OFFCURVE",
"197 237 QCURVE",
"197 0 LINE",
"56 0 LINE",
"56 527 LINE",
"186 527 LINE"
);
}
);
width = 412;
}
);
leftKerningGroup = _kern29;
rightKerningGroup = _kern29;
unicode = 0072;
},
{
color = (166, 255, 153, 255);
glyphname = t;
layers = (
{
layerId = "C190A61C-9222-48AB-B064-ABA42A1AB28F";
paths = (
{
closed = 1;
nodes = (
"238 404 LINE",
"238 191 LINE",
"238 123 OFFCURVE",
"307 123 QCURVE",
"359 123 LINE",
"359 0 LINE",
"293 0 LINE",
"188 -4 OFFCURVE",
"97 84 OFFCURVE",
"97 173 QCURVE",
"97 404 LINE",
"17 404 LINE",
"17 527 LINE",
"97 527 LINE",
"97 670 LINE",
"238 670 LINE",
"238 527 LINE",
"364 527 LINE",
"364 404 LINE"
);
}
);
width = 384;
}
);
leftKerningGroup = _kern21;
rightKerningGroup = _kern21;
unicode = 0074;
},
{
color = (166, 255, 153, 255);
glyphname = y_alt;
layers = (
{
layerId = "C190A61C-9222-48AB-B064-ABA42A1AB28F";
paths = (
{
closed = 1;
nodes = (
"346 -145 OFFCURVE",
"399 -108 OFFCURVE",
"424 -49 OFFCURVE",
"430 24 OFFCURVE",
"430 61 QCURVE",
"404 24 OFFCURVE",
"325 -8 OFFCURVE",
"270 -8 QCURVE",
"215 -8 OFFCURVE",
"128 27 OFFCURVE",
"104 61 QCURVE",
"80 96 OFFCURVE",
"62 181 OFFCURVE",
"62 233 QCURVE",
"62 527 LINE",
"203 527 LINE",
"203 251 LINE",
"203 222 OFFCURVE",
"212 170 OFFCURVE",
"228 150 QCURVE",
"254 117 OFFCURVE",
"316 117 QCURVE",
"345 117 OFFCURVE",
"396 141 OFFCURVE",
"411 168 QCURVE",
"425 191 OFFCURVE",
"430 245 OFFCURVE",
"430 277 QCURVE",
"430 527 LINE",
"572 527 LINE",
"572 95 LINE",
"572 55 OFFCURVE",
"569 -21 OFFCURVE",
"558 -90 OFFCURVE",
"535 -152 OFFCURVE",
"517 -177 QCURVE",
"487 -219 OFFCURVE",
"385 -274 OFFCURVE",
"304 -274 QCURVE",
"257 -274 OFFCURVE",
"173 -253 OFFCURVE",
"106 -206 OFFCURVE",
"63 -135 OFFCURVE",
"56 -85 QCURVE",
"205 -85 LINE",
"209 -108 OFFCURVE",
"261 -145 OFFCURVE",
"301 -145 QCURVE"
);
}
);
width = 627;
}
);
},
{
color = (166, 255, 153, 255);
glyphname = y2_alt;
layers = (
{
layerId = "C190A61C-9222-48AB-B064-ABA42A1AB28F";
paths = (
{
closed = 1;
nodes = (
"315 136 LINE",
"432 527 LINE",
"585 527 LINE",
"451 134 LINE",
"433 78 OFFCURVE",
"398 -26 OFFCURVE",
"378 -81 QCURVE",
"360 -128 OFFCURVE",
"319 -196 OFFCURVE",
"293 -220 QCURVE",
"264 -246 OFFCURVE",
"182 -277 OFFCURVE",
"120 -277 QCURVE",
"85 -277 LINE",
"85 -154 LINE",
"107 -154 LINE",
"164 -154 OFFCURVE",
"227 -101 OFFCURVE",
"247 -49 QCURVE",
"10 527 LINE",
"178 527 LINE",
"314 136 LINE"
);
}
);
width = 585;
}
);
},
{
color = (166, 255, 153, 255);
glyphname = uni0443;
layers = (
{
layerId = "C190A61C-9222-48AB-B064-ABA42A1AB28F";
paths = (
{
closed = 1;
nodes = (
"315 138 LINE",
"432 527 LINE",
"585 527 LINE",
"451 134 LINE",
"433 78 OFFCURVE",
"398 -26 OFFCURVE",
"378 -81 QCURVE",
"360 -128 OFFCURVE",
"319 -196 OFFCURVE",
"293 -220 QCURVE",
"264 -246 OFFCURVE",
"182 -277 OFFCURVE",
"120 -277 QCURVE",
"85 -277 LINE",
"85 -154 LINE",
"107 -154 LINE",
"164 -154 OFFCURVE",
"227 -101 OFFCURVE",
"247 -49 QCURVE",
"10 527 LINE",
"178 527 LINE",
"314 138 LINE"
);
}
);
width = 585;
}
);
unicode = 0443;
},
{
color = (166, 255, 153, 255);
glyphname = uni0451;
layers = (
{
layerId = "C190A61C-9222-48AB-B064-ABA42A1AB28F";
paths = (
{
closed = 1;
nodes = (
"212 746 OFFCURVE",
"262 701 OFFCURVE",
"262 663 QCURVE",
"262 622 OFFCURVE",
"212 577 OFFCURVE",
"174 577 QCURVE",
"135 577 OFFCURVE",
"87 622 OFFCURVE",
"87 663 QCURVE",
"87 701 OFFCURVE",
"135 746 OFFCURVE",
"174 746 QCURVE"
);
},
{
closed = 1;
nodes = (
"457 746 OFFCURVE",
"505 701 OFFCURVE",
"505 663 QCURVE",
"505 622 OFFCURVE",
"457 577 OFFCURVE",
"418 577 QCURVE",
"380 577 OFFCURVE",
"331 622 OFFCURVE",
"331 663 QCURVE",
"331 701 OFFCURVE",
"380 746 OFFCURVE",
"418 746 QCURVE"
);
},
{
closed = 1;
nodes = (
"326 107 OFFCURVE",
"369 126 OFFCURVE",
"383 148 QCURVE",
"531 148 LINE",
"520 107 OFFCURVE",
"475 47 OFFCURVE",
"412 9 OFFCURVE",
"336 -8 OFFCURVE",
"294 -8 QCURVE",
"166 -8 OFFCURVE",
"35 136 OFFCURVE",
"35 266 QCURVE",
"35 325 OFFCURVE",
"70 425 OFFCURVE",
"134 498 OFFCURVE",
"229 538 OFFCURVE",
"290 538 QCURVE",
"361 538 OFFCURVE",
"465 488 OFFCURVE",
"526 401 OFFCURVE",
"547 285 OFFCURVE",
"536 219 QCURVE",
"176 219 LINE",
"180 172 OFFCURVE",
"238 107 OFFCURVE",
"296 107 QCURVE"
);
},
{
closed = 1;
nodes = (
"405 316 LINE",
"405 341 OFFCURVE",
"387 380 OFFCURVE",
"357 405 OFFCURVE",
"316 417 OFFCURVE",
"294 417 QCURVE",
"241 416 OFFCURVE",
"182 361 OFFCURVE",
"177 316 QCURVE"
);
}
);
width = 577;
}
);
leftKerningGroup = _kern9;
rightKerningGroup = _kern10;
unicode = 0451;
},
{
color = (166, 255, 153, 255);
glyphname = uni0437;
layers = (
{
layerId = "C190A61C-9222-48AB-B064-ABA42A1AB28F";
paths = (
{
closed = 1;
nodes = (
"473 268 OFFCURVE",
"509 200 OFFCURVE",
"508 164 QCURVE",
"507 104 OFFCURVE",
"451 34 OFFCURVE",
"411 16 QCURVE",
"378 2 OFFCURVE",
"303 -8 OFFCURVE",
"267 -8 QCURVE",
"226 -8 OFFCURVE",
"142 9 OFFCURVE",
"73 51 OFFCURVE",
"27 118 OFFCURVE",
"25 169 QCURVE",
"162 169 LINE",
"166 148 OFFCURVE",
"190 124 OFFCURVE",
"221 111 OFFCURVE",
"257 107 OFFCURVE",
"274 107 QCURVE",
"291 107 OFFCURVE",
"325 110 OFFCURVE",
"355 121 OFFCURVE",
"373 141 OFFCURVE",
"374 160 QCURVE",
"375 189 OFFCURVE",
"330 212 OFFCURVE",
"293 212 QCURVE",
"210 212 LINE",
"210 317 LINE",
"274 317 LINE",
"288 317 OFFCURVE",
"319 320 OFFCURVE",
"344 331 OFFCURVE",
"362 354 OFFCURVE",
"362 373 QCURVE",
"362 389 OFFCURVE",
"344 409 OFFCURVE",
"318 420 OFFCURVE",
"288 424 OFFCURVE",
"275 424 QCURVE",
"260 424 OFFCURVE",
"226 419 OFFCURVE",
"197 406 OFFCURVE",
"177 384 OFFCURVE",
"175 366 QCURVE",
"42 366 LINE",
"48 420 OFFCURVE",
"95 488 OFFCURVE",
"162 525 OFFCURVE",
"241 538 OFFCURVE",
"281 538 QCURVE",
"319 538 OFFCURVE",
"393 523 OFFCURVE",
"452 488 OFFCURVE",
"489 430 OFFCURVE",
"491 387 QCURVE",
"493 348 OFFCURVE",
"460 295 OFFCURVE",
"438 281 QCURVE"
);
}
);
width = 540;
}
);
leftKerningGroup = _kern9;
rightKerningGroup = _kern10;
unicode = 0437;
},
{
color = (166, 255, 153, 255);
glyphname = uni044D;
layers = (
{
layerId = "C190A61C-9222-48AB-B064-ABA42A1AB28F";
paths = (
{
closed = 1;
nodes = (
"327 114 OFFCURVE",
"387 166 OFFCURVE",
"389 208 QCURVE",
"193 208 LINE",
"193 319 LINE",
"389 319 LINE",
"387 360 OFFCURVE",
"328 414 OFFCURVE",
"276 414 QCURVE",
"260 414 OFFCURVE",
"227 408 OFFCURVE",
"200 396 OFFCURVE",
"180 379 OFFCURVE",
"176 369 QCURVE",
"27 369 LINE",
"37 413 OFFCURVE",
"83 477 OFFCURVE",
"147 518 OFFCURVE",
"227 538 OFFCURVE",
"272 538 QCURVE",
"334 538 OFFCURVE",
"429 499 OFFCURVE",
"493 428 OFFCURVE",
"525 326 OFFCURVE",
"525 265 QCURVE",
"525 126 OFFCURVE",
"451 54 QCURVE",
"421 24 OFFCURVE",
"327 -8 OFFCURVE",
"270 -8 QCURVE",
"231 -8 OFFCURVE",
"154 8 OFFCURVE",
"87 46 OFFCURVE",
"38 106 OFFCURVE",
"28 150 QCURVE",
"176 150 LINE",
"187 135 OFFCURVE",
"240 114 OFFCURVE",
"273 114 QCURVE"
);
}
);
width = 557;
}
);
leftKerningGroup = _kern9;
rightKerningGroup = _kern10;
unicode = 044D;
},
{
color = (166, 255, 153, 255);
glyphname = C;
layers = (
{
layerId = "C190A61C-9222-48AB-B064-ABA42A1AB28F";
paths = (
{
closed = 1;
nodes = (
"185 311 OFFCURVE",
"208 227 OFFCURVE",
"255 163 OFFCURVE",
"328 124 OFFCURVE",
"379 124 QCURVE",
"443 124 OFFCURVE",
"526 181 OFFCURVE",
"536 232 QCURVE",
"676 232 LINE",
"671 173 OFFCURVE",
"619 84 OFFCURVE",
"537 24 OFFCURVE",
"433 -6 OFFCURVE",
"377 -6 QCURVE",
"294 -6 OFFCURVE",
"167 48 OFFCURVE",
"80 144 OFFCURVE",
"36 276 OFFCURVE",
"36 355 QCURVE",
"36 432 OFFCURVE",
"81 565 OFFCURVE",
"169 662 OFFCURVE",
"296 717 OFFCURVE",
"379 717 QCURVE",
"437 717 OFFCURVE",
"539 689 OFFCURVE",
"619 631 OFFCURVE",
"670 540 OFFCURVE",
"676 477 QCURVE",
"536 477 LINE",
"525 528 OFFCURVE",
"443 588 OFFCURVE",
"379 588 QCURVE",
"328 588 OFFCURVE",
"255 551 OFFCURVE",
"208 487 OFFCURVE",
"185 402 OFFCURVE",
"185 356 QCURVE"
);
}
);
width = 706;
}
);
leftKerningGroup = _kern3;
rightKerningGroup = _kern4;
unicode = 0043;
},
{
color = (166, 255, 153, 255);
glyphname = S;
layers = (
{
layerId = "C190A61C-9222-48AB-B064-ABA42A1AB28F";
paths = (
{
closed = 1;
nodes = (
"445 504 LINE",
"439 549 OFFCURVE",
"371 588 OFFCURVE",
"320 590 QCURVE",
"302 590 OFFCURVE",
"263 584 OFFCURVE",
"229 566 OFFCURVE",
"207 536 OFFCURVE",
"207 514 QCURVE",
"206 491 OFFCURVE",
"231 459 OFFCURVE",
"252 449 QCURVE",
"267 442 OFFCURVE",
"302 431 OFFCURVE",
"336 422 OFFCURVE",
"368 416 OFFCURVE",
"380 413 QCURVE",
"423 404 OFFCURVE",
"503 380 OFFCURVE",
"565 338 OFFCURVE",
"603 268 OFFCURVE",
"604 212 QCURVE",
"604 151 OFFCURVE",
"558 65 OFFCURVE",
"519 39 QCURVE",
"482 13 OFFCURVE",
"384 -10 OFFCURVE",
"325 -8 QCURVE",
"268 -7 OFFCURVE",
"168 22 OFFCURVE",
"91 78 OFFCURVE",
"45 162 OFFCURVE",
"42 219 QCURVE",
"190 219 LINE",
"196 193 OFFCURVE",
"224 159 OFFCURVE",
"262 137 OFFCURVE",
"309 127 OFFCURVE",
"333 126 QCURVE",
"358 125 OFFCURVE",
"404 131 OFFCURVE",
"439 148 OFFCURVE",
"459 178 OFFCURVE",
"459 201 QCURVE",
"459 233 OFFCURVE",
"420 263 OFFCURVE",
"397 269 QCURVE",
"381 273 OFFCURVE",
"356 280 OFFCURVE",
"332 285 OFFCURVE",
"306 291 OFFCURVE",
"289 295 QCURVE",
"251 305 OFFCURVE",
"170 330 OFFCURVE",
"138 353 QCURVE",
"99 380 OFFCURVE",
"60 464 OFFCURVE",
"62 515 QCURVE",
"65 575 OFFCURVE",
"115 654 OFFCURVE",
"193 700 OFFCURVE",
"287 718 OFFCURVE",
"334 717 QCURVE",
"386 716 OFFCURVE",
"475 689 OFFCURVE",
"542 637 OFFCURVE",
"584 557 OFFCURVE",
"589 504 QCURVE"
);
}
);
width = 646;
}
);
leftKerningGroup = _kern3;
rightKerningGroup = _kern4;
unicode = 0053;
},
{
color = (166, 255, 153, 255);
glyphname = uni0421;
layers = (
{
layerId = "C190A61C-9222-48AB-B064-ABA42A1AB28F";
paths = (
{
closed = 1;
nodes = (
"185 311 OFFCURVE",
"208 227 OFFCURVE",
"255 163 OFFCURVE",
"328 124 OFFCURVE",
"379 124 QCURVE",
"443 124 OFFCURVE",
"526 181 OFFCURVE",
"536 232 QCURVE",
"676 232 LINE",
"671 173 OFFCURVE",
"619 84 OFFCURVE",
"537 24 OFFCURVE",
"433 -6 OFFCURVE",
"377 -6 QCURVE",
"294 -6 OFFCURVE",
"167 48 OFFCURVE",
"80 144 OFFCURVE",
"36 276 OFFCURVE",
"36 355 QCURVE",
"36 432 OFFCURVE",
"81 565 OFFCURVE",
"169 662 OFFCURVE",
"296 717 OFFCURVE",
"379 717 QCURVE",
"437 717 OFFCURVE",
"539 689 OFFCURVE",
"619 631 OFFCURVE",
"670 540 OFFCURVE",
"676 477 QCURVE",
"536 477 LINE",
"525 528 OFFCURVE",
"443 588 OFFCURVE",
"379 588 QCURVE",
"328 588 OFFCURVE",
"255 550 OFFCURVE",
"208 485 OFFCURVE",
"185 401 OFFCURVE",
"185 356 QCURVE"
);
}
);
width = 712;
}
);
leftKerningGroup = _kern7;
rightKerningGroup = _kern8;
unicode = 0421;
},
{
color = (166, 255, 153, 255);
glyphname = G;
layers = (
{
layerId = "C190A61C-9222-48AB-B064-ABA42A1AB28F";
paths = (
{
closed = 1;
nodes = (
"186 309 OFFCURVE",
"209 226 OFFCURVE",
"257 163 OFFCURVE",
"331 125 OFFCURVE",
"382 124 QCURVE",
"413 123 OFFCURVE",
"472 139 OFFCURVE",
"518 172 OFFCURVE",
"547 224 OFFCURVE",
"550 259 QCURVE",
"372 259 LINE",
"372 376 LINE",
"692 376 LINE",
"693 338 OFFCURVE",
"689 258 OFFCURVE",
"672 182 OFFCURVE",
"639 111 OFFCURVE",
"612 83 QCURVE",
"574 43 OFFCURVE",
"460 -6 OFFCURVE",
"380 -6 QCURVE",
"297 -6 OFFCURVE",
"168 47 OFFCURVE",
"81 143 OFFCURVE",
"36 275 OFFCURVE",
"36 354 QCURVE",
"36 435 OFFCURVE",
"81 569 OFFCURVE",
"169 664 OFFCURVE",
"298 717 OFFCURVE",
"381 717 QCURVE",
"438 717 OFFCURVE",
"542 687 OFFCURVE",
"622 627 OFFCURVE",
"674 537 OFFCURVE",
"679 477 QCURVE",
"539 477 LINE",
"529 528 OFFCURVE",
"438 590 OFFCURVE",
"375 588 QCURVE",
"325 586 OFFCURVE",
"253 547 OFFCURVE",
"207 483 OFFCURVE",
"186 400 OFFCURVE",
"186 355 QCURVE"
);
}
);
width = 729;
}
);
leftKerningGroup = _kern3;
rightKerningGroup = _kern4;
unicode = 0047;
},
{
color = (166, 255, 153, 255);
glyphname = uni041E;
layers = (
{
layerId = "C190A61C-9222-48AB-B064-ABA42A1AB28F";
paths = (
{
closed = 1;
nodes = (
"185 311 OFFCURVE",
"210 228 OFFCURVE",
"259 164 OFFCURVE",
"335 125 OFFCURVE",
"386 124 QCURVE",
"435 123 OFFCURVE",
"511 160 OFFCURVE",
"561 225 OFFCURVE",
"587 310 OFFCURVE",
"587 356 QCURVE",
"587 401 OFFCURVE",
"562 485 OFFCURVE",
"513 550 OFFCURVE",
"437 588 OFFCURVE",
"386 588 QCURVE",
"336 588 OFFCURVE",
"260 550 OFFCURVE",
"210 486 OFFCURVE",
"185 403 OFFCURVE",
"185 357 QCURVE"
);
},
{
closed = 1;
nodes = (
"468 717 OFFCURVE",
"598 665 OFFCURVE",
"688 570 OFFCURVE",
"736 438 OFFCURVE",
"736 358 QCURVE",
"736 280 OFFCURVE",
"688 146 OFFCURVE",
"598 48 OFFCURVE",
"467 -7 OFFCURVE",
"384 -6 QCURVE",
"301 -6 OFFCURVE",
"172 49 OFFCURVE",
"83 145 OFFCURVE",
"36 277 OFFCURVE",
"36 355 QCURVE",
"36 435 OFFCURVE",
"85 568 OFFCURVE",
"176 664 OFFCURVE",
"306 717 OFFCURVE",
"387 717 QCURVE"
);
}
);
width = 772;
}
);
leftKerningGroup = _kern7;
rightKerningGroup = _kern8;
unicode = 041E;
},
{
color = (166, 255, 153, 255);
glyphname = Q;
layers = (
{
layerId = "C190A61C-9222-48AB-B064-ABA42A1AB28F";
paths = (
{
closed = 1;
nodes = (
"185 311 OFFCURVE",
"210 228 OFFCURVE",
"259 164 OFFCURVE",
"335 125 OFFCURVE",
"386 124 QCURVE",
"435 123 OFFCURVE",
"511 160 OFFCURVE",
"561 225 OFFCURVE",
"587 310 OFFCURVE",
"587 356 QCURVE",
"587 401 OFFCURVE",
"562 485 OFFCURVE",
"513 550 OFFCURVE",
"437 588 OFFCURVE",
"386 588 QCURVE",
"336 588 OFFCURVE",
"260 550 OFFCURVE",
"210 486 OFFCURVE",
"185 403 OFFCURVE",
"185 357 QCURVE"
);
},
{
closed = 1;
nodes = (
"516 15 LINE",
"456 -6 OFFCURVE",
"384 -6 QCURVE",
"301 -6 OFFCURVE",
"172 49 OFFCURVE",
"83 145 OFFCURVE",
"36 277 OFFCURVE",
"36 355 QCURVE",
"36 435 OFFCURVE",
"85 568 OFFCURVE",
"176 664 OFFCURVE",
"306 717 OFFCURVE",
"387 717 QCURVE",
"468 717 OFFCURVE",
"598 665 OFFCURVE",
"688 570 OFFCURVE",
"736 438 OFFCURVE",
"736 358 QCURVE",
"736 277 OFFCURVE",
"685 140 OFFCURVE",
"637 91 QCURVE",
"728 -24 LINE",
"617 -111 LINE"
);
}
);
width = 772;
}
);
leftKerningGroup = _kern3;
rightKerningGroup = _kern4;
unicode = 0051;
},
{
color = (166, 255, 153, 255);
glyphname = J;
layers = (
{
layerId = "C190A61C-9222-48AB-B064-ABA42A1AB28F";
paths = (
{
closed = 1;
nodes = (
"522 254 LINE",
"522 188 OFFCURVE",
"493 90 OFFCURVE",
"459 56 QCURVE",
"429 26 OFFCURVE",
"337 -8 OFFCURVE",
"275 -6 QCURVE",
"158 -5 OFFCURVE",
"94 58 QCURVE",
"63 90 OFFCURVE",
"29 180 OFFCURVE",
"31 238 QCURVE",
"177 238 LINE",
"177 188 OFFCURVE",
"220 123 OFFCURVE",
"277 122 QCURVE",
"333 121 OFFCURVE",
"377 187 OFFCURVE",
"377 237 QCURVE",
"377 708 LINE",
"522 708 LINE"
);
}
);
width = 592;
}
);
unicode = 004A;
},
{
color = (166, 255, 153, 255);
glyphname = K_alt;
layers = (
{
layerId = "C190A61C-9222-48AB-B064-ABA42A1AB28F";
paths = (
{
closed = 1;
nodes = (
"220 404 LINE",
"499 708 LINE",
"671 708 LINE",
"374 393 LINE",
"669 0 LINE",
"499 0 LINE",
"273 301 LINE",
"220 247 LINE",
"220 0 LINE",
"75 0 LINE",
"75 708 LINE",
"220 708 LINE"
);
}
);
width = 673;
}
);
leftKerningGroup = _kern16;
rightKerningGroup = _kern16;
},
{
color = (166, 255, 153, 255);
glyphname = K;
layers = (
{
layerId = "C190A61C-9222-48AB-B064-ABA42A1AB28F";
paths = (
{
closed = 1;
nodes = (
"220 288 LINE",
"220 0 LINE",
"75 0 LINE",
"75 708 LINE",
"220 708 LINE",
"220 416 LINE",
"295 416 LINE",
"501 708 LINE",
"669 708 LINE",
"419 372 LINE",
"672 0 LINE",
"503 0 LINE",
"309 288 LINE"
);
}
);
width = 674;
}
);
leftKerningGroup = _kern1;
rightKerningGroup = _kern16;
unicode = 004B;
},
{
color = (166, 255, 153, 255);
glyphname = k_alt;
layers = (
{
layerId = "C190A61C-9222-48AB-B064-ABA42A1AB28F";
paths = (
{
closed = 1;
nodes = (
"384 527 LINE",
"553 527 LINE",
"342 303 LINE",
"563 0 LINE",
"403 0 LINE",
"243 215 LINE",
"197 168 LINE",
"197 0 LINE",
"56 0 LINE",
"56 708 LINE",
"197 708 LINE",
"197 319 LINE"
);
}
);
width = 565;
}
);
leftKerningGroup = _kern17;
rightKerningGroup = _kern17;
},
{
color = (166, 255, 153, 255);
glyphname = k;
layers = (
{
layerId = "C190A61C-9222-48AB-B064-ABA42A1AB28F";
paths = (
{
closed = 1;
nodes = (
"197 201 LINE",
"197 0 LINE",
"56 0 LINE",
"56 708 LINE",
"197 708 LINE",
"197 323 LINE",
"267 323 LINE",
"381 527 LINE",
"542 527 LINE",
"386 277 LINE",
"554 0 LINE",
"390 0 LINE",
"272 201 LINE"
);
}
);
width = 554;
}
);
leftKerningGroup = _kern17;
rightKerningGroup = _kern17;
unicode = 006B;
},
{
color = (166, 255, 153, 255);
glyphname = i_alt;
layers = (
{
layerId = "C190A61C-9222-48AB-B064-ABA42A1AB28F";
paths = (
{
closed = 1;
nodes = (
"190 772 OFFCURVE",
"238 726 OFFCURVE",
"238 688 QCURVE",
"238 648 OFFCURVE",
"190 603 OFFCURVE",
"152 603 QCURVE",
"112 603 OFFCURVE",
"64 648 OFFCURVE",
"64 688 QCURVE",
"64 726 OFFCURVE",
"112 772 OFFCURVE",
"152 772 QCURVE"
);
},
{
closed = 1;
nodes = (
"0 527 LINE",
"221 527 LINE",
"221 0 LINE",
"80 0 LINE",
"80 404 LINE",
"0 404 LINE"
);
}
);
width = 286;
}
);
},
{
color = (166, 255, 153, 255);
glyphname = j_alt;
layers = (
{
layerId = "C190A61C-9222-48AB-B064-ABA42A1AB28F";
paths = (
{
closed = 1;
nodes = (
"201 774 OFFCURVE",
"250 727 OFFCURVE",
"250 688 QCURVE",
"250 648 OFFCURVE",
"201 602 OFFCURVE",
"163 602 QCURVE",
"122 602 OFFCURVE",
"73 648 OFFCURVE",
"73 688 QCURVE",
"73 727 OFFCURVE",
"123 774 OFFCURVE",
"163 774 QCURVE"
);
},
{
closed = 1;
nodes = (
"11 527 LINE",
"232 527 LINE",
"232 -65 LINE",
"232 -241 OFFCURVE",
"49 -242 QCURVE",
"-30 -242 LINE",
"-30 -118 LINE",
"20 -118 LINE",
"54 -118 OFFCURVE",
"91 -81 OFFCURVE",
"91 -48 QCURVE",
"91 404 LINE",
"11 404 LINE"
);
}
);
width = 298;
}
);
},
{
color = (166, 255, 153, 255);
glyphname = s_alt;
layers = (
{
layerId = "C190A61C-9222-48AB-B064-ABA42A1AB28F";
paths = (
{
closed = 1;
nodes = (
"261 424 OFFCURVE",
"231 421 OFFCURVE",
"205 412 OFFCURVE",
"188 393 OFFCURVE",
"188 378 QCURVE",
"187 361 OFFCURVE",
"215 339 OFFCURVE",
"235 333 QCURVE",
"250 328 OFFCURVE",
"283 322 OFFCURVE",
"294 320 QCURVE",
"338 313 OFFCURVE",
"427 297 OFFCURVE",
"460 276 QCURVE",
"492 254 OFFCURVE",
"518 194 OFFCURVE",
"518 158 QCURVE",
"519 115 OFFCURVE",
"481 45 OFFCURVE",
"444 22 QCURVE",
"409 1 OFFCURVE",
"326 -15 OFFCURVE",
"285 -15 QCURVE",
"246 -15 OFFCURVE",
"171 -1 OFFCURVE",
"135 16 QCURVE",
"84 41 OFFCURVE",
"31 124 OFFCURVE",
"31 180 QCURVE",
"169 180 LINE",
"172 159 OFFCURVE",
"196 130 OFFCURVE",
"229 113 OFFCURVE",
"269 105 OFFCURVE",
"287 104 QCURVE",
"300 104 OFFCURVE",
"331 107 OFFCURVE",
"359 117 OFFCURVE",
"378 136 OFFCURVE",
"379 152 QCURVE",
"381 170 OFFCURVE",
"354 191 OFFCURVE",
"330 196 QCURVE",
"243 213 LINE",
"207 221 OFFCURVE",
"140 236 OFFCURVE",
"112 253 QCURVE",
"83 272 OFFCURVE",
"47 332 OFFCURVE",
"49 381 QCURVE",
"53 426 OFFCURVE",
"98 489 OFFCURVE",
"167 526 OFFCURVE",
"249 540 OFFCURVE",
"291 539 QCURVE",
"335 537 OFFCURVE",
"413 515 OFFCURVE",
"471 471 OFFCURVE",
"504 405 OFFCURVE",
"504 360 QCURVE",
"371 360 LINE",
"370 380 OFFCURVE",
"354 405 OFFCURVE",
"327 419 OFFCURVE",
"293 424 OFFCURVE",
"273 424 QCURVE"
);
}
);
width = 551;
}
);
leftKerningGroup = _kern5;
rightKerningGroup = _kern6;
},
{
color = (166, 255, 153, 255);
glyphname = s;
layers = (
{
layerId = "C190A61C-9222-48AB-B064-ABA42A1AB28F";
paths = (
{
closed = 1;
nodes = (
"235 425 OFFCURVE",
"208 421 OFFCURVE",
"186 412 OFFCURVE",
"172 393 OFFCURVE",
"173 378 QCURVE",
"174 361 OFFCURVE",
"199 341 OFFCURVE",
"222 335 QCURVE",
"244 329 OFFCURVE",
"298 318 OFFCURVE",
"350 306 OFFCURVE",
"400 290 OFFCURVE",
"419 278 QCURVE",
"445 262 OFFCURVE",
"479 204 OFFCURVE",
"478 162 QCURVE",
"478 121 OFFCURVE",
"451 62 OFFCURVE",
"428 41 QCURVE",
"399 15 OFFCURVE",
"311 -8 OFFCURVE",
"266 -8 QCURVE",
"214 -8 OFFCURVE",
"127 14 OFFCURVE",
"91 42 QCURVE",
"65 63 OFFCURVE",
"30 124 OFFCURVE",
"27 167 QCURVE",
"169 167 LINE",
"175 133 OFFCURVE",
"230 107 OFFCURVE",
"268 107 QCURVE",
"279 107 OFFCURVE",
"304 110 OFFCURVE",
"325 119 OFFCURVE",
"340 138 OFFCURVE",
"340 149 QCURVE",
"341 175 OFFCURVE",
"304 197 OFFCURVE",
"283 201 QCURVE",
"262 206 OFFCURVE",
"214 216 OFFCURVE",
"167 226 OFFCURVE",
"121 241 OFFCURVE",
"102 254 QCURVE",
"73 272 OFFCURVE",
"34 332 OFFCURVE",
"37 381 QCURVE",
"39 424 OFFCURVE",
"78 485 OFFCURVE",
"137 522 OFFCURVE",
"212 538 OFFCURVE",
"251 538 QCURVE",
"294 538 OFFCURVE",
"370 520 OFFCURVE",
"427 480 OFFCURVE",
"462 416 OFFCURVE",
"464 370 QCURVE",
"328 370 LINE",
"324 403 OFFCURVE",
"281 425 OFFCURVE",
"250 425 QCURVE"
);
}
);
width = 506;
}
);
leftKerningGroup = _kern5;
rightKerningGroup = _kern6;
unicode = 0073;
},
{
color = (166, 255, 153, 255);
glyphname = c_alt;
layers = (
{
layerId = "C190A61C-9222-48AB-B064-ABA42A1AB28F";
paths = (
{
closed = 1;
nodes = (
"324 117 OFFCURVE",
"367 136 OFFCURVE",
"375 152 QCURVE",
"529 152 LINE",
"519 108 OFFCURVE",
"474 47 OFFCURVE",
"411 9 OFFCURVE",
"334 -8 OFFCURVE",
"292 -8 QCURVE",
"226 -8 OFFCURVE",
"128 30 OFFCURVE",
"64 101 OFFCURVE",
"31 202 OFFCURVE",
"31 265 QCURVE",
"31 326 OFFCURVE",
"68 428 OFFCURVE",
"135 499 OFFCURVE",
"234 538 OFFCURVE",
"297 538 QCURVE",
"343 538 OFFCURVE",
"424 516 OFFCURVE",
"487 470 OFFCURVE",
"527 399 OFFCURVE",
"534 350 QCURVE",
"386 350 LINE",
"381 374 OFFCURVE",
"330 412 OFFCURVE",
"291 412 QCURVE",
"261 412 OFFCURVE",
"219 394 OFFCURVE",
"204 377 QCURVE",
"187 357 OFFCURVE",
"170 299 OFFCURVE",
"170 265 QCURVE",
"170 232 OFFCURVE",
"183 179 OFFCURVE",
"213 139 OFFCURVE",
"261 117 OFFCURVE",
"295 117 QCURVE"
);
}
);
width = 566;
}
);
leftKerningGroup = _kern5;
rightKerningGroup = _kern6;
},
{
color = (166, 255, 153, 255);
glyphname = copyright;
layers = (
{
layerId = "C190A61C-9222-48AB-B064-ABA42A1AB28F";
paths = (
{
closed = 1;
nodes = (
"364 -88 OFFCURVE",
"212 -32 OFFCURVE",
"105 74 OFFCURVE",
"47 225 OFFCURVE",
"47 320 QCURVE",
"47 413 OFFCURVE",
"106 565 OFFCURVE",
"214 671 OFFCURVE",
"365 729 OFFCURVE",
"457 729 QCURVE",
"547 729 OFFCURVE",
"697 669 OFFCURVE",
"804 561 OFFCURVE",
"863 410 OFFCURVE",
"863 320 QCURVE",
"863 225 OFFCURVE",
"806 74 OFFCURVE",
"700 -32 OFFCURVE",
"550 -88 OFFCURVE",
"457 -88 QCURVE"
);
},
{
closed = 1;
nodes = (
"533 5 OFFCURVE",
"646 48 OFFCURVE",
"726 129 OFFCURVE",
"768 246 OFFCURVE",
"768 319 QCURVE",
"768 391 OFFCURVE",
"724 507 OFFCURVE",
"644 589 OFFCURVE",
"531 633 OFFCURVE",
"461 633 QCURVE",
"391 633 OFFCURVE",
"276 589 OFFCURVE",
"194 507 OFFCURVE",
"149 391 OFFCURVE",
"149 319 QCURVE",
"149 246 OFFCURVE",
"193 129 OFFCURVE",
"274 48 OFFCURVE",
"389 5 OFFCURVE",
"461 5 QCURVE"
);
},
{
closed = 1;
nodes = (
"497 207 OFFCURVE",
"532 234 OFFCURVE",
"536 252 QCURVE",
"647 252 LINE",
"636 176 OFFCURVE",
"535 110 OFFCURVE",
"464 110 QCURVE",
"415 110 OFFCURVE",
"341 140 OFFCURVE",
"292 196 OFFCURVE",
"268 273 OFFCURVE",
"268 321 QCURVE",
"268 367 OFFCURVE",
"295 444 OFFCURVE",
"346 499 OFFCURVE",
"421 529 OFFCURVE",
"468 529 QCURVE",
"539 529 OFFCURVE",
"636 459 OFFCURVE",
"647 386 QCURVE",
"536 386 LINE",
"532 403 OFFCURVE",
"495 433 OFFCURVE",
"466 433 QCURVE",
"416 433 OFFCURVE",
"374 369 OFFCURVE",
"374 321 QCURVE",
"374 272 OFFCURVE",
"415 207 OFFCURVE",
"467 207 QCURVE"
);
}
);
width = 910;
}
);
unicode = 00A9;
},
{
color = (166, 255, 153, 255);
glyphname = ampersand;
layers = (
{
layerId = "C190A61C-9222-48AB-B064-ABA42A1AB28F";
paths = (
{
closed = 1;
nodes = (
"522 0 LINE",
"477 48 LINE",
"439 16 OFFCURVE",
"341 -17 OFFCURVE",
"276 -16 QCURVE",
"228 -16 OFFCURVE",
"143 14 OFFCURVE",
"113 42 QCURVE",
"85 68 OFFCURVE",
"55 139 OFFCURVE",
"55 184 QCURVE",
"56 255 OFFCURVE",
"127 346 OFFCURVE",
"177 375 QCURVE",
"147 407 OFFCURVE",
"109 480 OFFCURVE",
"109 523 QCURVE",
"109 571 OFFCURVE",
"144 642 OFFCURVE",
"203 690 OFFCURVE",
"282 712 OFFCURVE",
"326 711 QCURVE",
"362 709 OFFCURVE",
"428 686 OFFCURVE",
"478 644 OFFCURVE",
"508 584 OFFCURVE",
"508 546 QCURVE",
"508 513 OFFCURVE",
"484 457 OFFCURVE",
"446 409 OFFCURVE",
"396 370 OFFCURVE",
"370 354 QCURVE",
"481 230 LINE",
"503 286 OFFCURVE",
"506 332 QCURVE",
"630 332 LINE",
"627 290 OFFCURVE",
"597 190 OFFCURVE",
"565 141 QCURVE",
"694 0 LINE"
);
},
{
closed = 1;
nodes = (
"254 291 LINE",
"222 272 OFFCURVE",
"179 220 OFFCURVE",
"182 185 QCURVE",
"186 142 OFFCURVE",
"247 103 OFFCURVE",
"287 101 QCURVE",
"322 99 OFFCURVE",
"379 119 OFFCURVE",
"400 132 QCURVE"
);
},
{
closed = 1;
nodes = (
"301 440 OFFCURVE",
"333 462 OFFCURVE",
"361 488 OFFCURVE",
"380 518 OFFCURVE",
"380 534 QCURVE",
"380 566 OFFCURVE",
"337 600 OFFCURVE",
"308 599 QCURVE",
"277 598 OFFCURVE",
"233 564 OFFCURVE",
"232 530 QCURVE",
"232 499 OFFCURVE",
"269 455 OFFCURVE",
"289 433 QCURVE"
);
}
);
width = 706;
}
);
unicode = 0026;
},
{
color = (166, 255, 153, 255);
glyphname = dollar;
layers = (
{
layerId = "C190A61C-9222-48AB-B064-ABA42A1AB28F";
paths = (
{
closed = 1;
nodes = (
"471 489 LINE",
"468 519 OFFCURVE",
"443 557 OFFCURVE",
"406 580 OFFCURVE",
"358 589 OFFCURVE",
"333 590 QCURVE",
"314 590 OFFCURVE",
"272 585 OFFCURVE",
"237 568 OFFCURVE",
"213 538 OFFCURVE",
"212 514 QCURVE",
"210 483 OFFCURVE",
"246 451 OFFCURVE",
"269 441 QCURVE",
"298 430 OFFCURVE",
"363 416 OFFCURVE",
"394 411 QCURVE",
"438 403 OFFCURVE",
"522 382 OFFCURVE",
"554 359 QCURVE",
"584 336 OFFCURVE",
"620 266 OFFCURVE",
"620 212 QCURVE",
"621 151 OFFCURVE",
"573 66 OFFCURVE",
"537 41 QCURVE",
"506 21 OFFCURVE",
"434 -2 OFFCURVE",
"393 -6 QCURVE",
"393 -136 LINE",
"265 -136 LINE",
"265 -1 LINE",
"211 8 OFFCURVE",
"165 32 QCURVE",
"108 64 OFFCURVE",
"47 166 OFFCURVE",
"47 235 QCURVE",
"188 235 LINE",
"191 205 OFFCURVE",
"222 163 OFFCURVE",
"266 138 OFFCURVE",
"318 126 OFFCURVE",
"344 126 QCURVE",
"367 126 OFFCURVE",
"415 131 OFFCURVE",
"454 149 OFFCURVE",
"479 182 OFFCURVE",
"479 209 QCURVE",
"478 236 OFFCURVE",
"446 262 OFFCURVE",
"425 269 QCURVE",
"394 277 OFFCURVE",
"330 286 OFFCURVE",
"298 294 QCURVE",
"258 303 OFFCURVE",
"173 330 OFFCURVE",
"139 356 QCURVE",
"102 383 OFFCURVE",
"67 464 OFFCURVE",
"69 515 QCURVE",
"71 561 OFFCURVE",
"106 630 OFFCURVE",
"161 678 OFFCURVE",
"230 706 OFFCURVE",
"268 712 QCURVE",
"268 849 LINE",
"396 849 LINE",
"396 712 LINE",
"490 701 OFFCURVE",
"602 585 OFFCURVE",
"607 489 QCURVE"
);
}
);
width = 669;
}
);
unicode = 0024;
},
{
color = (166, 255, 153, 255);
glyphname = parenleft;
layers = (
{
layerId = "C190A61C-9222-48AB-B064-ABA42A1AB28F";
paths = (
{
closed = 1;
nodes = (
"53 441 OFFCURVE",
"134 700 OFFCURVE",
"215 809 QCURVE",
"378 809 LINE",
"328 756 OFFCURVE",
"265 635 OFFCURVE",
"220 505 OFFCURVE",
"196 372 OFFCURVE",
"196 307 QCURVE",
"196 242 OFFCURVE",
"220 108 OFFCURVE",
"265 -21 OFFCURVE",
"328 -142 OFFCURVE",
"378 -195 QCURVE",
"215 -195 LINE",
"134 -86 OFFCURVE",
"53 173 OFFCURVE",
"53 307 QCURVE"
);
}
);
width = 336;
}
);
unicode = 0028;
},
{
color = (166, 255, 153, 255);
glyphname = parenright;
layers = (
{
layerId = "C190A61C-9222-48AB-B064-ABA42A1AB28F";
paths = (
{
closed = 1;
nodes = (
"283 173 OFFCURVE",
"202 -86 OFFCURVE",
"121 -195 QCURVE",
"-42 -195 LINE",
"8 -142 OFFCURVE",
"71 -21 OFFCURVE",
"116 108 OFFCURVE",
"140 242 OFFCURVE",
"140 307 QCURVE",
"140 372 OFFCURVE",
"116 505 OFFCURVE",
"71 635 OFFCURVE",
"8 756 OFFCURVE",
"-42 809 QCURVE",
"121 809 LINE",
"202 700 OFFCURVE",
"283 441 OFFCURVE",
"283 307 QCURVE"
);
}
);
width = 336;
}
);
unicode = 0029;
},
{
color = (166, 255, 153, 255);
glyphname = cent;
layers = (
{
layerId = "C190A61C-9222-48AB-B064-ABA42A1AB28F";
paths = (
{
closed = 1;
nodes = (
"350 114 OFFCURVE",
"396 150 OFFCURVE",
"401 175 QCURVE",
"550 175 LINE",
"544 133 OFFCURVE",
"513 70 OFFCURVE",
"467 24 OFFCURVE",
"406 -4 OFFCURVE",
"371 -10 QCURVE",
"371 -149 LINE",
"240 -149 LINE",
"240 -9 LINE",
"142 10 OFFCURVE",
"47 155 OFFCURVE",
"47 265 QCURVE",
"47 370 OFFCURVE",
"148 512 OFFCURVE",
"240 532 QCURVE",
"240 681 LINE",
"371 681 LINE",
"371 535 LINE",
"442 523 OFFCURVE",
"539 432 OFFCURVE",
"550 350 QCURVE",
"401 350 LINE",
"396 374 OFFCURVE",
"348 413 OFFCURVE",
"309 413 QCURVE",
"276 413 OFFCURVE",
"229 391 OFFCURVE",
"200 350 OFFCURVE",
"188 296 OFFCURVE",
"188 265 QCURVE",
"188 232 OFFCURVE",
"200 178 OFFCURVE",
"229 137 OFFCURVE",
"276 114 OFFCURVE",
"310 114 QCURVE"
);
}
);
width = 598;
}
);
unicode = 00A2;
},
{
color = (166, 255, 153, 255);
glyphname = section;
layers = (
{
layerId = "C190A61C-9222-48AB-B064-ABA42A1AB28F";
paths = (
{
closed = 1;
nodes = (
"265 608 OFFCURVE",
"238 605 OFFCURVE",
"214 595 OFFCURVE",
"197 577 OFFCURVE",
"197 562 QCURVE",
"196 547 OFFCURVE",
"219 527 OFFCURVE",
"251 515 OFFCURVE",
"285 509 OFFCURVE",
"297 507 QCURVE",
"339 500 OFFCURVE",
"420 485 OFFCURVE",
"451 465 QCURVE",
"480 445 OFFCURVE",
"504 388 OFFCURVE",
"505 353 QCURVE",
"505 292 OFFCURVE",
"461 248 QCURVE",
"481 228 OFFCURVE",
"503 174 OFFCURVE",
"503 145 QCURVE",
"504 105 OFFCURVE",
"468 38 OFFCURVE",
"433 16 QCURVE",
"400 -6 OFFCURVE",
"325 -19 OFFCURVE",
"287 -19 QCURVE",
"251 -19 OFFCURVE",
"180 -7 OFFCURVE",
"147 10 QCURVE",
"99 34 OFFCURVE",
"47 113 OFFCURVE",
"47 167 QCURVE",
"176 167 LINE",
"179 147 OFFCURVE",
"199 119 OFFCURVE",
"228 102 OFFCURVE",
"263 94 OFFCURVE",
"281 94 QCURVE",
"297 94 OFFCURVE",
"330 97 OFFCURVE",
"355 107 OFFCURVE",
"372 125 OFFCURVE",
"373 140 QCURVE",
"374 157 OFFCURVE",
"349 177 OFFCURVE",
"327 181 QCURVE",
"246 199 LINE",
"211 206 OFFCURVE",
"150 222 OFFCURVE",
"124 238 QCURVE",
"96 255 OFFCURVE",
"59 315 OFFCURVE",
"62 361 QCURVE",
"64 392 OFFCURVE",
"94 438 OFFCURVE",
"113 457 QCURVE",
"93 472 OFFCURVE",
"65 527 OFFCURVE",
"67 564 QCURVE",
"69 608 OFFCURVE",
"112 667 OFFCURVE",
"177 703 OFFCURVE",
"255 717 OFFCURVE",
"293 716 QCURVE",
"334 714 OFFCURVE",
"406 694 OFFCURVE",
"459 655 OFFCURVE",
"492 595 OFFCURVE",
"494 555 QCURVE",
"368 555 LINE",
"366 584 OFFCURVE",
"312 607 OFFCURVE",
"277 608 QCURVE"
);
},
{
closed = 1;
nodes = (
"209 406 OFFCURVE",
"194 377 OFFCURVE",
"194 361 QCURVE",
"193 343 OFFCURVE",
"219 317 OFFCURVE",
"238 312 QCURVE",
"263 304 OFFCURVE",
"320 296 OFFCURVE",
"346 291 QCURVE",
"360 299 OFFCURVE",
"377 325 OFFCURVE",
"378 342 QCURVE",
"379 356 OFFCURVE",
"365 376 OFFCURVE",
"342 388 OFFCURVE",
"316 395 OFFCURVE",
"306 397 QCURVE",
"285 402 OFFCURVE",
"244 409 OFFCURVE",
"224 414 QCURVE"
);
}
);
width = 553;
}
);
unicode = 00A7;
},
{
color = (166, 255, 153, 255);
glyphname = uni04C1;
layers = (
{
layerId = "C190A61C-9222-48AB-B064-ABA42A1AB28F";
paths = (
{
closed = 1;
nodes = (
"549 288 LINE",
"549 0 LINE",
"404 0 LINE",
"404 288 LINE",
"350 288 LINE",
"171 0 LINE",
"2 0 LINE",
"234 369 LINE",
"5 708 LINE",
"174 708 LINE",
"357 416 LINE",
"404 416 LINE",
"404 708 LINE",
"549 708 LINE",
"549 416 LINE",
"595 416 LINE",
"779 708 LINE",
"947 708 LINE",
"719 369 LINE",
"950 0 LINE",
"781 0 LINE",
"602 288 LINE"
);
},
{
closed = 1;
nodes = (
"396 768 OFFCURVE",
"291 844 OFFCURVE",
"281 925 QCURVE",
"403 925 LINE",
"410 897 OFFCURVE",
"449 866 OFFCURVE",
"478 866 QCURVE",
"507 866 OFFCURVE",
"546 897 OFFCURVE",
"552 925 QCURVE",
"675 925 LINE",
"664 844 OFFCURVE",
"558 768 OFFCURVE",
"477 768 QCURVE"
);
}
);
width = 952;
}
);
unicode = 04C1;
},
{
color = (166, 255, 153, 255);
glyphname = uni04C2;
layers = (
{
layerId = "C190A61C-9222-48AB-B064-ABA42A1AB28F";
paths = (
{
closed = 1;
nodes = (
"489 200 LINE",
"489 0 LINE",
"346 0 LINE",
"346 200 LINE",
"298 200 LINE",
"174 0 LINE",
"2 0 LINE",
"186 277 LINE",
"14 527 LINE",
"180 527 LINE",
"304 322 LINE",
"346 322 LINE",
"346 527 LINE",
"489 527 LINE",
"489 322 LINE",
"532 322 LINE",
"657 527 LINE",
"822 527 LINE",
"650 277 LINE",
"834 0 LINE",
"664 0 LINE",
"538 200 LINE"
);
},
{
closed = 1;
nodes = (
"337 577 OFFCURVE",
"230 655 OFFCURVE",
"220 737 QCURVE",
"343 737 LINE",
"350 709 OFFCURVE",
"390 677 OFFCURVE",
"419 677 QCURVE",
"448 677 OFFCURVE",
"488 709 OFFCURVE",
"494 737 QCURVE",
"618 737 LINE",
"607 655 OFFCURVE",
"501 577 OFFCURVE",
"419 577 QCURVE"
);
}
);
width = 836;
}
);
unicode = 04C2;
},
{
color = (166, 255, 153, 255);
glyphname = w_alt;
layers = (
{
layerId = "C190A61C-9222-48AB-B064-ABA42A1AB28F";
paths = (
{
closed = 1;
nodes = (
"165 0 LINE",
"2 527 LINE",
"158 527 LINE",
"254 161 LINE",
"332 419 LINE",
"475 419 LINE",
"553 161 LINE",
"650 527 LINE",
"797 527 LINE",
"635 0 LINE",
"477 0 LINE",
"401 265 LINE",
"328 0 LINE"
);
}
);
width = 799;
}
);
leftKerningGroup = _kern20;
rightKerningGroup = _kern20;
},
{
color = (166, 255, 153, 255);
glyphname = W_alt;
layers = (
{
layerId = "C190A61C-9222-48AB-B064-ABA42A1AB28F";
paths = (
{
closed = 1;
nodes = (
"176 0 LINE",
"3 708 LINE",
"168 708 LINE",
"279 165 LINE",
"375 555 LINE",
"555 555 LINE",
"649 165 LINE",
"753 708 LINE",
"909 708 LINE",
"748 0 LINE",
"560 0 LINE",
"463 399 LINE",
"367 0 LINE"
);
}
);
width = 912;
}
);
leftKerningGroup = _kern19;
rightKerningGroup = _kern19;
},
{
color = (166, 255, 153, 255);
glyphname = zero;
layers = (
{
layerId = "C190A61C-9222-48AB-B064-ABA42A1AB28F";
paths = (
{
closed = 1;
nodes = (
"387 123 OFFCURVE",
"459 231 OFFCURVE",
"459 356 QCURVE",
"459 480 OFFCURVE",
"387 589 OFFCURVE",
"323 589 QCURVE",
"258 589 OFFCURVE",
"187 480 OFFCURVE",
"187 356 QCURVE",
"187 231 OFFCURVE",
"258 123 OFFCURVE",
"323 123 QCURVE"
);
},
{
closed = 1;
nodes = (
"384 717 OFFCURVE",
"487 675 OFFCURVE",
"560 586 OFFCURVE",
"601 450 OFFCURVE",
"601 356 QCURVE",
"601 261 OFFCURVE",
"561 125 OFFCURVE",
"489 37 OFFCURVE",
"386 -5 OFFCURVE",
"323 -5 QCURVE",
"260 -5 OFFCURVE",
"157 37 OFFCURVE",
"84 125 OFFCURVE",
"45 261 OFFCURVE",
"45 356 QCURVE",
"45 450 OFFCURVE",
"85 586 OFFCURVE",
"159 675 OFFCURVE",
"261 717 OFFCURVE",
"323 717 QCURVE"
);
}
);
width = 645;
}
);
unicode = 0030;
},
{
color = (166, 255, 153, 255);
glyphname = one;
layers = (
{
layerId = "C190A61C-9222-48AB-B064-ABA42A1AB28F";
paths = (
{
closed = 1;
nodes = (
"303 0 LINE",
"157 0 LINE",
"157 521 LINE",
"13 521 LINE",
"13 621 LINE",
"45 621 OFFCURVE",
"100 632 OFFCURVE",
"124 644 QCURVE",
"145 655 OFFCURVE",
"183 688 OFFCURVE",
"194 708 QCURVE",
"303 708 LINE"
);
}
);
width = 398;
}
);
unicode = 0031;
},
{
color = (166, 255, 153, 255);
glyphname = two;
layers = (
{
layerId = "C190A61C-9222-48AB-B064-ABA42A1AB28F";
paths = (
{
closed = 1;
nodes = (
"213 282 LINE",
"237 302 OFFCURVE",
"286 348 OFFCURVE",
"309 373 QCURVE",
"332 396 OFFCURVE",
"365 450 OFFCURVE",
"366 483 QCURVE",
"368 536 OFFCURVE",
"308 588 OFFCURVE",
"258 587 QCURVE",
"213 586 OFFCURVE",
"158 546 OFFCURVE",
"153 508 QCURVE",
"18 508 LINE",
"20 567 OFFCURVE",
"73 654 OFFCURVE",
"117 680 QCURVE",
"149 699 OFFCURVE",
"225 716 OFFCURVE",
"267 716 QCURVE",
"380 718 OFFCURVE",
"445 656 QCURVE",
"473 630 OFFCURVE",
"507 553 OFFCURVE",
"507 501 QCURVE",
"507 463 OFFCURVE",
"491 395 OFFCURVE",
"472 366 QCURVE",
"460 346 OFFCURVE",
"433 313 OFFCURVE",
"406 285 OFFCURVE",
"375 257 OFFCURVE",
"356 240 QCURVE",
"319 208 OFFCURVE",
"252 154 OFFCURVE",
"222 128 QCURVE",
"499 128 LINE",
"499 0 LINE",
"23 0 LINE",
"23 118 LINE"
);
}
);
width = 545;
}
);
unicode = 0032;
},
{
color = (166, 255, 153, 255);
glyphname = three;
layers = (
{
layerId = "C190A61C-9222-48AB-B064-ABA42A1AB28F";
paths = (
{
closed = 1;
nodes = (
"41 508 LINE",
"46 562 OFFCURVE",
"86 638 OFFCURVE",
"153 692 OFFCURVE",
"242 717 OFFCURVE",
"298 717 QCURVE",
"343 717 OFFCURVE",
"424 698 OFFCURVE",
"491 654 OFFCURVE",
"532 582 OFFCURVE",
"532 530 QCURVE",
"532 486 OFFCURVE",
"488 406 OFFCURVE",
"446 383 QCURVE",
"507 363 OFFCURVE",
"561 269 OFFCURVE",
"559 206 QCURVE",
"557 148 OFFCURVE",
"511 68 OFFCURVE",
"439 17 OFFCURVE",
"345 -7 OFFCURVE",
"294 -7 QCURVE",
"181 -7 OFFCURVE",
"37 95 OFFCURVE",
"21 206 QCURVE",
"164 206 LINE",
"171 181 OFFCURVE",
"198 149 OFFCURVE",
"233 130 OFFCURVE",
"273 123 OFFCURVE",
"294 123 QCURVE",
"318 123 OFFCURVE",
"362 133 OFFCURVE",
"396 155 OFFCURVE",
"416 192 OFFCURVE",
"416 219 QCURVE",
"416 239 OFFCURVE",
"399 273 OFFCURVE",
"385 281 QCURVE",
"367 293 OFFCURVE",
"324 300 OFFCURVE",
"301 300 QCURVE",
"230 300 LINE",
"230 418 LINE",
"278 418 LINE",
"304 418 OFFCURVE",
"346 431 OFFCURVE",
"363 445 QCURVE",
"375 456 OFFCURVE",
"391 485 OFFCURVE",
"391 505 QCURVE",
"391 529 OFFCURVE",
"375 562 OFFCURVE",
"347 581 OFFCURVE",
"309 589 OFFCURVE",
"288 589 QCURVE",
"250 589 OFFCURVE",
"192 550 OFFCURVE",
"183 508 QCURVE"
);
}
);
width = 605;
}
);
unicode = 0033;
},
{
color = (166, 255, 153, 255);
glyphname = four;
layers = (
{
layerId = "C190A61C-9222-48AB-B064-ABA42A1AB28F";
paths = (
{
closed = 1;
nodes = (
"518 257 LINE",
"598 257 LINE",
"598 132 LINE",
"518 132 LINE",
"518 0 LINE",
"376 0 LINE",
"376 132 LINE",
"30 132 LINE",
"30 233 LINE",
"346 708 LINE",
"518 708 LINE"
);
},
{
closed = 1;
nodes = (
"195 257 LINE",
"376 257 LINE",
"376 541 LINE"
);
}
);
width = 623;
}
);
unicode = 0034;
},
{
color = (166, 255, 153, 255);
glyphname = seven;
layers = (
{
layerId = "C190A61C-9222-48AB-B064-ABA42A1AB28F";
paths = (
{
closed = 1;
nodes = (
"68 0 LINE",
"328 579 LINE",
"0 579 LINE",
"0 708 LINE",
"493 708 LINE",
"493 600 LINE",
"230 0 LINE"
);
}
);
width = 504;
}
);
unicode = 0037;
},
{
color = (166, 255, 153, 255);
glyphname = eight;
layers = (
{
layerId = "C190A61C-9222-48AB-B064-ABA42A1AB28F";
paths = (
{
closed = 1;
nodes = (
"570 144 OFFCURVE",
"525 65 OFFCURVE",
"452 15 OFFCURVE",
"359 -8 OFFCURVE",
"310 -8 QCURVE",
"260 -8 OFFCURVE",
"167 15 OFFCURVE",
"94 65 OFFCURVE",
"48 143 OFFCURVE",
"46 199 QCURVE",
"44 261 OFFCURVE",
"97 357 OFFCURVE",
"159 380 QCURVE",
"116 402 OFFCURVE",
"72 482 OFFCURVE",
"72 525 QCURVE",
"72 577 OFFCURVE",
"111 650 OFFCURVE",
"177 697 OFFCURVE",
"264 717 OFFCURVE",
"311 717 QCURVE",
"358 717 OFFCURVE",
"443 695 OFFCURVE",
"508 649 OFFCURVE",
"546 577 OFFCURVE",
"546 525 QCURVE",
"546 482 OFFCURVE",
"501 402 OFFCURVE",
"459 380 QCURVE",
"521 357 OFFCURVE",
"574 261 OFFCURVE",
"572 199 QCURVE"
);
},
{
closed = 1;
nodes = (
"289 593 OFFCURVE",
"254 583 OFFCURVE",
"227 562 OFFCURVE",
"212 529 OFFCURVE",
"212 507 QCURVE",
"213 462 OFFCURVE",
"267 419 OFFCURVE",
"309 419 QCURVE",
"351 419 OFFCURVE",
"404 462 OFFCURVE",
"405 507 QCURVE",
"405 529 OFFCURVE",
"390 562 OFFCURVE",
"364 583 OFFCURVE",
"328 593 OFFCURVE",
"309 593 QCURVE"
);
},
{
closed = 1;
nodes = (
"428 241 OFFCURVE",
"408 277 OFFCURVE",
"374 300 OFFCURVE",
"331 311 OFFCURVE",
"308 311 QCURVE",
"286 311 OFFCURVE",
"243 300 OFFCURVE",
"210 277 OFFCURVE",
"189 240 OFFCURVE",
"189 214 QCURVE",
"189 187 OFFCURVE",
"210 150 OFFCURVE",
"244 127 OFFCURVE",
"287 117 OFFCURVE",
"309 117 QCURVE",
"331 117 OFFCURVE",
"374 127 OFFCURVE",
"407 150 OFFCURVE",
"428 187 OFFCURVE",
"428 214 QCURVE"
);
}
);
width = 618;
}
);
unicode = 0038;
},
{
color = (166, 255, 153, 255);
glyphname = nine;
layers = (
{
layerId = "C190A61C-9222-48AB-B064-ABA42A1AB28F";
paths = (
{
closed = 1;
nodes = (
"251 589 OFFCURVE",
"187 535 OFFCURVE",
"185 484 QCURVE",
"184 457 OFFCURVE",
"201 415 OFFCURVE",
"231 386 OFFCURVE",
"273 371 OFFCURVE",
"298 371 QCURVE",
"343 371 OFFCURVE",
"405 423 OFFCURVE",
"408 468 QCURVE",
"409 490 OFFCURVE",
"396 533 OFFCURVE",
"368 566 OFFCURVE",
"327 587 OFFCURVE",
"300 587 QCURVE"
);
},
{
closed = 1;
nodes = (
"188 189 LINE",
"197 153 OFFCURVE",
"259 120 OFFCURVE",
"294 121 QCURVE",
"332 122 OFFCURVE",
"383 154 OFFCURVE",
"400 180 QCURVE",
"420 208 OFFCURVE",
"436 284 OFFCURVE",
"434 311 QCURVE",
"403 278 OFFCURVE",
"319 247 OFFCURVE",
"274 247 QCURVE",
"221 248 OFFCURVE",
"134 281 OFFCURVE",
"74 341 OFFCURVE",
"42 427 OFFCURVE",
"43 481 QCURVE",
"44 536 OFFCURVE",
"85 623 OFFCURVE",
"155 683 OFFCURVE",
"248 714 OFFCURVE",
"301 714 QCURVE",
"367 713 OFFCURVE",
"464 662 OFFCURVE",
"496 620 QCURVE",
"535 570 OFFCURVE",
"568 440 OFFCURVE",
"570 368 QCURVE",
"572 306 OFFCURVE",
"553 186 OFFCURVE",
"527 135 QCURVE",
"496 73 OFFCURVE",
"385 -5 OFFCURVE",
"297 -7 QCURVE",
"246 -8 OFFCURVE",
"156 20 OFFCURVE",
"122 47 QCURVE",
"93 71 OFFCURVE",
"52 141 OFFCURVE",
"46 189 QCURVE"
);
}
);
width = 615;
}
);
unicode = 0039;
},
{
color = (166, 255, 153, 255);
glyphname = uni0430;
layers = (
{
layerId = "C190A61C-9222-48AB-B064-ABA42A1AB28F";
paths = (
{
closed = 1;
nodes = (
"357 233 OFFCURVE",
"305 233 OFFCURVE",
"279 233 QCURVE",
"264 233 OFFCURVE",
"226 227 OFFCURVE",
"198 211 OFFCURVE",
"179 185 OFFCURVE",
"179 166 QCURVE",
"179 150 OFFCURVE",
"192 126 OFFCURVE",
"213 110 OFFCURVE",
"243 101 OFFCURVE",
"258 101 QCURVE",
"287 100 OFFCURVE",
"338 122 OFFCURVE",
"357 142 QCURVE",
"369 158 OFFCURVE",
"382 199 OFFCURVE",
"382 233 QCURVE"
);
},
{
closed = 1;
nodes = (
"387 65 LINE",
"357 25 OFFCURVE",
"270 -9 OFFCURVE",
"214 -8 QCURVE",
"141 -6 OFFCURVE",
"92 33 QCURVE",
"66 55 OFFCURVE",
"37 116 OFFCURVE",
"37 158 QCURVE",
"38 201 OFFCURVE",
"75 268 OFFCURVE",
"113 290 QCURVE",
"145 307 OFFCURVE",
"226 321 OFFCURVE",
"274 321 QCURVE",
"382 321 LINE",
"385 370 OFFCURVE",
"334 419 OFFCURVE",
"288 420 QCURVE",
"273 420 OFFCURVE",
"241 416 OFFCURVE",
"214 404 OFFCURVE",
"195 383 OFFCURVE",
"192 368 QCURVE",
"47 368 LINE",
"52 416 OFFCURVE",
"95 481 OFFCURVE",
"161 521 OFFCURVE",
"242 538 OFFCURVE",
"285 538 QCURVE",
"309 538 OFFCURVE",
"359 533 OFFCURVE",
"407 518 OFFCURVE",
"450 493 OFFCURVE",
"469 473 QCURVE",
"503 434 OFFCURVE",
"520 333 OFFCURVE",
"519 285 QCURVE",
"519 0 LINE",
"390 0 LINE"
);
}
);
width = 573;
}
);
leftKerningGroup = _kern27;
rightKerningGroup = _kern27;
unicode = 0430;
},
{
color = (166, 255, 153, 255);
glyphname = uni0435;
layers = (
{
layerId = "C190A61C-9222-48AB-B064-ABA42A1AB28F";
paths = (
{
closed = 1;
nodes = (
"326 107 OFFCURVE",
"369 126 OFFCURVE",
"383 148 QCURVE",
"531 148 LINE",
"520 107 OFFCURVE",
"475 47 OFFCURVE",
"412 9 OFFCURVE",
"336 -8 OFFCURVE",
"294 -8 QCURVE",
"166 -8 OFFCURVE",
"35 136 OFFCURVE",
"35 266 QCURVE",
"35 325 OFFCURVE",
"70 425 OFFCURVE",
"134 498 OFFCURVE",
"229 538 OFFCURVE",
"290 538 QCURVE",
"361 538 OFFCURVE",
"465 488 OFFCURVE",
"526 401 OFFCURVE",
"547 285 OFFCURVE",
"536 219 QCURVE",
"176 219 LINE",
"180 172 OFFCURVE",
"238 107 OFFCURVE",
"296 107 QCURVE"
);
},
{
closed = 1;
nodes = (
"405 316 LINE",
"405 341 OFFCURVE",
"387 380 OFFCURVE",
"357 405 OFFCURVE",
"316 417 OFFCURVE",
"294 417 QCURVE",
"241 416 OFFCURVE",
"182 361 OFFCURVE",
"177 316 QCURVE"
);
}
);
width = 577;
}
);
leftKerningGroup = _kern9;
rightKerningGroup = _kern10;
unicode = 0435;
},
{
color = (166, 255, 153, 255);
glyphname = uni043E;
layers = (
{
layerId = "C190A61C-9222-48AB-B064-ABA42A1AB28F";
paths = (
{
closed = 1;
nodes = (
"237 412 OFFCURVE",
"174 328 OFFCURVE",
"174 265 QCURVE",
"174 201 OFFCURVE",
"237 117 OFFCURVE",
"301 117 QCURVE",
"365 117 OFFCURVE",
"426 201 OFFCURVE",
"426 265 QCURVE",
"426 328 OFFCURVE",
"365 412 OFFCURVE",
"301 412 QCURVE"
);
},
{
closed = 1;
nodes = (
"173 -8 OFFCURVE",
"35 137 OFFCURVE",
"35 266 QCURVE",
"35 328 OFFCURVE",
"72 429 OFFCURVE",
"139 501 OFFCURVE",
"238 538 OFFCURVE",
"301 538 QCURVE",
"363 538 OFFCURVE",
"462 501 OFFCURVE",
"531 429 OFFCURVE",
"568 328 OFFCURVE",
"568 266 QCURVE",
"568 136 OFFCURVE",
"429 -8 OFFCURVE",
"301 -8 QCURVE"
);
}
);
width = 603;
}
);
leftKerningGroup = _kern9;
rightKerningGroup = _kern10;
unicode = 043E;
},
{
color = (166, 255, 153, 255);
glyphname = uni0441;
layers = (
{
layerId = "C190A61C-9222-48AB-B064-ABA42A1AB28F";
paths = (
{
closed = 1;
nodes = (
"337 117 OFFCURVE",
"384 155 OFFCURVE",
"389 179 QCURVE",
"537 179 LINE",
"530 128 OFFCURVE",
"486 58 OFFCURVE",
"421 12 OFFCURVE",
"339 -8 OFFCURVE",
"295 -8 QCURVE",
"229 -8 OFFCURVE",
"132 29 OFFCURVE",
"68 100 OFFCURVE",
"35 201 OFFCURVE",
"35 264 QCURVE",
"35 325 OFFCURVE",
"71 427 OFFCURVE",
"138 499 OFFCURVE",
"236 538 OFFCURVE",
"299 538 QCURVE",
"345 538 OFFCURVE",
"426 516 OFFCURVE",
"489 470 OFFCURVE",
"530 399 OFFCURVE",
"537 350 QCURVE",
"389 350 LINE",
"384 374 OFFCURVE",
"335 412 OFFCURVE",
"296 412 QCURVE",
"263 412 OFFCURVE",
"216 388 OFFCURVE",
"187 346 OFFCURVE",
"175 292 OFFCURVE",
"175 262 QCURVE",
"175 198 OFFCURVE",
"230 117 OFFCURVE",
"297 117 QCURVE"
);
}
);
width = 567;
}
);
leftKerningGroup = _kern9;
rightKerningGroup = _kern10;
unicode = 0441;
},
{
color = (166, 255, 153, 255);
glyphname = uni0218;
layers = (
{
layerId = "C190A61C-9222-48AB-B064-ABA42A1AB28F";
paths = (
{
closed = 1;
nodes = (
"439 504 LINE",
"433 549 OFFCURVE",
"365 589 OFFCURVE",
"314 590 QCURVE",
"296 590 OFFCURVE",
"257 583 OFFCURVE",
"223 566 OFFCURVE",
"201 536 OFFCURVE",
"201 514 QCURVE",
"200 491 OFFCURVE",
"225 459 OFFCURVE",
"246 449 QCURVE",
"261 442 OFFCURVE",
"296 431 OFFCURVE",
"330 422 OFFCURVE",
"362 415 OFFCURVE",
"378 412 QCURVE",
"417 404 OFFCURVE",
"497 380 OFFCURVE",
"559 338 OFFCURVE",
"597 268 OFFCURVE",
"598 212 QCURVE",
"598 151 OFFCURVE",
"552 65 OFFCURVE",
"513 39 QCURVE",
"476 13 OFFCURVE",
"378 -10 OFFCURVE",
"319 -8 QCURVE",
"262 -7 OFFCURVE",
"162 22 OFFCURVE",
"85 78 OFFCURVE",
"39 162 OFFCURVE",
"36 219 QCURVE",
"184 219 LINE",
"190 193 OFFCURVE",
"218 159 OFFCURVE",
"256 137 OFFCURVE",
"303 127 OFFCURVE",
"327 126 QCURVE",
"352 125 OFFCURVE",
"398 131 OFFCURVE",
"433 148 OFFCURVE",
"453 178 OFFCURVE",
"453 201 QCURVE",
"453 233 OFFCURVE",
"414 263 OFFCURVE",
"391 269 QCURVE",
"375 273 OFFCURVE",
"350 279 OFFCURVE",
"326 285 OFFCURVE",
"300 292 OFFCURVE",
"282 296 QCURVE",
"245 305 OFFCURVE",
"164 330 OFFCURVE",
"132 353 QCURVE",
"93 380 OFFCURVE",
"54 464 OFFCURVE",
"56 515 QCURVE",
"59 575 OFFCURVE",
"109 654 OFFCURVE",
"187 700 OFFCURVE",
"281 718 OFFCURVE",
"328 717 QCURVE",
"380 716 OFFCURVE",
"469 689 OFFCURVE",
"536 637 OFFCURVE",
"578 557 OFFCURVE",
"583 504 QCURVE"
);
},
{
closed = 1;
nodes = (
"281 -183 OFFCURVE",
"250 -151 OFFCURVE",
"250 -124 QCURVE",
"250 -95 OFFCURVE",
"285 -62 OFFCURVE",
"315 -62 QCURVE",
"333 -62 OFFCURVE",
"361 -76 OFFCURVE",
"379 -100 OFFCURVE",
"386 -130 OFFCURVE",
"386 -146 QCURVE",
"386 -171 OFFCURVE",
"369 -220 OFFCURVE",
"338 -264 OFFCURVE",
"296 -296 OFFCURVE",
"275 -303 QCURVE",
"250 -267 LINE",
"269 -253 OFFCURVE",
"302 -211 OFFCURVE",
"308 -185 QCURVE"
);
}
);
width = 635;
}
);
unicode = 0218;
},
{
color = (166, 255, 153, 255);
glyphname = uni0219;
layers = (
{
layerId = "C190A61C-9222-48AB-B064-ABA42A1AB28F";
paths = (
{
closed = 1;
nodes = (
"243 426 OFFCURVE",
"218 423 OFFCURVE",
"194 412 OFFCURVE",
"181 392 OFFCURVE",
"181 378 QCURVE",
"182 361 OFFCURVE",
"207 341 OFFCURVE",
"230 335 QCURVE",
"253 329 OFFCURVE",
"306 318 OFFCURVE",
"359 306 OFFCURVE",
"408 290 OFFCURVE",
"427 278 QCURVE",
"453 262 OFFCURVE",
"485 207 OFFCURVE",
"486 162 QCURVE",
"487 121 OFFCURVE",
"460 62 OFFCURVE",
"436 41 QCURVE",
"407 15 OFFCURVE",
"326 -8 OFFCURVE",
"281 -8 QCURVE",
"229 -8 OFFCURVE",
"135 14 OFFCURVE",
"99 42 QCURVE",
"73 63 OFFCURVE",
"34 124 OFFCURVE",
"31 167 QCURVE",
"177 167 LINE",
"183 133 OFFCURVE",
"238 107 OFFCURVE",
"276 107 QCURVE",
"287 107 OFFCURVE",
"312 110 OFFCURVE",
"333 119 OFFCURVE",
"348 137 OFFCURVE",
"348 153 QCURVE",
"348 176 OFFCURVE",
"313 197 OFFCURVE",
"292 201 QCURVE",
"270 206 OFFCURVE",
"222 216 OFFCURVE",
"175 226 OFFCURVE",
"131 241 OFFCURVE",
"110 254 QCURVE",
"81 272 OFFCURVE",
"42 332 OFFCURVE",
"45 381 QCURVE",
"47 424 OFFCURVE",
"86 485 OFFCURVE",
"145 522 OFFCURVE",
"220 538 OFFCURVE",
"260 538 QCURVE",
"302 538 OFFCURVE",
"378 520 OFFCURVE",
"435 480 OFFCURVE",
"470 416 OFFCURVE",
"472 370 QCURVE",
"336 370 LINE",
"333 403 OFFCURVE",
"291 425 OFFCURVE",
"261 426 QCURVE"
);
},
{
closed = 1;
nodes = (
"232 -184 OFFCURVE",
"201 -152 OFFCURVE",
"201 -125 QCURVE",
"201 -96 OFFCURVE",
"236 -63 OFFCURVE",
"266 -63 QCURVE",
"284 -63 OFFCURVE",
"312 -77 OFFCURVE",
"330 -101 OFFCURVE",
"337 -131 OFFCURVE",
"337 -147 QCURVE",
"337 -172 OFFCURVE",
"320 -221 OFFCURVE",
"289 -265 OFFCURVE",
"247 -297 OFFCURVE",
"226 -304 QCURVE",
"201 -268 LINE",
"220 -254 OFFCURVE",
"253 -212 OFFCURVE",
"259 -186 QCURVE"
);
}
);
width = 519;
}
);
leftKerningGroup = _kern5;
rightKerningGroup = _kern6;
unicode = 0219;
},
{
color = (166, 255, 153, 255);
glyphname = uni021A;
layers = (
{
layerId = "C190A61C-9222-48AB-B064-ABA42A1AB28F";
paths = (
{
closed = 1;
nodes = (
"6 579 LINE",
"6 708 LINE",
"585 708 LINE",
"585 579 LINE",
"368 579 LINE",
"368 0 LINE",
"223 0 LINE",
"223 579 LINE"
);
},
{
closed = 1;
nodes = (
"259 -183 OFFCURVE",
"228 -151 OFFCURVE",
"228 -124 QCURVE",
"228 -96 OFFCURVE",
"264 -62 OFFCURVE",
"293 -62 QCURVE",
"311 -62 OFFCURVE",
"339 -76 OFFCURVE",
"357 -100 OFFCURVE",
"364 -130 OFFCURVE",
"364 -146 QCURVE",
"364 -171 OFFCURVE",
"347 -220 OFFCURVE",
"316 -264 OFFCURVE",
"275 -294 OFFCURVE",
"254 -301 QCURVE",
"229 -265 LINE",
"248 -251 OFFCURVE",
"280 -211 OFFCURVE",
"286 -185 QCURVE"
);
}
);
width = 591;
}
);
leftKerningGroup = _kern28;
rightKerningGroup = _kern28;
unicode = 021A;
},
{
color = (166, 255, 153, 255);
glyphname = uni021B;
layers = (
{
layerId = "C190A61C-9222-48AB-B064-ABA42A1AB28F";
paths = (
{
closed = 1;
nodes = (
"238 404 LINE",
"238 191 LINE",
"238 123 OFFCURVE",
"307 123 QCURVE",
"359 123 LINE",
"359 0 LINE",
"293 0 LINE",
"188 -4 OFFCURVE",
"97 84 OFFCURVE",
"97 173 QCURVE",
"97 404 LINE",
"17 404 LINE",
"17 527 LINE",
"97 527 LINE",
"97 670 LINE",
"238 670 LINE",
"238 527 LINE",
"364 527 LINE",
"364 404 LINE"
);
},
{
closed = 1;
nodes = (
"183 -184 OFFCURVE",
"152 -152 OFFCURVE",
"152 -125 QCURVE",
"152 -97 OFFCURVE",
"187 -63 OFFCURVE",
"217 -63 QCURVE",
"235 -63 OFFCURVE",
"263 -77 OFFCURVE",
"281 -101 OFFCURVE",
"288 -131 OFFCURVE",
"288 -147 QCURVE",
"288 -172 OFFCURVE",
"271 -221 OFFCURVE",
"240 -265 OFFCURVE",
"198 -297 OFFCURVE",
"177 -304 QCURVE",
"152 -268 LINE",
"171 -254 OFFCURVE",
"204 -212 OFFCURVE",
"210 -186 QCURVE"
);
}
);
width = 391;
}
);
leftKerningGroup = _kern21;
rightKerningGroup = _kern21;
unicode = 021B;
},
{
color = (166, 255, 153, 255);
glyphname = question;
layers = (
{
layerId = "C190A61C-9222-48AB-B064-ABA42A1AB28F";
paths = (
{
closed = 1;
nodes = (
"296 162 OFFCURVE",
"342 114 OFFCURVE",
"342 75 QCURVE",
"342 36 OFFCURVE",
"296 -9 OFFCURVE",
"255 -9 QCURVE",
"214 -9 OFFCURVE",
"167 35 OFFCURVE",
"167 75 QCURVE",
"167 114 OFFCURVE",
"214 162 OFFCURVE",
"255 162 QCURVE"
);
},
{
closed = 1;
nodes = (
"187 223 LINE",
"182 253 OFFCURVE",
"187 298 OFFCURVE",
"202 334 OFFCURVE",
"226 363 OFFCURVE",
"240 378 QCURVE",
"255 394 OFFCURVE",
"290 426 OFFCURVE",
"322 460 OFFCURVE",
"343 497 OFFCURVE",
"344 518 QCURVE",
"345 554 OFFCURVE",
"298 588 OFFCURVE",
"262 589 QCURVE",
"243 590 OFFCURVE",
"208 584 OFFCURVE",
"181 567 OFFCURVE",
"163 537 OFFCURVE",
"162 513 QCURVE",
"26 513 LINE",
"25 558 OFFCURVE",
"63 642 OFFCURVE",
"99 669 QCURVE",
"126 689 OFFCURVE",
"202 716 OFFCURVE",
"262 717 QCURVE",
"304 717 OFFCURVE",
"381 703 OFFCURVE",
"411 683 QCURVE",
"445 661 OFFCURVE",
"486 586 OFFCURVE",
"485 531 QCURVE",
"485 490 OFFCURVE",
"456 428 OFFCURVE",
"429 398 QCURVE",
"409 377 OFFCURVE",
"369 340 OFFCURVE",
"336 299 OFFCURVE",
"315 253 OFFCURVE",
"316 223 QCURVE"
);
}
);
width = 529;
}
);
unicode = 003F;
},
{
color = (166, 255, 153, 255);
glyphname = uni2116;
layers = (
{
layerId = "C190A61C-9222-48AB-B064-ABA42A1AB28F";
paths = (
{
closed = 1;
nodes = (
"188 708 LINE",
"467 240 LINE",
"467 708 LINE",
"610 708 LINE",
"610 0 LINE",
"469 0 LINE",
"190 466 LINE",
"190 0 LINE",
"47 0 LINE",
"47 708 LINE"
);
},
{
closed = 1;
nodes = (
"699 346 LINE",
"1005 346 LINE",
"1005 247 LINE",
"699 247 LINE"
);
},
{
closed = 1;
nodes = (
"812 383 OFFCURVE",
"748 409 OFFCURVE",
"704 455 OFFCURVE",
"682 517 OFFCURVE",
"682 553 QCURVE",
"682 629 OFFCURVE",
"770 723 OFFCURVE",
"854 723 QCURVE",
"937 723 OFFCURVE",
"1024 628 OFFCURVE",
"1024 553 QCURVE",
"1024 517 OFFCURVE",
"1002 455 OFFCURVE",
"959 409 OFFCURVE",
"895 383 OFFCURVE",
"854 383 QCURVE"
);
},
{
closed = 1;
nodes = (
"819 620 OFFCURVE",
"790 581 OFFCURVE",
"790 553 QCURVE",
"790 524 OFFCURVE",
"819 486 OFFCURVE",
"854 486 QCURVE",
"888 486 OFFCURVE",
"916 524 OFFCURVE",
"916 553 QCURVE",
"916 581 OFFCURVE",
"888 620 OFFCURVE",
"854 620 QCURVE"
);
}
);
width = 1071;
}
);
unicode = 2116;
},
{
color = (166, 255, 153, 255);
glyphname = uni0401;
layers = (
{
layerId = "C190A61C-9222-48AB-B064-ABA42A1AB28F";
paths = (
{
closed = 1;
nodes = (
"581 708 LINE",
"581 579 LINE",
"220 579 LINE",
"220 414 LINE",
"535 414 LINE",
"535 285 LINE",
"220 285 LINE",
"220 128 LINE",
"581 128 LINE",
"581 0 LINE",
"75 0 LINE",
"75 708 LINE"
);
},
{
closed = 1;
nodes = (
"250 931 OFFCURVE",
"298 887 OFFCURVE",
"298 849 QCURVE",
"298 811 OFFCURVE",
"250 766 OFFCURVE",
"212 766 QCURVE",
"174 766 OFFCURVE",
"126 811 OFFCURVE",
"126 849 QCURVE",
"126 887 OFFCURVE",
"174 931 OFFCURVE",
"212 931 QCURVE"
);
},
{
closed = 1;
nodes = (
"492 931 OFFCURVE",
"540 887 OFFCURVE",
"540 849 QCURVE",
"540 811 OFFCURVE",
"492 766 OFFCURVE",
"454 766 QCURVE",
"415 766 OFFCURVE",
"367 811 OFFCURVE",
"367 849 QCURVE",
"367 887 OFFCURVE",
"415 931 OFFCURVE",
"454 931 QCURVE"
);
}
);
width = 617;
}
);
unicode = 0401;
},
{
color = (166, 255, 153, 255);
glyphname = asciitilde;
layers = (
{
layerId = "C190A61C-9222-48AB-B064-ABA42A1AB28F";
paths = (
{
closed = 1;
nodes = (
"76 244 LINE",
"74 284 OFFCURVE",
"85 364 OFFCURVE",
"119 428 OFFCURVE",
"184 469 OFFCURVE",
"237 470 QCURVE",
"279 471 OFFCURVE",
"342 436 OFFCURVE",
"390 394 OFFCURVE",
"426 359 OFFCURVE",
"441 360 QCURVE",
"455 360 OFFCURVE",
"468 387 OFFCURVE",
"472 422 OFFCURVE",
"470 457 OFFCURVE",
"470 466 QCURVE",
"606 466 LINE",
"607 425 OFFCURVE",
"597 346 OFFCURVE",
"561 281 OFFCURVE",
"496 240 OFFCURVE",
"443 239 QCURVE",
"402 238 OFFCURVE",
"340 273 OFFCURVE",
"293 315 OFFCURVE",
"257 350 OFFCURVE",
"241 349 QCURVE",
"227 349 OFFCURVE",
"214 322 OFFCURVE",
"210 287 OFFCURVE",
"212 252 OFFCURVE",
"212 244 QCURVE"
);
}
);
width = 682;
}
);
unicode = 007E;
},
{
color = (166, 255, 153, 255);
glyphname = trademark;
layers = (
{
layerId = "C190A61C-9222-48AB-B064-ABA42A1AB28F";
paths = (
{
closed = 1;
nodes = (
"147 620 LINE",
"47 620 LINE",
"47 708 LINE",
"342 708 LINE",
"342 620 LINE",
"241 620 LINE",
"241 397 LINE",
"147 397 LINE"
);
},
{
closed = 1;
nodes = (
"463 561 LINE",
"463 397 LINE",
"369 397 LINE",
"369 708 LINE",
"463 708 LINE",
"544 578 LINE",
"625 708 LINE",
"718 708 LINE",
"718 397 LINE",
"625 397 LINE",
"625 561 LINE",
"559 456 LINE",
"530 456 LINE"
);
}
);
width = 765;
}
);
unicode = 2122;
},
{
color = (166, 255, 153, 255);
glyphname = registered;
layers = (
{
layerId = "C190A61C-9222-48AB-B064-ABA42A1AB28F";
paths = (
{
closed = 1;
nodes = (
"275 733 OFFCURVE",
"346 707 OFFCURVE",
"397 657 OFFCURVE",
"425 584 OFFCURVE",
"425 538 QCURVE",
"425 492 OFFCURVE",
"397 421 OFFCURVE",
"346 373 OFFCURVE",
"275 348 OFFCURVE",
"233 348 QCURVE",
"190 348 OFFCURVE",
"119 373 OFFCURVE",
"68 421 OFFCURVE",
"40 492 OFFCURVE",
"40 538 QCURVE",
"40 584 OFFCURVE",
"69 657 OFFCURVE",
"120 707 OFFCURVE",
"191 733 OFFCURVE",
"233 733 QCURVE"
);
},
{
closed = 1;
nodes = (
"171 683 OFFCURVE",
"93 607 OFFCURVE",
"93 538 QCURVE",
"93 470 OFFCURVE",
"170 399 OFFCURVE",
"233 399 QCURVE",
"295 399 OFFCURVE",
"372 470 OFFCURVE",
"372 538 QCURVE",
"372 607 OFFCURVE",
"295 683 OFFCURVE",
"233 683 QCURVE"
);
},
{
closed = 1;
nodes = (
"326 446 LINE",
"271 446 LINE",
"224 514 LINE",
"204 514 LINE",
"204 446 LINE",
"158 446 LINE",
"158 643 LINE",
"240 643 LINE",
"261 643 OFFCURVE",
"290 633 OFFCURVE",
"299 622 QCURVE",
"312 608 OFFCURVE",
"312 579 QCURVE",
"312 559 OFFCURVE",
"294 528 OFFCURVE",
"275 520 QCURVE"
);
},
{
closed = 1;
nodes = (
"204 600 LINE",
"204 555 LINE",
"236 555 LINE",
"248 555 OFFCURVE",
"266 564 OFFCURVE",
"266 578 QCURVE",
"267 593 OFFCURVE",
"249 600 OFFCURVE",
"237 600 QCURVE"
);
}
);
width = 465;
}
);
unicode = 00AE;
},
{
color = (166, 255, 153, 255);
glyphname = degree;
layers = (
{
layerId = "C190A61C-9222-48AB-B064-ABA42A1AB28F";
paths = (
{
closed = 1;
nodes = (
"272 757 OFFCURVE",
"358 673 OFFCURVE",
"358 598 QCURVE",
"358 523 OFFCURVE",
"272 445 OFFCURVE",
"203 445 QCURVE",
"134 445 OFFCURVE",
"47 523 OFFCURVE",
"47 598 QCURVE",
"47 635 OFFCURVE",
"70 694 OFFCURVE",
"112 735 OFFCURVE",
"169 757 OFFCURVE",
"203 757 QCURVE"
);
},
{
closed = 1;
nodes = (
"174 670 OFFCURVE",
"136 633 OFFCURVE",
"136 599 QCURVE",
"136 566 OFFCURVE",
"173 531 OFFCURVE",
"203 531 QCURVE",
"232 531 OFFCURVE",
"269 566 OFFCURVE",
"269 599 QCURVE",
"269 633 OFFCURVE",
"232 670 OFFCURVE",
"203 670 QCURVE"
);
}
);
width = 405;
}
);
unicode = 00B0;
},
{
color = (166, 255, 153, 255);
glyphname = bullet;
layers = (
{
layerId = "C190A61C-9222-48AB-B064-ABA42A1AB28F";
paths = (
{
closed = 1;
nodes = (
"253 507 OFFCURVE",
"333 432 OFFCURVE",
"333 363 QCURVE",
"333 294 OFFCURVE",
"253 222 OFFCURVE",
"191 222 QCURVE",
"128 222 OFFCURVE",
"47 294 OFFCURVE",
"47 363 QCURVE",
"47 432 OFFCURVE",
"128 507 OFFCURVE",
"191 507 QCURVE"
);
}
);
width = 380;
}
);
unicode = 2022;
},
{
color = (166, 255, 153, 255);
glyphname = uni27F5;
layers = (
{
layerId = "C190A61C-9222-48AB-B064-ABA42A1AB28F";
paths = (
{
closed = 1;
nodes = (
"481 501 LINE",
"283 330 LINE",
"1350 330 LINE",
"1350 211 LINE",
"283 211 LINE",
"481 39 LINE",
"406 -55 LINE",
"47 271 LINE",
"406 597 LINE"
);
}
);
width = 1397;
}
);
unicode = 27F5;
},
{
color = (166, 255, 153, 255);
glyphname = uni27F6;
layers = (
{
layerId = "C190A61C-9222-48AB-B064-ABA42A1AB28F";
paths = (
{
closed = 1;
nodes = (
"990 597 LINE",
"1350 271 LINE",
"990 -55 LINE",
"915 39 LINE",
"1113 211 LINE",
"47 211 LINE",
"47 330 LINE",
"1113 330 LINE",
"915 501 LINE"
);
}
);
width = 1397;
}
);
unicode = 27F6;
},
{
color = (166, 255, 153, 255);
glyphname = arrowup;
layers = (
{
layerId = "C190A61C-9222-48AB-B064-ABA42A1AB28F";
paths = (
{
closed = 1;
nodes = (
"47 310 LINE",
"373 670 LINE",
"699 310 LINE",
"604 235 LINE",
"432 434 LINE",
"432 0 LINE",
"314 0 LINE",
"314 434 LINE",
"142 235 LINE"
);
}
);
width = 746;
}
);
unicode = 2191;
},
{
color = (166, 255, 153, 255);
glyphname = arrowdown;
layers = (
{
layerId = "C190A61C-9222-48AB-B064-ABA42A1AB28F";
paths = (
{
closed = 1;
nodes = (
"142 435 LINE",
"314 236 LINE",
"314 670 LINE",
"432 670 LINE",
"432 236 LINE",
"604 435 LINE",
"699 359 LINE",
"373 0 LINE",
"47 359 LINE"
);
}
);
width = 746;
}
);
unicode = 2193;
},
{
color = (166, 255, 153, 255);
glyphname = uni21BA;
layers = (
{
layerId = "C190A61C-9222-48AB-B064-ABA42A1AB28F";
paths = (
{
closed = 1;
nodes = (
"721 634 LINE",
"759 600 OFFCURVE",
"821 504 OFFCURVE",
"835 452 QCURVE",
"862 352 OFFCURVE",
"829 177 OFFCURVE",
"728 45 OFFCURVE",
"570 -34 OFFCURVE",
"472 -39 QCURVE",
"380 -44 OFFCURVE",
"226 11 OFFCURVE",
"114 116 OFFCURVE",
"50 266 OFFCURVE",
"49 356 QCURVE",
"47 449 OFFCURVE",
"131 617 OFFCURVE",
"212 677 QCURVE",
"297 581 LINE",
"238 536 OFFCURVE",
"183 414 OFFCURVE",
"184 351 QCURVE",
"184 298 OFFCURVE",
"222 201 OFFCURVE",
"293 127 OFFCURVE",
"394 84 OFFCURVE",
"458 86 QCURVE",
"523 89 OFFCURVE",
"631 144 OFFCURVE",
"701 236 OFFCURVE",
"726 354 OFFCURVE",
"708 420 QCURVE",
"697 462 OFFCURVE",
"653 534 OFFCURVE",
"622 560 QCURVE",
"625 369 LINE",
"513 369 LINE",
"513 766 LINE",
"923 719 LINE",
"905 607 LINE"
);
}
);
width = 970;
}
);
unicode = 21BA;
},
{
color = (166, 255, 153, 255);
glyphname = uni21BB;
layers = (
{
layerId = "C190A61C-9222-48AB-B064-ABA42A1AB28F";
paths = (
{
closed = 1;
nodes = (
"66 607 LINE",
"47 719 LINE",
"457 766 LINE",
"457 369 LINE",
"345 369 LINE",
"348 560 LINE",
"317 534 OFFCURVE",
"273 462 OFFCURVE",
"262 420 QCURVE",
"244 354 OFFCURVE",
"269 236 OFFCURVE",
"339 144 OFFCURVE",
"447 89 OFFCURVE",
"513 86 QCURVE",
"576 84 OFFCURVE",
"678 127 OFFCURVE",
"748 201 OFFCURVE",
"787 298 OFFCURVE",
"787 351 QCURVE",
"787 414 OFFCURVE",
"732 536 OFFCURVE",
"673 581 QCURVE",
"758 677 LINE",
"839 617 OFFCURVE",
"922 449 OFFCURVE",
"921 356 QCURVE",
"920 266 OFFCURVE",
"856 116 OFFCURVE",
"744 11 OFFCURVE",
"590 -44 OFFCURVE",
"499 -39 QCURVE",
"401 -34 OFFCURVE",
"242 45 OFFCURVE",
"141 177 OFFCURVE",
"108 352 OFFCURVE",
"135 452 QCURVE",
"149 504 OFFCURVE",
"211 600 OFFCURVE",
"249 634 QCURVE"
);
}
);
width = 970;
}
);
unicode = 21BB;
},
{
color = (166, 255, 153, 255);
glyphname = uni21B7;
layers = (
{
layerId = "C190A61C-9222-48AB-B064-ABA42A1AB28F";
paths = (
{
closed = 1;
nodes = (
"951 216 LINE",
"998 113 LINE",
"616 -39 LINE",
"506 354 LINE",
"614 377 LINE",
"663 188 LINE",
"686 221 OFFCURVE",
"710 301 OFFCURVE",
"710 345 QCURVE",
"710 402 OFFCURVE",
"670 499 OFFCURVE",
"600 569 OFFCURVE",
"502 608 OFFCURVE",
"445 608 QCURVE",
"389 608 OFFCURVE",
"293 570 OFFCURVE",
"222 502 OFFCURVE",
"180 409 OFFCURVE",
"178 354 QCURVE",
"47 354 LINE",
"49 436 OFFCURVE",
"108 575 OFFCURVE",
"213 677 OFFCURVE",
"357 734 OFFCURVE",
"445 734 QCURVE",
"535 734 OFFCURVE",
"681 677 OFFCURVE",
"784 574 OFFCURVE",
"841 432 OFFCURVE",
"841 348 QCURVE",
"841 294 OFFCURVE",
"811 192 OFFCURVE",
"783 146 QCURVE"
);
}
);
width = 1045;
}
);
unicode = 21B7;
},
{
color = (166, 255, 153, 255);
glyphname = uni21B6;
layers = (
{
layerId = "C190A61C-9222-48AB-B064-ABA42A1AB28F";
paths = (
{
closed = 1;
nodes = (
"262 146 LINE",
"234 192 OFFCURVE",
"204 294 OFFCURVE",
"204 348 QCURVE",
"204 432 OFFCURVE",
"261 574 OFFCURVE",
"365 677 OFFCURVE",
"511 734 OFFCURVE",
"601 734 QCURVE",
"688 734 OFFCURVE",
"833 677 OFFCURVE",
"937 575 OFFCURVE",
"996 436 OFFCURVE",
"998 354 QCURVE",
"867 354 LINE",
"865 409 OFFCURVE",
"823 502 OFFCURVE",
"752 570 OFFCURVE",
"656 608 OFFCURVE",
"601 608 QCURVE",
"543 608 OFFCURVE",
"446 569 OFFCURVE",
"375 499 OFFCURVE",
"335 402 OFFCURVE",
"335 345 QCURVE",
"335 301 OFFCURVE",
"359 221 OFFCURVE",
"382 188 QCURVE",
"431 377 LINE",
"540 354 LINE",
"430 -39 LINE",
"47 113 LINE",
"94 216 LINE"
);
}
);
width = 1045;
}
);
unicode = 21B6;
},
{
color = (166, 255, 153, 255);
glyphname = five;
layers = (
{
layerId = "C190A61C-9222-48AB-B064-ABA42A1AB28F";
paths = (
{
closed = 1;
nodes = (
"60 304 LINE",
"105 708 LINE",
"535 708 LINE",
"535 582 LINE",
"222 582 LINE",
"202 436 LINE",
"236 453 OFFCURVE",
"297 468 OFFCURVE",
"337 467 QCURVE",
"389 466 OFFCURVE",
"474 434 OFFCURVE",
"534 374 OFFCURVE",
"566 291 OFFCURVE",
"566 239 QCURVE",
"566 181 OFFCURVE",
"526 89 OFFCURVE",
"491 57 QCURVE",
"454 25 OFFCURVE",
"361 -7 OFFCURVE",
"301 -7 QCURVE",
"192 -7 OFFCURVE",
"62 93 OFFCURVE",
"50 206 QCURVE",
"193 206 LINE",
"202 163 OFFCURVE",
"261 125 OFFCURVE",
"298 123 QCURVE",
"351 121 OFFCURVE",
"419 175 OFFCURVE",
"420 233 QCURVE",
"421 290 OFFCURVE",
"353 348 OFFCURVE",
"301 346 QCURVE",
"270 345 OFFCURVE",
"217 323 OFFCURVE",
"197 304 QCURVE"
);
}
);
width = 608;
}
);
unicode = 0035;
},
{
color = (166, 255, 153, 255);
glyphname = six;
layers = (
{
layerId = "C190A61C-9222-48AB-B064-ABA42A1AB28F";
paths = (
{
closed = 1;
nodes = (
"338 121 OFFCURVE",
"380 135 OFFCURVE",
"410 162 OFFCURVE",
"428 201 OFFCURVE",
"429 224 QCURVE",
"431 278 OFFCURVE",
"369 339 OFFCURVE",
"317 338 QCURVE",
"272 337 OFFCURVE",
"211 286 OFFCURVE",
"207 241 QCURVE",
"205 218 OFFCURVE",
"218 176 OFFCURVE",
"246 143 OFFCURVE",
"287 123 OFFCURVE",
"314 122 QCURVE"
);
},
{
closed = 1;
nodes = (
"432 520 LINE",
"423 557 OFFCURVE",
"365 589 OFFCURVE",
"330 588 QCURVE",
"294 587 OFFCURVE",
"238 553 OFFCURVE",
"201 499 OFFCURVE",
"182 432 OFFCURVE",
"183 398 QCURVE",
"215 430 OFFCURVE",
"298 462 OFFCURVE",
"343 462 QCURVE",
"452 461 OFFCURVE",
"571 339 OFFCURVE",
"572 232 QCURVE",
"572 178 OFFCURVE",
"528 86 OFFCURVE",
"494 56 QCURVE",
"459 25 OFFCURVE",
"367 -7 OFFCURVE",
"313 -5 QCURVE",
"239 -4 OFFCURVE",
"137 56 OFFCURVE",
"74 152 OFFCURVE",
"47 274 OFFCURVE",
"47 338 QCURVE",
"46 415 OFFCURVE",
"85 569 OFFCURVE",
"131 623 QCURVE",
"164 665 OFFCURVE",
"263 715 OFFCURVE",
"330 716 QCURVE",
"381 717 OFFCURVE",
"467 692 OFFCURVE",
"499 665 QCURVE",
"529 641 OFFCURVE",
"568 569 OFFCURVE",
"573 520 QCURVE"
);
}
);
width = 615;
}
);
unicode = 0036;
},
{
color = (166, 255, 153, 255);
glyphname = dieresis;
layers = (
{
layerId = "C190A61C-9222-48AB-B064-ABA42A1AB28F";
paths = (
{
closed = 1;
nodes = (
"220 759 OFFCURVE",
"268 714 OFFCURVE",
"268 676 QCURVE",
"268 636 OFFCURVE",
"220 591 OFFCURVE",
"182 591 QCURVE",
"143 591 OFFCURVE",
"95 636 OFFCURVE",
"95 676 QCURVE",
"95 714 OFFCURVE",
"143 759 OFFCURVE",
"182 759 QCURVE"
);
},
{
closed = 1;
nodes = (
"481 759 OFFCURVE",
"530 714 OFFCURVE",
"530 676 QCURVE",
"530 636 OFFCURVE",
"481 591 OFFCURVE",
"443 591 QCURVE",
"405 591 OFFCURVE",
"357 636 OFFCURVE",
"357 676 QCURVE",
"357 714 OFFCURVE",
"405 759 OFFCURVE",
"443 759 QCURVE"
);
}
);
width = 625;
}
);
unicode = 00A8;
},
{
color = (248, 153, 255, 255);
glyphname = cedilla;
layers = (
{
layerId = "C190A61C-9222-48AB-B064-ABA42A1AB28F";
paths = (
{
closed = 1;
nodes = (
"330 18 LINE",
"310 -42 LINE",
"359 -35 OFFCURVE",
"421 -86 OFFCURVE",
"419 -137 QCURVE",
"417 -175 OFFCURVE",
"376 -230 OFFCURVE",
"347 -243 QCURVE",
"322 -255 OFFCURVE",
"252 -260 OFFCURVE",
"205 -255 QCURVE",
"206 -175 LINE",
"240 -179 OFFCURVE",
"282 -177 OFFCURVE",
"306 -167 OFFCURVE",
"316 -151 OFFCURVE",
"316 -141 QCURVE",
"316 -122 OFFCURVE",
"287 -106 OFFCURVE",
"264 -105 QCURVE",
"249 -104 OFFCURVE",
"218 -105 OFFCURVE",
"207 -106 QCURVE",
"244 18 LINE"
);
}
);
width = 609;
}
);
unicode = 00B8;
},
{
color = (166, 255, 153, 255);
glyphname = dotlessi;
layers = (
{
layerId = "C190A61C-9222-48AB-B064-ABA42A1AB28F";
paths = (
{
closed = 1;
nodes = (
"197 0 LINE",
"56 0 LINE",
"56 527 LINE",
"197 527 LINE"
);
}
);
width = 253;
}
);
unicode = 0131;
},
{
color = (166, 255, 153, 255);
glyphname = ccedilla;
layers = (
{
layerId = "C190A61C-9222-48AB-B064-ABA42A1AB28F";
paths = (
{
closed = 1;
nodes = (
"334 117 OFFCURVE",
"381 155 OFFCURVE",
"386 179 QCURVE",
"534 179 LINE",
"528 133 OFFCURVE",
"491 67 OFFCURVE",
"435 21 OFFCURVE",
"366 -3 OFFCURVE",
"327 -6 QCURVE",
"316 -43 LINE",
"366 -36 OFFCURVE",
"429 -88 OFFCURVE",
"427 -141 QCURVE",
"425 -181 OFFCURVE",
"384 -237 OFFCURVE",
"355 -249 QCURVE",
"328 -263 OFFCURVE",
"265 -268 OFFCURVE",
"210 -263 QCURVE",
"211 -181 LINE",
"245 -185 OFFCURVE",
"288 -182 OFFCURVE",
"312 -172 OFFCURVE",
"322 -156 OFFCURVE",
"322 -145 QCURVE",
"323 -125 OFFCURVE",
"290 -109 OFFCURVE",
"268 -109 QCURVE",
"253 -108 OFFCURVE",
"223 -109 OFFCURVE",
"212 -109 QCURVE",
"240 -5 LINE",
"135 9 OFFCURVE",
"32 150 OFFCURVE",
"32 264 QCURVE",
"32 325 OFFCURVE",
"68 427 OFFCURVE",
"135 499 OFFCURVE",
"233 538 OFFCURVE",
"296 538 QCURVE",
"342 538 OFFCURVE",
"423 516 OFFCURVE",
"486 470 OFFCURVE",
"527 399 OFFCURVE",
"534 350 QCURVE",
"386 350 LINE",
"381 374 OFFCURVE",
"332 412 OFFCURVE",
"293 412 QCURVE",
"260 412 OFFCURVE",
"212 388 OFFCURVE",
"184 346 OFFCURVE",
"172 292 OFFCURVE",
"172 262 QCURVE",
"172 230 OFFCURVE",
"186 177 OFFCURVE",
"214 138 OFFCURVE",
"261 117 OFFCURVE",
"294 117 QCURVE"
);
}
);
width = 564;
}
);
leftKerningGroup = _kern5;
rightKerningGroup = _kern6;
unicode = 00E7;
},
{
color = (166, 255, 153, 255);
glyphname = uni0162;
layers = (
{
layerId = "C190A61C-9222-48AB-B064-ABA42A1AB28F";
paths = (
{
closed = 1;
nodes = (
"6 579 LINE",
"6 708 LINE",
"595 708 LINE",
"595 579 LINE",
"373 579 LINE",
"373 0 LINE",
"343 0 LINE",
"330 -42 LINE",
"379 -35 OFFCURVE",
"441 -86 OFFCURVE",
"440 -137 QCURVE",
"438 -175 OFFCURVE",
"397 -230 OFFCURVE",
"368 -243 QCURVE",
"342 -255 OFFCURVE",
"279 -260 OFFCURVE",
"225 -255 QCURVE",
"226 -175 LINE",
"260 -179 OFFCURVE",
"303 -178 OFFCURVE",
"327 -167 OFFCURVE",
"336 -151 OFFCURVE",
"336 -141 QCURVE",
"336 -121 OFFCURVE",
"308 -105 OFFCURVE",
"280 -104 QCURVE",
"264 -104 OFFCURVE",
"238 -105 OFFCURVE",
"227 -106 QCURVE",
"257 0 LINE",
"228 0 LINE",
"228 579 LINE"
);
}
);
width = 601;
}
);
leftKerningGroup = _kern28;
rightKerningGroup = _kern28;
unicode = 0162;
},
{
color = (166, 255, 153, 255);
glyphname = uni0163;
layers = (
{
layerId = "C190A61C-9222-48AB-B064-ABA42A1AB28F";
paths = (
{
closed = 1;
nodes = (
"238 404 LINE",
"238 191 LINE",
"238 123 OFFCURVE",
"307 123 QCURVE",
"359 123 LINE",
"359 0 LINE",
"293 0 LINE",
"270 0 LINE",
"257 -43 LINE",
"306 -36 OFFCURVE",
"370 -88 OFFCURVE",
"368 -141 QCURVE",
"366 -181 OFFCURVE",
"324 -237 OFFCURVE",
"295 -251 QCURVE",
"283 -257 OFFCURVE",
"255 -264 OFFCURVE",
"220 -267 OFFCURVE",
"179 -266 OFFCURVE",
"152 -263 QCURVE",
"152 -181 LINE",
"186 -185 OFFCURVE",
"229 -182 OFFCURVE",
"254 -172 OFFCURVE",
"263 -156 OFFCURVE",
"263 -145 QCURVE",
"263 -126 OFFCURVE",
"231 -109 OFFCURVE",
"209 -108 QCURVE",
"193 -107 OFFCURVE",
"164 -108 OFFCURVE",
"153 -109 QCURVE",
"187 14 LINE",
"138 31 OFFCURVE",
"97 111 OFFCURVE",
"97 173 QCURVE",
"97 404 LINE",
"17 404 LINE",
"17 527 LINE",
"97 527 LINE",
"97 670 LINE",
"238 670 LINE",
"238 527 LINE",
"364 527 LINE",
"364 404 LINE"
);
}
);
width = 396;
}
);
leftKerningGroup = _kern21;
rightKerningGroup = _kern21;
unicode = 0163;
},
{
color = (166, 255, 153, 255);
glyphname = Ccedilla;
layers = (
{
layerId = "C190A61C-9222-48AB-B064-ABA42A1AB28F";
paths = (
{
closed = 1;
nodes = (
"185 311 OFFCURVE",
"208 227 OFFCURVE",
"255 163 OFFCURVE",
"328 124 OFFCURVE",
"379 124 QCURVE",
"443 124 OFFCURVE",
"526 181 OFFCURVE",
"536 232 QCURVE",
"676 232 LINE",
"671 177 OFFCURVE",
"625 93 OFFCURVE",
"553 34 OFFCURVE",
"460 0 OFFCURVE",
"409 -4 QCURVE",
"399 -40 LINE",
"448 -33 OFFCURVE",
"510 -84 OFFCURVE",
"508 -135 QCURVE",
"506 -173 OFFCURVE",
"465 -228 OFFCURVE",
"437 -240 QCURVE",
"411 -253 OFFCURVE",
"348 -258 OFFCURVE",
"294 -253 QCURVE",
"295 -174 LINE",
"329 -177 OFFCURVE",
"371 -175 OFFCURVE",
"395 -165 OFFCURVE",
"405 -149 OFFCURVE",
"405 -139 QCURVE",
"405 -120 OFFCURVE",
"379 -104 OFFCURVE",
"351 -103 QCURVE",
"338 -102 OFFCURVE",
"306 -104 OFFCURVE",
"296 -104 QCURVE",
"324 -3 LINE",
"254 5 OFFCURVE",
"146 65 OFFCURVE",
"73 159 OFFCURVE",
"36 283 OFFCURVE",
"36 355 QCURVE",
"36 432 OFFCURVE",
"81 565 OFFCURVE",
"169 663 OFFCURVE",
"296 717 OFFCURVE",
"379 717 QCURVE",
"437 717 OFFCURVE",
"539 689 OFFCURVE",
"619 631 OFFCURVE",
"670 540 OFFCURVE",
"676 477 QCURVE",
"536 477 LINE",
"525 528 OFFCURVE",
"443 588 OFFCURVE",
"379 588 QCURVE",
"328 588 OFFCURVE",
"255 550 OFFCURVE",
"208 485 OFFCURVE",
"185 401 OFFCURVE",
"185 356 QCURVE"
);
}
);
width = 712;
}
);
leftKerningGroup = _kern3;
rightKerningGroup = _kern4;
unicode = 00C7;
},
{
color = (166, 255, 153, 255);
glyphname = scedilla;
layers = (
{
layerId = "C190A61C-9222-48AB-B064-ABA42A1AB28F";
paths = (
{
closed = 1;
nodes = (
"243 425 OFFCURVE",
"216 422 OFFCURVE",
"194 412 OFFCURVE",
"180 393 OFFCURVE",
"181 378 QCURVE",
"182 361 OFFCURVE",
"207 341 OFFCURVE",
"230 335 QCURVE",
"253 329 OFFCURVE",
"306 318 OFFCURVE",
"359 306 OFFCURVE",
"408 290 OFFCURVE",
"427 278 QCURVE",
"453 262 OFFCURVE",
"485 207 OFFCURVE",
"486 162 QCURVE",
"487 121 OFFCURVE",
"460 62 OFFCURVE",
"436 41 QCURVE",
"410 17 OFFCURVE",
"337 -6 OFFCURVE",
"295 -8 QCURVE",
"284 -46 LINE",
"333 -39 OFFCURVE",
"396 -91 OFFCURVE",
"394 -142 QCURVE",
"392 -181 OFFCURVE",
"350 -236 OFFCURVE",
"322 -250 QCURVE",
"296 -262 OFFCURVE",
"232 -267 OFFCURVE",
"178 -262 QCURVE",
"179 -181 LINE",
"213 -185 OFFCURVE",
"256 -183 OFFCURVE",
"280 -173 OFFCURVE",
"290 -157 OFFCURVE",
"290 -146 QCURVE",
"290 -127 OFFCURVE",
"261 -111 OFFCURVE",
"234 -110 QCURVE",
"216 -110 OFFCURVE",
"194 -110 OFFCURVE",
"180 -111 QCURVE",
"210 -3 LINE",
"179 2 OFFCURVE",
"122 24 OFFCURVE",
"99 42 QCURVE",
"73 63 OFFCURVE",
"34 124 OFFCURVE",
"31 167 QCURVE",
"177 167 LINE",
"183 133 OFFCURVE",
"238 107 OFFCURVE",
"276 107 QCURVE",
"287 107 OFFCURVE",
"312 110 OFFCURVE",
"333 119 OFFCURVE",
"348 137 OFFCURVE",
"348 153 QCURVE",
"348 176 OFFCURVE",
"312 196 OFFCURVE",
"292 201 QCURVE",
"270 207 OFFCURVE",
"222 216 OFFCURVE",
"175 226 OFFCURVE",
"129 241 OFFCURVE",
"110 254 QCURVE",
"81 272 OFFCURVE",
"42 332 OFFCURVE",
"45 381 QCURVE",
"47 424 OFFCURVE",
"86 485 OFFCURVE",
"145 522 OFFCURVE",
"220 538 OFFCURVE",
"260 538 QCURVE",
"302 538 OFFCURVE",
"378 520 OFFCURVE",
"435 480 OFFCURVE",
"470 416 OFFCURVE",
"472 370 QCURVE",
"336 370 LINE",
"333 404 OFFCURVE",
"287 425 OFFCURVE",
"259 425 QCURVE"
);
}
);
width = 519;
}
);
leftKerningGroup = _kern5;
rightKerningGroup = _kern6;
unicode = 015F;
},
{
color = (166, 255, 153, 255);
glyphname = uni21A9;
layers = (
{
layerId = "C190A61C-9222-48AB-B064-ABA42A1AB28F";
paths = (
{
closed = 1;
nodes = (
"164 555 LINE",
"164 673 LINE",
"805 673 LINE",
"875 673 OFFCURVE",
"994 620 OFFCURVE",
"1080 528 OFFCURVE",
"1129 406 OFFCURVE",
"1129 336 QCURVE",
"1129 266 OFFCURVE",
"1080 144 OFFCURVE",
"993 53 OFFCURVE",
"874 0 OFFCURVE",
"805 0 QCURVE",
"282 0 LINE",
"480 -173 LINE",
"406 -267 LINE",
"47 59 LINE",
"406 385 LINE",
"480 290 LINE",
"282 118 LINE",
"794 118 LINE",
"839 118 OFFCURVE",
"917 152 OFFCURVE",
"974 212 OFFCURVE",
"1006 292 OFFCURVE",
"1006 338 QCURVE",
"1006 383 OFFCURVE",
"973 462 OFFCURVE",
"916 521 OFFCURVE",
"839 555 OFFCURVE",
"794 555 QCURVE"
);
}
);
width = 1176;
}
);
unicode = 21A9;
},
{
color = (166, 255, 153, 255);
glyphname = uni2713;
layers = (
{
layerId = "C190A61C-9222-48AB-B064-ABA42A1AB28F";
paths = (
{
closed = 1;
nodes = (
"392 189 LINE",
"933 825 LINE",
"1026 731 LINE",
"392 -13 LINE",
"47 372 LINE",
"140 466 LINE"
);
}
);
width = 1073;
}
);
unicode = 2713;
},
{
color = (166, 255, 153, 255);
glyphname = divide;
layers = (
{
layerId = "C190A61C-9222-48AB-B064-ABA42A1AB28F";
paths = (
{
closed = 1;
nodes = (
"314 240 OFFCURVE",
"356 196 OFFCURVE",
"356 159 QCURVE",
"356 123 OFFCURVE",
"314 81 OFFCURVE",
"276 81 QCURVE",
"240 81 OFFCURVE",
"197 122 OFFCURVE",
"197 159 QCURVE",
"197 196 OFFCURVE",
"240 240 OFFCURVE",
"276 240 QCURVE"
);
},
{
closed = 1;
nodes = (
"314 640 OFFCURVE",
"356 595 OFFCURVE",
"356 559 QCURVE",
"356 522 OFFCURVE",
"314 481 OFFCURVE",
"276 481 QCURVE",
"240 481 OFFCURVE",
"197 521 OFFCURVE",
"197 559 QCURVE",
"197 595 OFFCURVE",
"240 640 OFFCURVE",
"276 640 QCURVE"
);
},
{
closed = 1;
nodes = (
"47 304 LINE",
"47 418 LINE",
"507 418 LINE",
"507 304 LINE"
);
}
);
width = 554;
}
);
unicode = 00F7;
},
{
color = (166, 255, 153, 255);
glyphname = multiply;
layers = (
{
layerId = "C190A61C-9222-48AB-B064-ABA42A1AB28F";
paths = (
{
closed = 1;
nodes = (
"285 277 LINE",
"132 124 LINE",
"50 208 LINE",
"202 361 LINE",
"50 513 LINE",
"133 596 LINE",
"286 444 LINE",
"438 596 LINE",
"521 514 LINE",
"368 361 LINE",
"521 209 LINE",
"437 124 LINE"
);
}
);
width = 571;
}
);
unicode = 00D7;
},
{
color = (166, 255, 153, 255);
glyphname = yen;
layers = (
{
layerId = "C190A61C-9222-48AB-B064-ABA42A1AB28F";
paths = (
{
closed = 1;
nodes = (
"535 708 LINE",
"699 708 LINE",
"486 351 LINE",
"591 351 LINE",
"591 255 LINE",
"437 255 LINE",
"437 179 LINE",
"591 179 LINE",
"591 83 LINE",
"437 83 LINE",
"437 0 LINE",
"292 0 LINE",
"292 83 LINE",
"137 83 LINE",
"137 179 LINE",
"292 179 LINE",
"292 255 LINE",
"137 255 LINE",
"137 351 LINE",
"241 351 LINE",
"27 708 LINE",
"194 708 LINE",
"366 402 LINE"
);
}
);
width = 726;
}
);
unicode = 00A5;
},
{
color = (166, 255, 153, 255);
glyphname = uni20BD;
layers = (
{
layerId = "C190A61C-9222-48AB-B064-ABA42A1AB28F";
paths = (
{
closed = 1;
nodes = (
"397 708 LINE",
"457 708 OFFCURVE",
"557 687 OFFCURVE",
"629 636 OFFCURVE",
"669 549 OFFCURVE",
"669 483 QCURVE",
"669 420 OFFCURVE",
"621 329 OFFCURVE",
"581 301 QCURVE",
"546 276 OFFCURVE",
"455 252 OFFCURVE",
"399 252 QCURVE",
"274 252 LINE",
"274 178 LINE",
"435 178 LINE",
"435 73 LINE",
"274 73 LINE",
"274 0 LINE",
"129 0 LINE",
"129 73 LINE",
"47 73 LINE",
"47 178 LINE",
"129 178 LINE",
"129 252 LINE",
"47 252 LINE",
"47 369 LINE",
"129 369 LINE",
"129 708 LINE"
);
},
{
closed = 1;
nodes = (
"389 369 LINE",
"417 369 OFFCURVE",
"466 380 OFFCURVE",
"503 405 OFFCURVE",
"525 445 OFFCURVE",
"526 475 QCURVE",
"527 509 OFFCURVE",
"506 550 OFFCURVE",
"469 572 OFFCURVE",
"417 579 OFFCURVE",
"386 579 QCURVE",
"274 579 LINE",
"274 369 LINE"
);
}
);
width = 706;
}
);
unicode = 20BD;
},
{
color = (166, 255, 153, 255);
glyphname = uni20B4;
layers = (
{
layerId = "C190A61C-9222-48AB-B064-ABA42A1AB28F";
paths = (
{
closed = 1;
nodes = (
"344 713 OFFCURVE",
"426 694 OFFCURVE",
"489 652 OFFCURVE",
"527 585 OFFCURVE",
"525 537 QCURVE",
"523 517 OFFCURVE",
"510 475 OFFCURVE",
"495 460 QCURVE",
"533 460 LINE",
"533 377 LINE",
"430 377 LINE",
"338 319 LINE",
"533 319 LINE",
"533 238 LINE",
"223 238 LINE",
"208 230 OFFCURVE",
"193 200 OFFCURVE",
"193 186 QCURVE",
"192 151 OFFCURVE",
"240 118 OFFCURVE",
"275 117 QCURVE",
"294 117 OFFCURVE",
"334 120 OFFCURVE",
"367 135 OFFCURVE",
"388 162 OFFCURVE",
"389 186 QCURVE",
"526 186 LINE",
"527 132 OFFCURVE",
"486 56 OFFCURVE",
"417 8 OFFCURVE",
"325 -13 OFFCURVE",
"276 -13 QCURVE",
"233 -13 OFFCURVE",
"150 8 OFFCURVE",
"117 31 QCURVE",
"88 53 OFFCURVE",
"50 117 OFFCURVE",
"50 161 QCURVE",
"50 180 OFFCURVE",
"63 226 OFFCURVE",
"76 238 QCURVE",
"35 238 LINE",
"35 319 LINE",
"141 319 LINE",
"234 377 LINE",
"35 377 LINE",
"35 460 LINE",
"351 460 LINE",
"365 468 OFFCURVE",
"384 500 OFFCURVE",
"385 515 QCURVE",
"387 550 OFFCURVE",
"337 584 OFFCURVE",
"302 585 QCURVE",
"283 585 OFFCURVE",
"244 582 OFFCURVE",
"211 567 OFFCURVE",
"190 539 OFFCURVE",
"189 515 QCURVE",
"52 515 LINE",
"51 570 OFFCURVE",
"92 645 OFFCURVE",
"162 692 OFFCURVE",
"253 713 OFFCURVE",
"302 713 QCURVE"
);
}
);
width = 568;
}
);
unicode = 20B4;
},
{
color = (166, 255, 153, 255);
glyphname = sterling;
layers = (
{
layerId = "C190A61C-9222-48AB-B064-ABA42A1AB28F";
paths = (
{
closed = 1;
nodes = (
"483 396 LINE",
"483 276 LINE",
"271 276 LINE",
"271 128 LINE",
"575 128 LINE",
"575 0 LINE",
"48 0 LINE",
"48 128 LINE",
"131 128 LINE",
"131 276 LINE",
"47 276 LINE",
"47 396 LINE",
"131 396 LINE",
"131 507 LINE",
"131 610 OFFCURVE",
"252 717 OFFCURVE",
"354 718 QCURVE",
"460 720 OFFCURVE",
"564 624 OFFCURVE",
"567 529 QCURVE",
"434 529 LINE",
"431 567 OFFCURVE",
"392 609 OFFCURVE",
"350 607 QCURVE",
"308 604 OFFCURVE",
"271 555 OFFCURVE",
"271 510 QCURVE",
"271 396 LINE"
);
}
);
width = 622;
}
);
unicode = 00A3;
},
{
color = (166, 255, 153, 255);
glyphname = Scedilla;
layers = (
{
layerId = "C190A61C-9222-48AB-B064-ABA42A1AB28F";
paths = (
{
closed = 1;
nodes = (
"439 504 LINE",
"433 549 OFFCURVE",
"365 588 OFFCURVE",
"314 590 QCURVE",
"296 590 OFFCURVE",
"257 584 OFFCURVE",
"223 566 OFFCURVE",
"201 536 OFFCURVE",
"201 514 QCURVE",
"200 491 OFFCURVE",
"225 459 OFFCURVE",
"246 449 QCURVE",
"261 442 OFFCURVE",
"296 431 OFFCURVE",
"330 422 OFFCURVE",
"362 415 OFFCURVE",
"376 413 QCURVE",
"417 404 OFFCURVE",
"497 380 OFFCURVE",
"559 338 OFFCURVE",
"597 268 OFFCURVE",
"598 212 QCURVE",
"598 151 OFFCURVE",
"552 65 OFFCURVE",
"513 39 QCURVE",
"481 17 OFFCURVE",
"402 -5 OFFCURVE",
"354 -7 QCURVE",
"345 -45 LINE",
"394 -38 OFFCURVE",
"456 -89 OFFCURVE",
"454 -140 QCURVE",
"452 -178 OFFCURVE",
"411 -233 OFFCURVE",
"383 -246 QCURVE",
"357 -258 OFFCURVE",
"294 -263 OFFCURVE",
"240 -258 QCURVE",
"241 -178 LINE",
"275 -182 OFFCURVE",
"317 -180 OFFCURVE",
"341 -170 OFFCURVE",
"351 -154 OFFCURVE",
"351 -144 QCURVE",
"351 -124 OFFCURVE",
"319 -108 OFFCURVE",
"288 -108 QCURVE",
"276 -108 OFFCURVE",
"261 -108 OFFCURVE",
"242 -109 QCURVE",
"270 -4 LINE",
"222 2 OFFCURVE",
"138 36 OFFCURVE",
"76 91 OFFCURVE",
"39 168 OFFCURVE",
"36 219 QCURVE",
"184 219 LINE",
"190 193 OFFCURVE",
"218 159 OFFCURVE",
"256 137 OFFCURVE",
"303 127 OFFCURVE",
"327 126 QCURVE",
"352 125 OFFCURVE",
"398 131 OFFCURVE",
"433 148 OFFCURVE",
"453 178 OFFCURVE",
"453 201 QCURVE",
"453 233 OFFCURVE",
"415 262 OFFCURVE",
"392 268 QCURVE",
"375 273 OFFCURVE",
"350 279 OFFCURVE",
"326 285 OFFCURVE",
"300 291 OFFCURVE",
"283 296 QCURVE",
"245 305 OFFCURVE",
"164 330 OFFCURVE",
"132 353 QCURVE",
"93 380 OFFCURVE",
"54 464 OFFCURVE",
"56 515 QCURVE",
"59 575 OFFCURVE",
"109 654 OFFCURVE",
"187 700 OFFCURVE",
"281 718 OFFCURVE",
"328 717 QCURVE",
"380 716 OFFCURVE",
"469 689 OFFCURVE",
"536 637 OFFCURVE",
"578 557 OFFCURVE",
"583 504 QCURVE"
);
}
);
width = 635;
}
);
leftKerningGroup = _kern3;
rightKerningGroup = _kern4;
unicode = 015E;
},
{
color = (166, 255, 153, 255);
glyphname = t_alt;
layers = (
{
layerId = "C190A61C-9222-48AB-B064-ABA42A1AB28F";
paths = (
{
closed = 1;
nodes = (
"238 404 LINE",
"238 191 LINE",
"238 123 OFFCURVE",
"307 123 QCURVE",
"359 123 LINE",
"359 0 LINE",
"293 0 LINE",
"188 -4 OFFCURVE",
"96 84 OFFCURVE",
"97 173 QCURVE",
"97 404 LINE",
"17 404 LINE",
"17 527 LINE",
"100 527 LINE",
"124 670 LINE",
"238 670 LINE",
"238 527 LINE",
"364 527 LINE",
"364 404 LINE"
);
}
);
width = 391;
}
);
leftKerningGroup = _kern21;
rightKerningGroup = _kern21;
},
{
color = (166, 255, 153, 255);
glyphname = alt_1;
layers = (
{
layerId = "C190A61C-9222-48AB-B064-ABA42A1AB28F";
paths = (
{
closed = 1;
nodes = (
"211 521 LINE",
"47 521 LINE",
"47 621 LINE",
"75 621 OFFCURVE",
"134 628 OFFCURVE",
"188 647 OFFCURVE",
"233 681 OFFCURVE",
"248 708 QCURVE",
"356 708 LINE",
"356 128 LINE",
"515 128 LINE",
"515 0 LINE",
"35 0 LINE",
"35 128 LINE",
"211 128 LINE"
);
}
);
width = 522;
}
);
},
{
color = (166, 255, 153, 255);
glyphname = colon.uc;
layers = (
{
layerId = "C190A61C-9222-48AB-B064-ABA42A1AB28F";
paths = (
{
closed = 1;
nodes = (
"183 246 OFFCURVE",
"229 198 OFFCURVE",
"229 158 QCURVE",
"229 117 OFFCURVE",
"182 72 OFFCURVE",
"142 72 QCURVE",
"102 72 OFFCURVE",
"55 116 OFFCURVE",
"55 158 QCURVE",
"55 198 OFFCURVE",
"102 246 OFFCURVE",
"142 246 QCURVE"
);
},
{
closed = 1;
nodes = (
"183 606 OFFCURVE",
"229 557 OFFCURVE",
"229 517 QCURVE",
"229 476 OFFCURVE",
"182 431 OFFCURVE",
"142 431 QCURVE",
"102 431 OFFCURVE",
"55 475 OFFCURVE",
"55 517 QCURVE",
"55 557 OFFCURVE",
"102 606 OFFCURVE",
"142 606 QCURVE"
);
}
);
width = 284;
}
);
},
{
color = (166, 255, 153, 255);
glyphname = t2.alt;
layers = (
{
layerId = "C190A61C-9222-48AB-B064-ABA42A1AB28F";
paths = (
{
closed = 1;
nodes = (
"331 118 OFFCURVE",
"371 130 OFFCURVE",
"386 139 QCURVE",
"426 32 LINE",
"412 23 OFFCURVE",
"377 8 OFFCURVE",
"336 -3 OFFCURVE",
"300 -7 OFFCURVE",
"285 -7 QCURVE",
"237 -7 OFFCURVE",
"164 19 OFFCURVE",
"140 45 QCURVE",
"118 67 OFFCURVE",
"97 137 OFFCURVE",
"97 181 QCURVE",
"97 404 LINE",
"17 404 LINE",
"17 527 LINE",
"97 527 LINE",
"97 671 LINE",
"238 671 LINE",
"238 527 LINE",
"393 527 LINE",
"393 404 LINE",
"238 404 LINE",
"238 214 LINE",
"238 196 OFFCURVE",
"243 163 OFFCURVE",
"260 135 OFFCURVE",
"291 118 OFFCURVE",
"315 118 QCURVE"
);
}
);
width = 429;
}
);
},
{
color = (166, 255, 153, 255);
glyphname = hyphen.uc;
layers = (
{
layerId = "C190A61C-9222-48AB-B064-ABA42A1AB28F";
paths = (
{
closed = 1;
nodes = (
"391 302 LINE",
"62 302 LINE",
"62 420 LINE",
"391 420 LINE"
);
}
);
width = 453;
}
);
},
{
color = (166, 255, 153, 255);
glyphname = uni00AD.uc;
layers = (
{
layerId = "C190A61C-9222-48AB-B064-ABA42A1AB28F";
paths = (
{
closed = 1;
nodes = (
"391 302 LINE",
"62 302 LINE",
"62 420 LINE",
"391 420 LINE"
);
}
);
width = 453;
}
);
},
{
color = (166, 255, 153, 255);
glyphname = endash.uc;
layers = (
{
layerId = "C190A61C-9222-48AB-B064-ABA42A1AB28F";
paths = (
{
closed = 1;
nodes = (
"62 302 LINE",
"62 420 LINE",
"561 420 LINE",
"561 302 LINE"
);
}
);
width = 623;
}
);
},
{
color = (166, 255, 153, 255);
glyphname = emdash.uc;
layers = (
{
layerId = "C190A61C-9222-48AB-B064-ABA42A1AB28F";
paths = (
{
closed = 1;
nodes = (
"62 302 LINE",
"62 420 LINE",
"785 420 LINE",
"785 302 LINE"
);
}
);
width = 847;
}
);
},
{
color = (166, 255, 153, 255);
glyphname = uni2117;
layers = (
{
layerId = "C190A61C-9222-48AB-B064-ABA42A1AB28F";
paths = (
{
closed = 1;
nodes = (
"364 -88 OFFCURVE",
"212 -32 OFFCURVE",
"105 74 OFFCURVE",
"47 225 OFFCURVE",
"47 320 QCURVE",
"47 413 OFFCURVE",
"106 565 OFFCURVE",
"214 671 OFFCURVE",
"365 729 OFFCURVE",
"457 729 QCURVE",
"547 729 OFFCURVE",
"697 669 OFFCURVE",
"804 561 OFFCURVE",
"863 410 OFFCURVE",
"863 320 QCURVE",
"863 225 OFFCURVE",
"806 74 OFFCURVE",
"700 -32 OFFCURVE",
"550 -88 OFFCURVE",
"457 -88 QCURVE"
);
},
{
closed = 1;
nodes = (
"533 5 OFFCURVE",
"646 48 OFFCURVE",
"726 129 OFFCURVE",
"768 246 OFFCURVE",
"768 319 QCURVE",
"768 391 OFFCURVE",
"724 507 OFFCURVE",
"644 589 OFFCURVE",
"531 633 OFFCURVE",
"461 633 QCURVE",
"391 633 OFFCURVE",
"276 589 OFFCURVE",
"194 507 OFFCURVE",
"149 391 OFFCURVE",
"149 319 QCURVE",
"149 246 OFFCURVE",
"193 129 OFFCURVE",
"274 48 OFFCURVE",
"389 5 OFFCURVE",
"461 5 QCURVE"
);
},
{
closed = 1;
nodes = (
"403 217 LINE",
"403 78 LINE",
"307 78 LINE",
"307 537 LINE",
"481 537 LINE",
"522 537 OFFCURVE",
"588 520 OFFCURVE",
"634 481 OFFCURVE",
"659 420 OFFCURVE",
"659 376 QCURVE",
"658 298 OFFCURVE",
"562 217 OFFCURVE",
"487 217 QCURVE"
);
},
{
closed = 1;
nodes = (
"403 451 LINE",
"403 301 LINE",
"482 301 LINE",
"517 301 OFFCURVE",
"563 338 OFFCURVE",
"565 375 QCURVE",
"567 415 OFFCURVE",
"521 451 OFFCURVE",
"481 451 QCURVE"
);
}
);
width = 910;
}
);
unicode = 2117;
},
{
color = (166, 255, 153, 255);
glyphname = f_alt;
layers = (
{
layerId = "C190A61C-9222-48AB-B064-ABA42A1AB28F";
paths = (
{
closed = 1;
nodes = (
"367 527 LINE",
"367 404 LINE",
"238 404 LINE",
"238 0 LINE",
"97 0 LINE",
"97 404 LINE",
"17 404 LINE",
"17 527 LINE",
"97 527 LINE",
"97 592 LINE",
"97 637 OFFCURVE",
"126 704 OFFCURVE",
"179 746 OFFCURVE",
"249 768 OFFCURVE",
"292 768 QCURVE",
"323 768 OFFCURVE",
"388 752 OFFCURVE",
"414 737 QCURVE",
"373 628 LINE",
"359 636 OFFCURVE",
"328 644 OFFCURVE",
"309 644 QCURVE",
"277 645 OFFCURVE",
"238 610 OFFCURVE",
"238 578 QCURVE",
"238 527 LINE"
);
}
);
width = 379;
}
);
},
{
color = (166, 255, 153, 255);
glyphname = g_alt;
layers = (
{
layerId = "C190A61C-9222-48AB-B064-ABA42A1AB28F";
paths = (
{
closed = 1;
nodes = (
"409 17 OFFCURVE",
"324 -8 OFFCURVE",
"274 -9 QCURVE",
"214 -9 OFFCURVE",
"123 32 OFFCURVE",
"63 104 OFFCURVE",
"31 201 OFFCURVE",
"31 258 QCURVE",
"31 321 OFFCURVE",
"67 428 OFFCURVE",
"102 467 QCURVE",
"135 503 OFFCURVE",
"233 537 OFFCURVE",
"288 536 QCURVE",
"326 536 OFFCURVE",
"412 505 OFFCURVE",
"444 470 QCURVE",
"459 527 LINE",
"581 527 LINE",
"581 95 LINE",
"581 59 OFFCURVE",
"579 -17 OFFCURVE",
"567 -90 OFFCURVE",
"539 -159 OFFCURVE",
"514 -189 QCURVE",
"481 -227 OFFCURVE",
"370 -273 OFFCURVE",
"291 -273 QCURVE",
"227 -274 OFFCURVE",
"105 -240 OFFCURVE",
"61 -211 QCURVE",
"81 -150 LINE",
"86 -135 OFFCURVE",
"95 -105 OFFCURVE",
"99 -90 QCURVE",
"113 -98 OFFCURVE",
"154 -117 OFFCURVE",
"203 -133 OFFCURVE",
"258 -143 OFFCURVE",
"287 -142 QCURVE",
"335 -140 OFFCURVE",
"394 -108 OFFCURVE",
"412 -81 QCURVE",
"431 -53 OFFCURVE",
"440 23 OFFCURVE",
"438 56 QCURVE"
);
},
{
closed = 1;
nodes = (
"339 115 OFFCURVE",
"390 139 OFFCURVE",
"422 180 OFFCURVE",
"438 235 OFFCURVE",
"438 266 QCURVE",
"437 329 OFFCURVE",
"369 407 OFFCURVE",
"305 408 QCURVE",
"272 408 OFFCURVE",
"221 386 OFFCURVE",
"188 346 OFFCURVE",
"172 292 OFFCURVE",
"172 261 QCURVE",
"172 228 OFFCURVE",
"189 175 OFFCURVE",
"223 136 OFFCURVE",
"273 115 OFFCURVE",
"306 115 QCURVE"
);
}
);
width = 636;
}
);
},
{
color = (166, 255, 153, 255);
glyphname = y;
layers = (
{
layerId = "C190A61C-9222-48AB-B064-ABA42A1AB28F";
paths = (
{
closed = 1;
nodes = (
"420 -51 OFFCURVE",
"426 23 OFFCURVE",
"426 59 QCURVE",
"397 22 OFFCURVE",
"313 -8 OFFCURVE",
"264 -8 QCURVE",
"207 -8 OFFCURVE",
"124 26 OFFCURVE",
"99 60 QCURVE",
"76 93 OFFCURVE",
"58 180 OFFCURVE",
"58 231 QCURVE",
"58 527 LINE",
"199 527 LINE",
"199 248 LINE",
"199 221 OFFCURVE",
"208 170 OFFCURVE",
"223 153 QCURVE",
"247 117 OFFCURVE",
"310 117 QCURVE",
"340 117 OFFCURVE",
"392 142 OFFCURVE",
"407 169 QCURVE",
"420 192 OFFCURVE",
"426 243 OFFCURVE",
"426 273 QCURVE",
"426 527 LINE",
"568 527 LINE",
"568 94 LINE",
"568 58 OFFCURVE",
"567 -17 OFFCURVE",
"556 -89 OFFCURVE",
"528 -157 OFFCURVE",
"503 -186 QCURVE",
"468 -226 OFFCURVE",
"355 -274 OFFCURVE",
"276 -273 QCURVE",
"218 -274 OFFCURVE",
"104 -241 OFFCURVE",
"56 -210 QCURVE",
"101 -90 LINE",
"127 -109 OFFCURVE",
"214 -141 OFFCURVE",
"273 -141 QCURVE",
"321 -141 OFFCURVE",
"382 -110 OFFCURVE",
"400 -82 QCURVE"
);
}
);
width = 623;
}
);
unicode = 0079;
},
{
color = (166, 255, 153, 255);
glyphname = a_alt;
layers = (
{
layerId = "C190A61C-9222-48AB-B064-ABA42A1AB28F";
paths = (
{
closed = 1;
nodes = (
"364 230 OFFCURVE",
"295 226 OFFCURVE",
"263 220 QCURVE",
"225 214 OFFCURVE",
"178 181 OFFCURVE",
"179 154 QCURVE",
"179 132 OFFCURVE",
"218 101 OFFCURVE",
"254 101 QCURVE",
"285 102 OFFCURVE",
"331 124 OFFCURVE",
"365 160 OFFCURVE",
"383 206 OFFCURVE",
"383 230 QCURVE"
);
},
{
closed = 1;
nodes = (
"386 54 LINE",
"355 21 OFFCURVE",
"267 -8 OFFCURVE",
"223 -8 QCURVE",
"177 -8 OFFCURVE",
"114 12 OFFCURVE",
"66 50 OFFCURVE",
"37 109 OFFCURVE",
"37 147 QCURVE",
"37 186 OFFCURVE",
"65 244 OFFCURVE",
"115 285 OFFCURVE",
"171 308 OFFCURVE",
"206 317 QCURVE",
"250 326 OFFCURVE",
"345 332 OFFCURVE",
"382 332 QCURVE",
"385 380 OFFCURVE",
"334 420 OFFCURVE",
"288 420 QCURVE",
"273 420 OFFCURVE",
"241 416 OFFCURVE",
"214 404 OFFCURVE",
"195 383 OFFCURVE",
"192 368 QCURVE",
"47 368 LINE",
"52 416 OFFCURVE",
"95 481 OFFCURVE",
"161 521 OFFCURVE",
"242 538 OFFCURVE",
"285 538 QCURVE",
"309 538 OFFCURVE",
"359 533 OFFCURVE",
"407 518 OFFCURVE",
"450 493 OFFCURVE",
"469 473 QCURVE",
"503 434 OFFCURVE",
"519 334 OFFCURVE",
"519 285 QCURVE",
"519 0 LINE",
"394 0 LINE"
);
}
);
width = 572;
}
);
leftKerningGroup = _kern27;
rightKerningGroup = _kern27;
},
{
color = (166, 255, 153, 255);
glyphname = uni0490;
layers = (
{
layerId = "C190A61C-9222-48AB-B064-ABA42A1AB28F";
paths = (
{
closed = 1;
nodes = (
"75 0 LINE",
"75 708 LINE",
"420 708 LINE",
"420 849 LINE",
"565 849 LINE",
"565 579 LINE",
"220 579 LINE",
"220 0 LINE"
);
}
);
width = 585;
}
);
leftKerningGroup = _kern23;
rightKerningGroup = _kern23;
unicode = 0490;
},
{
color = (166, 255, 153, 255);
glyphname = uni0491;
layers = (
{
layerId = "C190A61C-9222-48AB-B064-ABA42A1AB28F";
paths = (
{
closed = 1;
nodes = (
"197 405 LINE",
"197 0 LINE",
"56 0 LINE",
"56 527 LINE",
"316 527 LINE",
"316 681 LINE",
"456 681 LINE",
"456 405 LINE"
);
}
);
width = 476;
}
);
leftKerningGroup = _kern24;
rightKerningGroup = _kern24;
unicode = 0491;
},
{
color = (166, 255, 153, 255);
glyphname = uni0406;
layers = (
{
layerId = "C190A61C-9222-48AB-B064-ABA42A1AB28F";
paths = (
{
closed = 1;
nodes = (
"220 0 LINE",
"75 0 LINE",
"75 708 LINE",
"220 708 LINE"
);
}
);
width = 295;
}
);
unicode = 0406;
},
{
color = (166, 255, 153, 255);
glyphname = uni0456;
layers = (
{
layerId = "C190A61C-9222-48AB-B064-ABA42A1AB28F";
paths = (
{
closed = 1;
nodes = (
"173 772 OFFCURVE",
"221 726 OFFCURVE",
"221 688 QCURVE",
"221 648 OFFCURVE",
"173 603 OFFCURVE",
"134 603 QCURVE",
"96 603 OFFCURVE",
"47 648 OFFCURVE",
"47 688 QCURVE",
"47 726 OFFCURVE",
"96 772 OFFCURVE",
"134 772 QCURVE"
);
},
{
closed = 1;
nodes = (
"205 0 LINE",
"64 0 LINE",
"64 527 LINE",
"205 527 LINE"
);
}
);
width = 269;
}
);
unicode = 0456;
},
{
color = (166, 255, 153, 255);
glyphname = uni0404;
layers = (
{
layerId = "C190A61C-9222-48AB-B064-ABA42A1AB28F";
paths = (
{
closed = 1;
nodes = (
"466 416 LINE",
"466 292 LINE",
"189 292 LINE",
"193 215 OFFCURVE",
"292 124 OFFCURVE",
"370 124 QCURVE",
"399 124 OFFCURVE",
"453 135 OFFCURVE",
"497 160 OFFCURVE",
"530 201 OFFCURVE",
"538 232 QCURVE",
"677 232 LINE",
"671 172 OFFCURVE",
"615 82 OFFCURVE",
"529 22 OFFCURVE",
"423 -7 OFFCURVE",
"367 -6 QCURVE",
"285 -5 OFFCURVE",
"161 49 OFFCURVE",
"78 145 OFFCURVE",
"36 276 OFFCURVE",
"36 355 QCURVE",
"36 435 OFFCURVE",
"77 567 OFFCURVE",
"160 661 OFFCURVE",
"283 715 OFFCURVE",
"365 717 QCURVE",
"422 718 OFFCURVE",
"527 689 OFFCURVE",
"611 628 OFFCURVE",
"666 537 OFFCURVE",
"672 477 QCURVE",
"534 477 LINE",
"527 505 OFFCURVE",
"494 547 OFFCURVE",
"449 574 OFFCURVE",
"396 588 OFFCURVE",
"369 588 QCURVE",
"288 588 OFFCURVE",
"196 495 OFFCURVE",
"189 416 QCURVE"
);
}
);
width = 713;
}
);
unicode = 0404;
},
{
color = (166, 255, 153, 255);
glyphname = uni0454;
layers = (
{
layerId = "C190A61C-9222-48AB-B064-ABA42A1AB28F";
paths = (
{
closed = 1;
nodes = (
"300 114 OFFCURVE",
"327 118 OFFCURVE",
"354 127 OFFCURVE",
"377 140 OFFCURVE",
"383 150 QCURVE",
"527 150 LINE",
"518 108 OFFCURVE",
"472 48 OFFCURVE",
"407 10 OFFCURVE",
"330 -8 OFFCURVE",
"291 -8 QCURVE",
"163 -8 OFFCURVE",
"31 134 OFFCURVE",
"31 265 QCURVE",
"31 325 OFFCURVE",
"65 426 OFFCURVE",
"130 499 OFFCURVE",
"227 538 OFFCURVE",
"291 538 QCURVE",
"334 538 OFFCURVE",
"412 518 OFFCURVE",
"474 477 OFFCURVE",
"518 412 OFFCURVE",
"528 369 QCURVE",
"384 369 LINE",
"379 381 OFFCURVE",
"357 399 OFFCURVE",
"328 409 OFFCURVE",
"299 414 OFFCURVE",
"287 414 QCURVE",
"265 414 OFFCURVE",
"222 402 OFFCURVE",
"190 379 OFFCURVE",
"169 343 OFFCURVE",
"168 319 QCURVE",
"364 319 LINE",
"364 208 LINE",
"168 208 LINE",
"169 183 OFFCURVE",
"190 147 OFFCURVE",
"223 124 OFFCURVE",
"266 114 OFFCURVE",
"289 114 QCURVE"
);
}
);
width = 556;
}
);
unicode = 0454;
},
{
color = (166, 255, 153, 255);
glyphname = uni0407;
layers = (
{
layerId = "C190A61C-9222-48AB-B064-ABA42A1AB28F";
paths = (
{
closed = 1;
nodes = (
"220 0 LINE",
"75 0 LINE",
"75 708 LINE",
"220 708 LINE"
);
},
{
closed = 1;
nodes = (
"93 905 OFFCURVE",
"135 863 OFFCURVE",
"135 827 QCURVE",
"135 790 OFFCURVE",
"93 748 OFFCURVE",
"59 748 QCURVE",
"25 748 OFFCURVE",
"-17 790 OFFCURVE",
"-17 827 QCURVE",
"-17 863 OFFCURVE",
"25 905 OFFCURVE",
"59 905 QCURVE"
);
},
{
closed = 1;
nodes = (
"269 905 OFFCURVE",
"312 863 OFFCURVE",
"312 827 QCURVE",
"312 790 OFFCURVE",
"270 748 OFFCURVE",
"236 748 QCURVE",
"201 748 OFFCURVE",
"160 790 OFFCURVE",
"160 827 QCURVE",
"160 863 OFFCURVE",
"202 905 OFFCURVE",
"236 905 QCURVE"
);
}
);
width = 295;
}
);
unicode = 0407;
},
{
color = (166, 255, 153, 255);
glyphname = uni0457;
layers = (
{
layerId = "C190A61C-9222-48AB-B064-ABA42A1AB28F";
paths = (
{
closed = 1;
nodes = (
"205 0 LINE",
"64 0 LINE",
"64 527 LINE",
"205 527 LINE"
);
},
{
closed = 1;
nodes = (
"79 749 OFFCURVE",
"122 707 OFFCURVE",
"122 671 QCURVE",
"122 633 OFFCURVE",
"80 591 OFFCURVE",
"45 591 QCURVE",
"11 591 OFFCURVE",
"-30 633 OFFCURVE",
"-30 671 QCURVE",
"-30 707 OFFCURVE",
"12 749 OFFCURVE",
"45 749 QCURVE"
);
},
{
closed = 1;
nodes = (
"256 749 OFFCURVE",
"298 707 OFFCURVE",
"298 671 QCURVE",
"298 633 OFFCURVE",
"257 591 OFFCURVE",
"222 591 QCURVE",
"188 591 OFFCURVE",
"146 633 OFFCURVE",
"146 671 QCURVE",
"146 707 OFFCURVE",
"189 749 OFFCURVE",
"222 749 QCURVE"
);
}
);
width = 268;
}
);
unicode = 0457;
},
{
color = (166, 255, 153, 255);
glyphname = map;
layers = (
{
layerId = "C190A61C-9222-48AB-B064-ABA42A1AB28F";
paths = (
{
closed = 1;
nodes = (
"52 684 LINE",
"54 686 OFFCURVE",
"56 686 QCURVE",
"95 686 LINE",
"98 686 OFFCURVE",
"99 687 QCURVE",
"118 706 LINE",
"120 708 OFFCURVE",
"122 708 QCURVE",
"218 708 LINE",
"220 708 OFFCURVE",
"222 706 QCURVE",
"268 660 LINE",
"269 659 OFFCURVE",
"271 659 QCURVE",
"304 659 LINE",
"309 659 OFFCURVE",
"309 654 QCURVE",
"309 629 LINE",
"309 624 OFFCURVE",
"315 624 QCURVE",
"321 624 LINE",
"324 624 OFFCURVE",
"325 625 QCURVE",
"341 642 LINE",
"342 643 OFFCURVE",
"345 643 QCURVE",
"377 643 LINE",
"382 643 OFFCURVE",
"382 638 QCURVE",
"382 612 LINE",
"382 610 OFFCURVE",
"384 608 QCURVE",
"404 588 LINE",
"407 584 OFFCURVE",
"411 588 QCURVE",
"421 598 LINE",
"422 599 OFFCURVE",
"425 599 QCURVE",
"431 599 LINE",
"437 599 OFFCURVE",
"437 594 QCURVE",
"437 515 LINE",
"437 513 OFFCURVE",
"435 511 QCURVE",
"429 505 LINE",
"425 501 OFFCURVE",
"429 497 QCURVE",
"488 438 LINE",
"489 437 OFFCURVE",
"491 437 QCURVE",
"503 437 LINE",
"508 437 OFFCURVE",
"508 432 QCURVE",
"508 398 LINE",
"508 361 LINE",
"508 359 OFFCURVE",
"510 357 QCURVE",
"532 335 LINE",
"534 333 OFFCURVE",
"536 333 QCURVE",
"548 333 LINE",
"551 333 OFFCURVE",
"552 332 QCURVE",
"568 315 LINE",
"570 313 OFFCURVE",
"570 311 QCURVE",
"570 274 LINE",
"570 272 OFFCURVE",
"568 270 QCURVE",
"562 265 LINE",
"558 261 OFFCURVE",
"562 257 QCURVE",
"583 237 LINE",
"584 236 OFFCURVE",
"584 233 QCURVE",
"584 228 OFFCURVE",
"579 228 QCURVE",
"560 228 LINE",
"546 228 LINE",
"544 228 OFFCURVE",
"543 229 QCURVE",
"534 238 LINE",
"530 241 OFFCURVE",
"527 238 QCURVE",
"516 227 LINE",
"511 224 OFFCURVE",
"508 227 QCURVE",
"493 242 LINE",
"490 245 OFFCURVE",
"485 242 QCURVE",
"458 215 LINE",
"456 213 OFFCURVE",
"455 213 QCURVE",
"446 213 LINE",
"441 213 OFFCURVE",
"441 219 QCURVE",
"441 253 LINE",
"441 257 OFFCURVE",
"434 259 OFFCURVE",
"432 257 QCURVE",
"410 235 LINE",
"409 234 OFFCURVE",
"409 232 QCURVE",
"409 205 LINE",
"409 202 OFFCURVE",
"410 201 QCURVE",
"420 191 LINE",
"423 187 OFFCURVE",
"420 184 QCURVE",
"400 164 LINE",
"399 163 OFFCURVE",
"399 160 QCURVE",
"399 135 LINE",
"399 133 OFFCURVE",
"397 131 QCURVE",
"375 109 LINE",
"374 108 OFFCURVE",
"374 106 QCURVE",
"374 94 LINE",
"374 92 OFFCURVE",
"372 90 QCURVE",
"360 78 LINE",
"358 76 OFFCURVE",
"357 76 QCURVE",
"348 76 LINE",
"346 76 OFFCURVE",
"345 75 QCURVE",
"335 65 LINE",
"333 63 OFFCURVE",
"333 61 QCURVE",
"333 23 LINE",
"333 17 OFFCURVE",
"328 17 QCURVE",
"308 17 LINE",
"305 17 OFFCURVE",
"304 16 QCURVE",
"290 1 LINE",
"289 1 OFFCURVE",
"288 0 OFFCURVE",
"286 0 QCURVE",
"283 0 LINE",
"278 0 OFFCURVE",
"278 5 QCURVE",
"278 28 LINE",
"278 30 OFFCURVE",
"276 32 QCURVE",
"267 41 LINE",
"263 44 OFFCURVE",
"267 48 QCURVE",
"279 60 LINE",
"285 64 OFFCURVE",
"279 68 QCURVE",
"267 80 LINE",
"266 81 OFFCURVE",
"266 84 QCURVE",
"266 169 LINE",
"266 172 OFFCURVE",
"267 173 QCURVE",
"281 186 LINE",
"282 187 OFFCURVE",
"282 190 QCURVE",
"282 309 LINE",
"282 312 OFFCURVE",
"281 313 QCURVE",
"268 325 LINE",
"267 326 OFFCURVE",
"267 329 QCURVE",
"267 352 LINE",
"267 355 OFFCURVE",
"265 355 QCURVE",
"219 402 LINE",
"217 404 OFFCURVE",
"217 406 QCURVE",
"217 427 LINE",
"217 430 OFFCURVE",
"216 431 QCURVE",
"170 477 LINE",
"168 479 OFFCURVE",
"168 480 QCURVE",
"168 506 LINE",
"168 509 OFFCURVE",
"167 510 QCURVE",
"136 540 LINE",
"135 541 OFFCURVE",
"135 544 QCURVE",
"135 573 LINE",
"135 575 OFFCURVE",
"133 577 QCURVE",
"112 598 LINE",
"110 600 OFFCURVE",
"110 602 QCURVE",
"110 628 LINE",
"110 631 OFFCURVE",
"109 632 QCURVE",
"86 655 LINE",
"84 657 OFFCURVE",
"82 657 QCURVE",
"40 657 LINE",
"35 657 OFFCURVE",
"35 662 QCURVE",
"35 664 LINE",
"35 667 OFFCURVE",
"36 668 QCURVE"
);
}
);
width = 659;
}
);
},
